<svg id="Group_6" data-name="Group 6" xmlns="http://www.w3.org/2000/svg" width="42.106" height="37.884" viewBox="0 0 42.106 37.884">
  <path id="Path_12" data-name="Path 12" d="M108.471,43.3h11.591c1.5,0,1.729.313,1.334,1.712-1.021,3.49-2.042,7-3.062,10.488-.4,1.35-.856,1.712-2.223,1.712H101.062a1.887,1.887,0,0,1-2.173-1.581c-1.2-3.523-2.42-7.047-3.606-10.57-.412-1.235-.049-1.762,1.268-1.762Z" transform="translate(-79.46 -36.171)" fill="#bc7b52"/>
  <path id="Path_13" data-name="Path 13" d="M26.832,28.944c-3.836,0-7.672-.016-11.525.016a1.058,1.058,0,0,1-1.185-.823c-2.684-7.771-5.384-15.509-8.067-23.28a.86.86,0,0,0-1-.691c-.922.049-1.86.033-2.8.016A2.122,2.122,0,0,1,0,2.173,2.04,2.04,0,0,1,2.053.049C4.128-.033,6.219.016,8.309,0c.527,0,.609.362.724.724,1.613,4.626,3.211,9.253,4.824,13.9,1.054,3.046,2.14,6.092,3.161,9.154a1.277,1.277,0,0,0,1.432,1.054c6.52-.033,13.056-.016,19.576-.016a6.231,6.231,0,0,1,1.235.082,2,2,0,0,1,.165,3.935,4.324,4.324,0,0,1-1.218.132Q32.5,28.936,26.832,28.944Z" transform="translate(0.006 0)" fill="#bc7b52"/>
  <path id="Path_14" data-name="Path 14" d="M190.672,192.759a3.68,3.68,0,0,1-.016-7.359,3.68,3.68,0,1,1,.016,7.359Z" transform="translate(-156.211 -154.875)" fill="#bc7b52"/>
  <path id="Path_15" data-name="Path 15" d="M100.008,188.8a3.655,3.655,0,1,1-3.606-3.7A3.671,3.671,0,0,1,100.008,188.8Z" transform="translate(-77.434 -154.624)" fill="#bc7b52"/>
</svg>
