<svg id="Group_2" data-name="Group 2" xmlns="http://www.w3.org/2000/svg" width="53.543" height="40.818" viewBox="0 0 53.543 40.818">
  <path id="Path_5" data-name="Path 5" d="M26.772,40.818H7.216c-2.932,0-5.219-1.1-6.54-3.834a7.476,7.476,0,0,1-.644-3.447C0,24.806,0,16.108,0,7.378,0,2.674,2.674,0,7.41,0H46.423c3.512,0,5.96,1.772,6.894,4.832a7.78,7.78,0,0,1,.226,2.287V33.6c0,4.51-2.706,7.216-7.249,7.216ZM26.8,37.79H46.359c2.9,0,4.253-1.321,4.253-4.188V7.345c0-2.932-1.353-4.285-4.285-4.285H7.216c-2.867,0-4.253,1.353-4.253,4.22V33.634c0,2.8,1.385,4.188,4.188,4.188C13.692,37.79,20.264,37.79,26.8,37.79Z"/>
  <path id="Path_6" data-name="Path 6" d="M20.769,47.135a1.314,1.314,0,0,1-1.289-.87,1.348,1.348,0,0,1,.354-1.707c1.482-1.385,2.932-2.771,4.414-4.156,2.674-2.513,5.316-5.026,8.022-7.506.548-.515.644-.773,0-1.321-3.995-3.512-7.957-7.088-11.952-10.631-.193-.161-.387-.322-.548-.483a1.576,1.576,0,0,1-.193-2.158,1.553,1.553,0,0,1,2.158-.064c1.256,1.063,2.448,2.158,3.673,3.254,4.639,4.059,9.214,8.118,13.756,12.242.58.515.9.451,1.418-.032,5.606-5.09,11.243-10.116,16.881-15.174a2.038,2.038,0,0,1,1.546-.741,1.432,1.432,0,0,1,1.289.934,1.514,1.514,0,0,1-.515,1.772c-1.514,1.385-3.061,2.738-4.575,4.124-2.577,2.287-5.122,4.607-7.732,6.894-.548.483-.483.709,0,1.192Q53.42,38.308,59.3,43.946a11.5,11.5,0,0,1,.87.9,1.366,1.366,0,0,1-.193,1.9,1.337,1.337,0,0,1-1.8.161,4.2,4.2,0,0,1-.709-.612C53.4,42.464,49.345,38.63,45.35,34.764c-.548-.515-.87-.612-1.418-.032-.87.9-1.836,1.707-2.771,2.545a1.591,1.591,0,0,1-2.416.032c-.934-.773-1.869-1.579-2.738-2.448-.548-.548-.87-.515-1.45,0-4.027,3.834-8.054,7.6-12.113,11.4A2.586,2.586,0,0,1,20.769,47.135Z" transform="translate(-13.037 -12.052)"/>
</svg>
