<svg xmlns="http://www.w3.org/2000/svg" width="74.234" height="74.255" viewBox="0 0 74.234 74.255">
  <path id="Path_20" data-name="Path 20" d="M18.316,13.36a9.048,9.048,0,0,1-.7-7.308A8.449,8.449,0,0,1,24.957.078a8.41,8.41,0,0,1,8.5,4.147C34.469,5.82,35.281,7.5,36.18,9.155c.232.406.348.9.841,1.189,1.015-1.885,2-3.741,3.045-5.6A8.85,8.85,0,0,1,51.636.832,8.745,8.745,0,0,1,55.986,12.2c-.435,1.1-.058,1.16.841,1.16,2.117-.029,4.263-.029,6.38,0a6.558,6.558,0,0,1,6.7,6.7q.044,3.915,0,7.83c0,1.943-.754,2.784-2.726,2.7-1.363-.058-1.711.377-1.653,1.682.116,2.175.058,4.35.029,6.525,0,.7.029,1.015.928.841A6.477,6.477,0,0,1,72.69,50.189c-3.306,4.089-6.67,8.149-9.976,12.238-1.566,1.914-3.132,3.8-4.669,5.713A15.533,15.533,0,0,1,45.2,74.229c-6.9-.029-13.833,0-20.734-.058a42.6,42.6,0,0,1-10.295-1.45c-.725-.174-1.131-.174-1.508.551a2.007,2.007,0,0,1-1.972.957c-2.755,0-5.51.029-8.265,0A2.181,2.181,0,0,1,.047,71.764c-.029-8.5-.029-17.023,0-25.519,0-1.653.841-2.436,2.552-2.465,1.682-.029,3.393-.029,5.075,0,.783.029,1.1-.174,1.073-1.044-.058-3.712-.058-7.453,0-11.165,0-.87-.348-1.015-1.1-1.015-2.813-.029-3.277-.522-3.277-3.306,0-2.407-.029-4.843,0-7.25a6.543,6.543,0,0,1,6.612-6.641C13.328,13.3,15.706,13.36,18.316,13.36ZM34.353,69.908c3.045,0,5.394-.2,7.685.029,6.293.638,10.9-1.682,14.616-6.844,3.857-5.365,8.294-10.295,12.5-15.428a2.3,2.3,0,0,0,.609-2.523,2.128,2.128,0,0,0-1.769-1.334c-1.044-.174-1.711.493-2.349,1.189q-6.655,6.96-13.34,13.92a7,7,0,0,1-5.278,2.291c-3.77-.029-7.54,0-11.31,0-1.8,0-3.567.029-5.365-.029A2.173,2.173,0,0,1,28.2,59.062a2.214,2.214,0,0,1,2.088-2.2c.377-.029.783-.029,1.16-.029H45.228c1.8,0,2.784-.812,2.755-2.2-.029-1.363-.986-2.117-2.726-2.117-3.045,0-6.09-.029-9.135,0a10.553,10.553,0,0,1-6.844-2.349c-5.162-4.089-10.73-3.886-15.573.58a1.828,1.828,0,0,0-.667,1.479c.029,4.872.029,9.744,0,14.645,0,.783.145,1.247,1.015,1.392,1.711.29,3.393.754,5.1,1.073C24.435,70.256,29.771,69.763,34.353,69.908ZM52.129,52.77c2.987-3.1,5.887-6.148,8.787-9.164a1.335,1.335,0,0,0,.29-1.073c0-3.625-.029-7.25.029-10.875,0-.783-.2-1.1-1.044-1.1-5.133.029-10.237.029-15.37,0-.87,0-1.16.29-1.16,1.16.029,5.133.029,10.237,0,15.37,0,.841.29,1.1,1.1,1.044A6.929,6.929,0,0,1,52.129,52.77ZM30.438,45.433a5.337,5.337,0,0,0,.174-.522c0-4.437,0-8.874.029-13.311,0-1.044-.58-1.015-1.3-1.015-5.017,0-10.034.029-15.051-.029-.957,0-1.218.261-1.218,1.218.058,4.292.029,8.584.029,12.876,0,.261-.145.609.261.725C19.012,42.04,24.725,42.1,30.438,45.433ZM19.65,26.235c3.219,0,6.467-.029,9.686.029,1.015.029,1.334-.348,1.3-1.334-.058-2.059-.029-4.147,0-6.235,0-.7-.145-1.044-.957-1.044-6.177.029-12.354,0-18.53.029a2.168,2.168,0,0,0-2.407,2.436c-.029,1.653.058,3.277-.029,4.93-.058.986.348,1.218,1.247,1.189Zm35.031,0c3.219,0,6.467-.029,9.686.029.957.029,1.247-.319,1.189-1.247-.058-1.595,0-3.19-.029-4.785-.029-1.682-.812-2.552-2.465-2.552-6.119-.029-12.238,0-18.386-.029-.841,0-1.073.29-1.073,1.073.029,2.059.058,4.147,0,6.235-.029,1.044.377,1.3,1.334,1.276C48.214,26.206,51.462,26.235,54.681,26.235Zm-15.37,6.7V20.494c0-2.784,0-2.7-2.813-2.813-1.334-.058-1.566.406-1.566,1.624.058,8.642.029,17.284.029,25.925,0,2.958,0,2.9,2.958,2.958,1.218.029,1.421-.435,1.392-1.479C39.283,42.1,39.312,37.516,39.312,32.934ZM8.718,59.178V51.2c0-3.1,0-3.016-3.074-3.1-1.189-.029-1.3.435-1.3,1.421.029,5.742.029,11.484.029,17.226,0,3.19,0,3.132,3.132,3.161,1.1,0,1.247-.406,1.218-1.334C8.689,65.442,8.718,62.31,8.718,59.178ZM40.356,13.331c2.871,0,5.481.087,8.062-.029a4.247,4.247,0,0,0,3.857-3.886A4.446,4.446,0,0,0,49.519,4.66a4.306,4.306,0,0,0-5.249,1.566C42.908,8.459,41.748,10.779,40.356,13.331Zm-6.873,0c-1.334-2.465-2.465-4.7-3.741-6.844a4.276,4.276,0,0,0-5.278-1.856,4.53,4.53,0,0,0-2.958,4.785,4.47,4.47,0,0,0,4.06,3.886C28.118,13.418,30.67,13.331,33.483,13.331Z" transform="translate(-0.025 0.012)" fill="#fff"/>
</svg>
