<svg xmlns="http://www.w3.org/2000/svg" width="42.05" height="42.042" viewBox="0 0 42.05 42.042">
  <g id="Group_5" data-name="Group 5" transform="translate(-0.056)">
    <path id="Path_9" data-name="Path 9" d="M21.109,0h10.1A10.537,10.537,0,0,1,42.105,10.925V31.117A10.532,10.532,0,0,1,31.2,42.042H11A10.525,10.525,0,0,1,.063,31.068c0-6.818-.016-13.636,0-20.438A10.5,10.5,0,0,1,8.327.246,12.417,12.417,0,0,1,10.923,0ZM38.622,21.013v-10.1A7.032,7.032,0,0,0,31.2,3.5Q21.092,3.475,11,3.5a7.037,7.037,0,0,0-7.426,7.426c-.016,6.736,0,13.472,0,20.191a8.488,8.488,0,0,0,.2,2.037,7.01,7.01,0,0,0,7.114,5.405q10.1.025,20.191.016c4.6,0,7.557-2.957,7.557-7.541Q38.614,26.007,38.622,21.013Z" transform="translate(0 0)"/>
    <path id="Path_10" data-name="Path 10" d="M74.5,85.028A10.515,10.515,0,1,1,85.029,74.547,10.542,10.542,0,0,1,74.5,85.028Zm0-17.53a7.015,7.015,0,1,0,7.032,6.982A7.043,7.043,0,0,0,74.5,67.5Z" transform="translate(-53.439 -53.484)"/>
    <path id="Path_11" data-name="Path 11" d="M186.54,45.478a2.63,2.63,0,0,1-2.579,2.645,2.657,2.657,0,0,1-2.662-2.645,2.6,2.6,0,0,1,2.629-2.579A2.54,2.54,0,0,1,186.54,45.478Z" transform="translate(-151.467 -35.851)"/>
  </g>
</svg>
