<svg id="Group_1" data-name="Group 1" xmlns="http://www.w3.org/2000/svg" width="30.375" height="46.818" viewBox="0 0 30.375 46.818">
  <path id="Path_1" data-name="Path 1" d="M8.656,10.207c3.767.037,7.5.037,11.229.037H31.48c.585,0,.878-.073.841-.768C32.284,7.9,31.919,7.5,30.309,7.5H9.388a5.926,5.926,0,0,0-.8.037C7.7,7.683,7.3,8.524,7.449,9.8,7.559,10.682,8.254,10.207,8.656,10.207Z" transform="translate(-4.706 -4.757)" fill="none"/>
  <path id="Path_2" data-name="Path 2" d="M75.537,49.012V48.5c0,.073-.037.183-.037.256C75.5,48.866,75.537,48.939,75.537,49.012Z" transform="translate(-47.885 -30.76)"/>
  <path id="Path_3" data-name="Path 3" d="M75.5,63.819a1.013,1.013,0,0,0,.037.329V63.6A1.293,1.293,0,0,0,75.5,63.819Z" transform="translate(-47.885 -40.337)"/>
  <path id="Path_4" data-name="Path 4" d="M30.358,35.479V10.424c.037-1.9,0-3.767,0-5.669C30.358,1.609,28.749,0,25.64,0H4.718C1.609,0,0,1.609,0,4.755V42.319a4.135,4.135,0,0,0,4.5,4.5H25.9a4.131,4.131,0,0,0,4.462-4.462V35.479ZM3.877,2.78a5.926,5.926,0,0,1,.8-.037H25.6c1.609,0,1.975.4,2.012,1.975,0,.695-.256.768-.841.768-3.877-.037-7.718,0-11.595,0-3.731,0-7.5,0-11.229-.037-.4,0-1.1.439-1.207-.439C2.6,3.767,3,2.926,3.877,2.78Zm23.738,36.65c-.073,1.024,0,2.085-.037,3.109a1.388,1.388,0,0,1-1.536,1.536H4.206a1.362,1.362,0,0,1-1.5-1.536c-.037-1.061.037-2.121-.037-3.182-.037-.622.183-.768.768-.768,3.914.037,7.864,0,11.778,0,3.841,0,7.681.037,11.522,0C27.469,38.552,27.688,38.771,27.615,39.429Zm0-5.706c0,.475,0,.988.037,1.463,0,.549-.183.658-.695.658H3.438c-.658,0-.732-.256-.732-.8V9.071c0-.658.11-.878.841-.878,7.754.037,15.472.037,23.226,0,.695,0,.878.219.841.878a11.282,11.282,0,0,1,0,1.573v23.08Z" transform="translate(0)"/>
  <circle id="Ellipse_1" data-name="Ellipse 1" cx="2.195" cy="2.195" r="2.195" transform="translate(13.168 39.137)"/>
</svg>
