<svg xmlns="http://www.w3.org/2000/svg" width="52.383" height="45.9" viewBox="0 0 52.383 45.9">
  <g id="Group_3" data-name="Group 3" transform="translate(0.019 0.1)">
    <path id="Path_7" data-name="Path 7" d="M26.227,45.8H6.774c-2.018,0-2.262-.244-2.262-2.227V22.763a1.335,1.335,0,0,0-.766-1.357A7.144,7.144,0,0,1-.012,15.455a2.406,2.406,0,0,1,.348-1.462C2.841,9.609,5.312,5.259,7.783.874a1.851,1.851,0,0,1,1.879-.94H24.939c5.846,0,11.693.035,17.5-.035a2.384,2.384,0,0,1,2.436,1.392c2.192,3.967,4.385,7.934,6.751,11.832a5.024,5.024,0,0,1,0,5.22,7.039,7.039,0,0,1-2.993,3.132,1.264,1.264,0,0,0-.7,1.288c.035,6.995,0,13.989,0,21.019,0,1.67-.348,2.018-2.053,2.018ZM13.8,19.283a1.942,1.942,0,0,0-.278.174,7.434,7.434,0,0,1-5.881,3.028c-.731,0-.626.487-.626.9v8.6c0,3.41.035,6.821,0,10.231,0,.766.209,1.009.974.974a15.905,15.905,0,0,1,2.575,0c.87.07,1.079-.244,1.079-1.079-.035-4.072-.035-8.143-.035-12.18,0-3.271,1.74-5.011,4.976-5.011h2.575c3.236,0,4.976,1.775,4.976,5.011,0,4.106.035,8.213,0,12.284,0,.731.139.974.94.974,6.438-.035,12.911-.035,19.383,0,.7,0,.94-.174.94-.9-.035-6.333-.035-12.632,0-18.966,0-.661-.209-.87-.87-.9a6.918,6.918,0,0,1-5.324-2.645c-.418-.487-.557-.557-1.009,0a7.43,7.43,0,0,1-11.484-.035c-.487-.592-.626-.418-1.044.035C22.364,23.6,16.935,23.355,13.8,19.283Zm34.869-6.055c-2.018-3.55-3.932-6.925-5.811-10.3-.278-.487-.661-.383-1.079-.383H10.636a1.291,1.291,0,0,0-1.288.766c-1.67,3.028-3.41,6.055-5.115,9.083-.139.244-.418.487-.313.87C18.779,13.228,33.639,13.228,48.672,13.228ZM21.6,36.022c0-2.123.035-4.246,0-6.368-.035-1.462-.661-2.123-2.158-2.158-.974-.035-1.984-.035-2.958,0-1.6.035-2.3.731-2.3,2.332,0,4.176,0,8.352-.035,12.493,0,.766.278.9.94.87q2.767-.052,5.533,0c.731.035,1.009-.174,1.009-.974C21.563,40.2,21.6,38.11,21.6,36.022Zm23.35-16.042a5.208,5.208,0,0,0,4.628-3.306c.174-.522.139-.8-.522-.8-2.749.035-5.533.035-8.282,0-.626,0-.661.209-.487.731A5.026,5.026,0,0,0,44.949,19.979ZM7.5,15.873c-1.322,0-2.645.035-4,0-.87-.035-.87.278-.626.94a4.986,4.986,0,0,0,9.257-.07c.244-.7.07-.9-.626-.87C10.184,15.908,8.862,15.873,7.5,15.873Zm12.458,0H15.752c-.522,0-.626.139-.487.661a4.933,4.933,0,0,0,9.326.1c.209-.661-.035-.766-.592-.731C22.677,15.908,21.32,15.873,19.963,15.873ZM32.49,19.91a4.842,4.842,0,0,0,4.593-3.271c.209-.592.07-.766-.557-.766-2.714.035-5.463.035-8.178,0-.766,0-.766.278-.557.835A5.048,5.048,0,0,0,32.49,19.91Z" transform="translate(0)"/>
    <path id="Path_8" data-name="Path 8" d="M83.6,71.771c1.183,0,2.4-.035,3.584,0a3.438,3.438,0,0,1,3.445,3.236,57.894,57.894,0,0,1,0,6.02,3.37,3.37,0,0,1-3.376,3.2c-2.471.07-4.976.07-7.447,0A3.391,3.391,0,0,1,76.5,80.958c-.07-1.984-.07-3.967,0-5.916a3.435,3.435,0,0,1,3.515-3.271Zm-.1,9.953h3.376a1.037,1.037,0,0,0,1.183-1.183V75.529a1.061,1.061,0,0,0-1.218-1.183H80.3A1.107,1.107,0,0,0,79.043,75.6v4.907c0,.87.452,1.218,1.288,1.218Z" transform="translate(-49.858 -46.85)"/>
  </g>
</svg>
