<svg id="Group_7" data-name="Group 7" xmlns="http://www.w3.org/2000/svg" width="38.365" height="38.079" viewBox="0 0 38.365 38.079">
  <path id="Path_16" data-name="Path 16" d="M19.175,155.153H2.827a4.485,4.485,0,0,1-1.186-.12,2.085,2.085,0,0,1-1.516-2.552A4.8,4.8,0,0,1,.4,151.7c1.321-2.987,2.672-5.975,3.978-8.977a3.339,3.339,0,0,1,1.651-1.741c1.967-.991,3.9-2.027,5.855-3.062a1.062,1.062,0,0,1,1.231.06,10.455,10.455,0,0,0,12.28,0,1.039,1.039,0,0,1,1.231-.06c1.982,1.051,3.978,2.1,5.975,3.122a3.014,3.014,0,0,1,1.456,1.531c1.351,3.062,2.717,6.125,4.068,9.187.841,1.907-.12,3.363-2.237,3.363C30.329,155.153,24.745,155.153,19.175,155.153Z" transform="translate(-0.059 -117.074)" fill="#bc7b52"/>
  <path id="Path_17" data-name="Path 17" d="M87.763,9.465a11.158,11.158,0,0,1-2.012,7.176,7.835,7.835,0,0,1-13.165-.015A10.473,10.473,0,0,1,70.6,10.982a15.824,15.824,0,0,1,.36-4.684C71.956,2.23,74.478.2,78.8.053a10.556,10.556,0,0,1,3.693.48c2.9.961,4.323,3.137,4.939,5.99A13.7,13.7,0,0,1,87.763,9.465Z" transform="translate(-59.985 -0.045)" fill="#bc7b52"/>
</svg>
