<?xml version="1.0" standalone="no"?>
<!DOCTYPE svg PUBLIC "-//W3C//DTD SVG 1.1//EN" "http://www.w3.org/Graphics/SVG/1.1/DTD/svg11.dtd" >
<svg xmlns="http://www.w3.org/2000/svg" xmlns:xlink="http://www.w3.org/1999/xlink" version="1.1">
<metadata>
Created by FontForge 20161003 at Tue Feb 19 14:17:02 2019
 By www-data
Copyright (c) 2017 by Ahmet Altun. All rights reserved.
</metadata>
<defs>
<font id="BuketRetroBasic" horiz-adv-x="870" >
  <font-face 
    font-family="BuketRetroBasic"
    font-weight="400"
    font-stretch="normal"
    units-per-em="1000"
    panose-1="2 0 5 4 3 0 0 2 0 4"
    ascent="750"
    descent="-250"
    x-height="704"
    cap-height="705"
    bbox="-90 -329 1134 997"
    underline-thickness="50"
    underline-position="-150"
    unicode-range="U+000D-F6C3"
  />
<missing-glyph horiz-adv-x="669" 
 />
    <glyph glyph-name=".notdef" horiz-adv-x="669" 
 />
    <glyph glyph-name=".null" horiz-adv-x="0" 
 />
    <glyph glyph-name="nonmarkingreturn" horiz-adv-x="333" 
 />
    <glyph glyph-name="NULL" horiz-adv-x="0" 
 />
    <glyph glyph-name="NULL" horiz-adv-x="0" 
 />
    <glyph glyph-name="CR" unicode="&#xd;" horiz-adv-x="0" 
 />
    <glyph glyph-name="space" unicode=" " horiz-adv-x="270" 
 />
    <glyph glyph-name="exclam" unicode="!" horiz-adv-x="322" 
d="M224 688q0 -21 0.5 -62.5t0.5 -62.5q0 -41 -0.5 -123t-0.5 -123l2 -58q-2 -47 -17 -47q-8 0 -24 0.5t-24 0.5q-5 0 -16 -0.5t-16 -0.5h-4q-26 1 -27 15q0 4 0.5 10.5t0.5 9.5q0 18 -1 43t-1 57q0 10 0.5 32t0.5 33q0 25 -0.5 61.5t-0.5 54.5q0 145 2 156q3 18 17 20h13
q11 0 32 -1t31 -1q3 0 8.5 0.5t8.5 0.5q15 0 15 -15zM229 45q-9 -18 -15 -27.5t-20 -18.5t-33 -9q-14 0 -22 4q-19 4 -33 24.5t-14 42.5q0 26 19.5 47.5t49.5 21.5q27 0 48 -21t21 -48q0 -10 -1 -16z" />
    <glyph glyph-name="quotedbl" unicode="&#x22;" horiz-adv-x="355" 
d="M128 475q-4 0 -13 0.5t-14 0.5t-14 -0.5t-13 -0.5q-15 0 -15 14q0 33 -4 100t-4 100q0 16 33 16l34 -2q4 0 10 0.5t10 0.5q14 0 14 -15q0 -17 -5 -100q0 -64 -2 -77q-5 -36 -17 -37zM282 475q-4 0 -13 0.5t-14 0.5t-14 -0.5t-14 -0.5q-15 0 -15 14q0 33 -3.5 99.5
t-3.5 100.5q0 16 33 16l33 -2q3 0 10 0.5t10 0.5q14 0 14 -15q0 -17 -5 -100l1 -62q-3 -52 -19 -52z" />
    <glyph glyph-name="numbersign" unicode="#" horiz-adv-x="782" 
d="M317 0h-83q-6 0 -10.5 4.5t-4.5 10.5v113h-113q-6 0 -10.5 4.5t-4.5 10.5l-1 23v60q0 15 15 15h114v116h-114q-14 0 -14 15l1 24l-1 61q0 6 4.5 10.5t10.5 4.5h114v64l-2 50q0 14 15 14l24 -1l61 1q6 0 10.5 -4.5t4.5 -10.5v-112h116l2 31l-2 32l1 49q0 15 15 15h23l61 1
q14 -2 16 -16l-1 -49v-64h112q6 0 10.5 -4.5t4.5 -10.5l1 -23v-38l-1 -23q0 -6 -4.5 -10.5t-10.5 -4.5h-113v-117h113q6 0 10.5 -4.5t4.5 -10.5l-1 -23l1 -61q0 -6 -4.5 -10.5t-10.5 -4.5h-113v-32l2 -32l-1 -48q0 -6 -4.5 -10.5t-10.5 -4.5h-84q-15 0 -15 15l1 17v96h-118
v-112q0 -14 -16 -16zM333 359v-118h117v118h-117z" />
    <glyph glyph-name="dollar" unicode="$" horiz-adv-x="639" 
d="M391 825q0 -19 0.5 -58t0.5 -59q15 -2 65 -13q1 0 13.5 -4t26 -8.5t28 -10.5t24 -14t9.5 -15q0 -2 -2 -6l-19 -48q-16 -35 -29 -35q-7 0 -23 8.5t-24 8.5q-214 56 -228 -43q0 -32 7.5 -49.5t29 -29t47 -20t72 -30t93.5 -50.5l4 -2q3 -2 10.5 -8t15.5 -12.5t16.5 -16.5
t13.5 -20q19 -37 27 -85q0 -20 -1 -30q-1 -6 -2.5 -17.5t-2.5 -19t-4 -17t-7 -16.5q-35 -80 -160 -108v-32l2 -58q-2 -47 -17 -47q-8 0 -12.5 0.5t-12.5 0.5q-6 0 -16 -0.5t-16 -0.5h-4q-26 1 -27 15q0 3 0.5 10t0.5 10q0 17 -1 42t-1 55q-85 8 -154 43q1 2 -13 6.5
t-30.5 13.5t-20.5 22q0 1 1 3.5t1 3.5q4 7 12 19.5t13.5 22t12 19.5t11.5 15t8 5q6 0 17 -7.5t17 -8.5l4 -2q89 -39 144 -39q131 0 131 86q0 13 -3.5 24.5t-13 21.5t-16 16t-22.5 14.5t-22 11t-25.5 10.5t-22.5 9q-9 0 -57 23t-68 34q-1 1 -10 8.5t-12 10.5t-12 11.5
t-13 14.5t-11.5 16t-11.5 20t-8 22t-6 26.5t-2 29.5q0 21 6 44l3 11q3 11 6 19.5t8.5 20.5t13.5 22.5t18 18.5q61 48 127 58v4q-1 103 5 115q6 11 27 11q10 0 19 -1t20 -1q3 0 8.5 0.5t8.5 0.5q15 0 15 -15z" />
    <glyph glyph-name="percent" unicode="%" horiz-adv-x="825" 
d="M208 0q-91 0 -91 -1q-29 0 -29 6q0 2 1 3q14 19 41.5 53.5t39.5 50.5q49 65 174.5 227.5t191.5 251.5q6 7 27.5 38t39.5 52.5t27 21.5q10 0 30.5 -0.5t30.5 -0.5q9 1 18 1q30 0 34 -1q9 -3 9 -8q0 -3 -2.5 -6t-6.5 -7t-5 -6q1 0 -4.5 -6.5t-11.5 -14.5l-5 -7l-22 -29
q-24 -28 -112 -149t-148 -188q-7 -9 -173 -225q-3 -3 -9.5 -13t-11 -15.5t-11 -13t-12 -11t-10.5 -3.5zM764 140q1 0 1 -1q-8 -59 -28 -86l-1 -3q-2 -2 -7.5 -8t-12 -12.5t-16.5 -13.5t-21 -13t-26 -9.5t-31 -3.5q-11 0 -23.5 1.5t-37 8t-47 23.5t-34.5 43q-5 6 -8.5 13
t-5.5 16t-2.5 15t-2 16t-1.5 14q6 45 14 65q50 83 138 83q39 0 75 -18q16 -8 28.5 -17.5t20 -20.5t13 -19.5t8.5 -22t4 -19t2 -18t1 -13.5zM393 567q1 0 1 -1q-5 -37 -8 -42q-6 -31 -44.5 -68.5t-92.5 -37.5q-45 0 -83.5 19t-56.5 56q-5 6 -8.5 13t-5.5 16t-2.5 15t-2 16
t-1.5 14q3 35 6 43q46 105 146 105q39 0 75 -18q16 -8 28.5 -17.5t20 -20.5t13 -19.5t8.5 -22t4 -19t2 -18t1 -13.5zM612 76q31 5 45.5 24t14.5 41q0 24 -18.5 40t-43.5 16q-22 0 -40 -16.5t-18 -38.5q0 -54 60 -66zM241 504q24 2 41.5 18t17.5 40q0 26 -16 44.5t-41 18.5
q-28 0 -44.5 -18t-16.5 -44q0 -46 59 -59z" />
    <glyph glyph-name="ampersand" unicode="&#x26;" horiz-adv-x="857" 
d="M661 312l41 -30q30 -25 31 -36q0 -4 -3 -9q-8 -12 -20 -26t-21 -24t-23.5 -25.5t-21.5 -23.5q17 -19 82 -84q0 -2 20.5 -20t20.5 -27q0 -7 -11 -7h-10l-30 -1q-11 0 -31.5 -0.5t-31.5 -0.5t-23 1t-17 5q2 -1 -2.5 4t-13.5 14l-17 17l-16 16l-8 8q-70 -44 -114 -58.5
t-102 -18.5q-1 0 -19.5 0.5t-32.5 2.5q-25 0 -48 7t-34 13.5t-34.5 24.5t-31.5 23q-49 53 -49 128q0 38 8 54q9 27 22.5 48t33.5 38t36.5 27.5t42.5 24.5q-40 45 -56.5 73t-18 40t-1.5 49q0 82 74 143q70 40 131 40q33 0 63 -7t62 -25t51.5 -56t19.5 -92q0 -29 -9 -69
q-26 -77 -121 -125q15 -13 61.5 -56.5t72.5 -66.5q8 9 23.5 24.5l21.5 21.5q4 4 13 16t17 20t14 8q4 0 9 -3zM353 97q3 0 21 2t27 6q33 9 69 41q-21 20 -72.5 69.5t-79.5 77.5q-91 -42 -91 -94q0 -56 50 -88q6 -4 16.5 -6.5t18.5 -3.5t21.5 -2t19.5 -2zM287 531
q7 -37 22.5 -59t42.5 -45q86 39 86 101q0 32 -20.5 55t-52.5 23q-36 0 -56.5 -20.5t-21.5 -54.5z" />
    <glyph glyph-name="quotesingle" unicode="'" horiz-adv-x="201" 
d="M127 475q-5 0 -14 0.5t-13 0.5t-13 -0.5t-14 -0.5q-15 0 -15 14q0 33 -4 100t-4 100q0 16 33 16l34 -2q3 0 10 0.5t10 0.5q14 0 14 -15q0 -17 -5 -100q0 -64 -2 -77q-5 -36 -17 -37z" />
    <glyph glyph-name="parenleft" unicode="(" horiz-adv-x="438" 
d="M425 -93l-23 -33q-23 -29 -36 -29q-6 0 -8 2q-58 39 -104 79q-96 84 -134.5 197.5t-39.5 264.5q6 72 21.5 131.5t32 97.5t45.5 76t48 57t54 50q3 2 22.5 18.5t36.5 27.5t27 11q8 0 13 -7l8 -9l16 -18t15 -20t7 -17q0 -8 -7 -11q-229 -153 -229 -423q-2 -120 51.5 -225
t134.5 -169q4 -4 19 -13t24 -16.5t9 -13.5q0 -5 -3 -8z" />
    <glyph glyph-name="parenright" unicode=")" horiz-adv-x="438" 
d="M13 -93q-3 3 -3 8q0 6 9 13.5t24 16.5t19 13q81 64 134.5 169t51.5 225q0 270 -229 423q-7 3 -7 11q0 6 7 17t15 20l16 18l8 9q5 7 13 7q10 0 27 -11t36.5 -27.5t22.5 -18.5q35 -31 54 -50t48 -57t45.5 -76t32 -97.5t21.5 -131.5q-1 -151 -39.5 -264.5t-134.5 -197.5
q-46 -40 -104 -79q-2 -2 -8 -2q-20 0 -55 56z" />
    <glyph glyph-name="asterisk" unicode="*" horiz-adv-x="473" 
d="M359 669q-1 -2 -8.5 -15.5t-19 -34.5t-18.5 -33q4 1 13 1q7 0 23.5 -0.5t27.5 -0.5h19q27 0 27 -15v-57q0 -7 -5.5 -10.5t-18 -4.5t-23.5 -1t-31.5 0.5t-32.5 0.5q14 -22 32 -54t18 -38t-24.5 -23t-43.5 -18q-2 0 -8.5 7.5t-20.5 30.5t-28 54q-43 -93 -61 -93
q-10 0 -21 9q-31 15 -37.5 20.5t-6.5 12.5l5 11q4 10 16.5 33t29.5 47h-11h-25q-54 0 -65 2t-11 14v57q0 6 4.5 10.5t10.5 4.5h96q-21 35 -38 65q-13 24 -13 25q0 8 8 13l50 29q4 2 7 2q6 0 8.5 -1t11.5 -15t25 -46l17 -29q49 91 60 91q5 0 8 -2l49 -28q7 -5 7 -13
q0 -6 -2 -8z" />
    <glyph glyph-name="plus" unicode="+" horiz-adv-x="623" 
d="M356 0h-87q-13 0 -14.5 9t-1.5 66q0 7 1 34t0 43v8h-64q-77 -1 -89 3.5t-10 33.5q0 5 0.5 8.5t0.5 9v10.5q0 41 5 48q6 4 157 4q0 12 0.5 36.5t0.5 36.5q0 10 -0.5 23t-0.5 20v15.5t1 13t2.5 9t4.5 6t7 1.5h87q12 0 13.5 -7.5t1.5 -63.5v-90h145q4 0 7 -1.5t5 -5t3 -7.5
t1 -9.5v-9.5v-10v-9q0 -9 -0.5 -25t-0.5 -25q0 -11 -16.5 -13.5t-67.5 -2.5h-10q-13 0 -38 0.5t-28 0.5q-1 -4 -0.5 -12t1.5 -24.5t1 -25.5v-20v-33t-1.5 -22.5t-5.5 -17.5t-10 -5z" />
    <glyph glyph-name="comma" unicode="," horiz-adv-x="399" 
d="M230 61q0 -117 -97 -197l-33 30q22 17 35 46.5t14 49.5l-10 4q-19 4 -33 24.5t-14 42.5q0 26 19.5 47.5t49.5 21.5q28 0 48.5 -19.5t20.5 -49.5z" />
    <glyph glyph-name="hyphen" unicode="-" horiz-adv-x="546" 
d="M97 273l342 4q4 0 7 -1.5t5 -5t3 -7.5t1 -9.5v-9.5v-10v-9q0 -9 -0.5 -25t-0.5 -25q0 -11 -16.5 -13.5t-67.5 -2.5h-10l-133 1h-35q-84 -1 -95 6q-8 5 -6 32q1 17 1 27q0 41 5 48z" />
    <glyph glyph-name="period" unicode="." horiz-adv-x="318" 
d="M227 45q-9 -18 -15 -27.5t-20 -18.5t-33 -9q-14 0 -22 4q-19 4 -33 24.5t-14 42.5q0 26 19.5 47.5t49.5 21.5q27 0 48 -21t21 -48q0 -10 -1 -16z" />
    <glyph glyph-name="slash" unicode="/" horiz-adv-x="617" 
d="M238 351l75 111q62 89 115 169q7 7 17 26.5t20.5 33t24.5 13.5q117 0 117 -9q0 -5 -12 -20q-10 -15 -29.5 -44.5t-29.5 -44.5q-49 -81 -157 -235l-74 -111q-14 -20 -27.5 -40.5t-29 -44.5t-25.5 -40q-5 -5 -14.5 -21.5t-15.5 -22.5l-3 -5l-7 -14t-10 -17t-12.5 -17
t-14 -13t-13.5 -5q-44 0 -55 -1q-3 0 -14 -0.5t-18.5 -0.5t-16.5 1t-14 3.5t-5 6.5q0 8 8.5 22t25.5 35t18 22q19 25 80.5 123t95.5 140z" />
    <glyph glyph-name="zero" unicode="0" 
d="M799 351q0 -43 -5 -74q-3 -20 -9.5 -39.5t-12 -32t-15 -32t-14.5 -30.5q-31 -44 -64.5 -73.5t-73 -45.5t-65 -22.5t-69.5 -14.5q-6 0 -18 0.5t-18 0.5q-64 -5 -141 24q-53 19 -92.5 48.5t-63.5 62t-39 73.5t-21 77t-8 79q5 279 254 349q30 8 111 15q6 0 18 -0.5t18 -0.5
q95 -3 172.5 -57.5t118 -136.5t37.5 -170zM435 108q70 0 118.5 24t71.5 63.5t32 77t9 78.5q-8 97 -42 145q-22 31 -46 51t-54.5 29t-43 11t-45.5 5q-34 -2 -63 -8.5t-48.5 -14t-36 -21t-25.5 -23t-18 -26.5t-12 -25.5t-9 -26.5t-7 -22q-30 -130 30 -216q71 -101 189 -101z
" />
    <glyph glyph-name="one" unicode="1" horiz-adv-x="454" 
d="M346 0h-94q-6 0 -10.5 4.5t-4.5 10.5q1 16 0.5 46.5t-1.5 112t-1 138.5q0 155 2 201l-117 -60q-4 -2 -7 -2q-8 0 -13 8l-38 76q-2 4 -2 11q0 4 149 88q119 68 134 68q4 0 7 -1t5 -3t3.5 -4.5t2.5 -6.5t1.5 -6.5t0.5 -8v-8.5v-9v-9q0 -40 -0.5 -135t-0.5 -158
q0 -15 -0.5 -44t-0.5 -44v-78q0 -70 1 -106q0 -2 0.5 -14.5t0.5 -22t-1 -20.5t-5 -17.5t-11 -6.5z" />
    <glyph glyph-name="two" unicode="2" horiz-adv-x="635" 
d="M550 0h-469q-11 0 -13 12q0 13 9 22q77 74 189 191q11 12 32.5 39t34.5 40q4 4 14 18.5t17 21.5q47 69 47 143q0 42 -31.5 72t-90.5 30q-34 0 -62.5 -14t-43 -31t-26 -31t-16.5 -14q-4 1 -22 11q-69 39 -69 56q0 4 1.5 6t4 5t3.5 6q28 56 94.5 94t138.5 38
q122 0 187.5 -64t65.5 -159q0 -110 -63 -203q-2 -2 -4 -6q-41 -62 -116 -137l-27 -32h215q6 0 10.5 -4.5t4.5 -10.5v-84q0 -6 -4.5 -10.5t-10.5 -4.5z" />
    <glyph glyph-name="three" unicode="3" horiz-adv-x="600" 
d="M396 192q0 28 -9.5 46.5t-23.5 29t-41 16t-52 7t-66 1.5h-46q-6 0 -9.5 4t-4.5 12.5t-1.5 15t0 19.5t0.5 17q0 30 4 40q5 4 27 5t55 0.5t46 0.5q42 0 82.5 26t40.5 72q0 98 -137 98q-32 0 -43 -3q-20 -2 -43.5 -10.5t-39.5 -16t-20 -7.5q-7 0 -11 7l-39 67q-2 4 -2 8
q0 20 69.5 44.5t132.5 24.5q14 0 39 -2.5t37 -2.5q84 -11 136.5 -61.5t52.5 -127.5q0 -3 -0.5 -8.5t-0.5 -7.5q0 -16 -8 -44t-32.5 -62.5t-59.5 -46.5q100 -55 100 -153q0 -109 -74.5 -160.5t-189.5 -51.5q-73 0 -139 24t-66 45q0 2 2 8l36 67q5 7 12 7q4 0 23 -8.5t50 -18
t63 -10.5q1 0 9.5 -1t16.5 -1t20 2t21 6q32 7 57.5 30t25.5 54z" />
    <glyph glyph-name="four" unicode="4" horiz-adv-x="636" 
d="M467 0h-94q-6 0 -9.5 4t-4.5 13.5t-1 18t0.5 26t0.5 28.5q0 9 -0.5 30t-0.5 29h-181q-73 0 -107 4q-10 1 -10 14q0 1 10.5 30t26.5 78.5t27 90.5q18 41 48 137.5t43 131.5q2 7 6 18q13 40 22.5 46t54.5 5q31 -1 52 -1q15 0 15 -9v-2q-20 -62 -28 -92q-8 -16 -21 -63.5
t-24 -69.5q-12 -49 -27 -81q-18 -73 -38 -116h131v131q0 6 4.5 10.5t10.5 4.5h94q16 0 16 -54q0 -16 -0.5 -47.5t-0.5 -42.5h79q6 0 10.5 -4.5t4.5 -10.5v-93q0 -6 -4.5 -10.5t-10.5 -4.5h-79q0 -7 1.5 -50t-1.5 -71t-15 -28z" />
    <glyph glyph-name="five" unicode="5" horiz-adv-x="612" 
d="M493 587h-248v-156h8q153 0 221 -55.5t68 -164.5q0 -74 -41.5 -126.5t-99.5 -74.5t-123 -22q-62 0 -115.5 14.5t-78 30t-24.5 24.5q0 2 2 8l7 12q37 70 48 70q2 0 22 -11t54 -22.5t69 -11.5q72 0 110.5 29.5t38.5 83.5q0 53 -37.5 79.5t-83.5 26.5h-16q-12 0 -37.5 1
t-38.5 1h-60q-22 0 -22 31q0 2 0.5 7t0.5 7q0 10 -1 74.5t-1 103.5q0 8 -0.5 23t-0.5 23v96q0 6 4.5 10.5t10.5 4.5q-1 0 41.5 0.5t110 1t108.5 0.5q5 0 17 0.5t21.5 0.5t22 -0.5t22 -1.5t18.5 -2.5t13.5 -5t4.5 -8.5v-86q0 -6 -4.5 -10.5t-10.5 -4.5z" />
    <glyph glyph-name="six" unicode="6" horiz-adv-x="655" 
d="M386 721l57 -69q9 -13 -3 -20q-51 -28 -89 -60q-2 -1 -5 -3.5t-4 -3.5q-21 -19 -59 -61q-1 -2 -3 -4t-3 -4q-15 -20 -34 -51q22 8 55 13q2 0 5.5 0.5t5.5 0.5q1 1 4 1t5 1q7 0 10 1q38 -1 85 -8q1 -1 4 -1.5t4 -0.5q8 -2 24 -8q8 -3 10 -4q41 -18 80 -57q0 -1 5 -8
q32 -50 38 -69q2 -8 2 -11q6 -21 4 -45q0 -5 1 -8v-15q0 -37 -12 -73q-2 -6 -4 -10q-19 -50 -54 -83q-1 -1 -3.5 -3t-3.5 -3q-46 -39 -91 -51q-1 0 -5 -1t-5 -2q-39 -11 -82 -11q-51 0 -95 15q-2 0 -5.5 1.5t-5.5 2.5q-6 2 -10 3q-42 20 -72 53l-8 8q-25 31 -40 70
q0 2 -1.5 5.5t-2.5 5.5q-5 16 -11 46q0 1 -0.5 4t-0.5 5q-6 38 -1 91q0 7 1 10q1 22 6 45q1 1 1 4t1 5q13 58 23 77l3 6q1 1 1.5 2t0.5 2l18 39q2 4 6 10q23 41 51 74q1 2 3.5 4t3.5 4q32 41 66 65q1 1 4 3.5t5 4.5q41 34 98 70q13 9 22 -4zM208 227q0 -53 34 -85t85 -32
q22 0 47 10q2 1 5.5 2.5t4.5 2.5q24 16 39 33q1 2 3 4.5t3 3.5q25 36 18 87l-3 12q-13 52 -62 73q-2 0 -5 1t-5 2q-35 8 -68 5q-2 0 -4 -1t-4 -1q-1 0 -3.5 -1t-3.5 -1q-3 -1 -7 -3q-49 -17 -67 -61l-3 -9q-2 -12 -2 -19q0 -2 -1 -6t-1 -6v-11z" />
    <glyph glyph-name="seven" unicode="7" horiz-adv-x="540" 
d="M99 14q12 30 30 77q1 2 2.5 5.5t2.5 5.5q10 31 24 67t34.5 83t31.5 76q4 13 17.5 42t18.5 45q10 34 28.5 78t30 69t9.5 26l-253 1q-6 0 -10.5 4.5t-4.5 10.5v84q0 6 4.5 10.5t10.5 4.5h18t47 0.5t67 0.5q12 0 37.5 -0.5t37.5 -0.5q10 0 29.5 0.5t28.5 0.5q21 0 61 -0.5
t57 -0.5h16q26 0 26 -21q0 -9 -3 -15q-9 -26 -27.5 -70t-27.5 -67q-9 -21 -39.5 -91.5t-49 -115t-43 -106.5t-39.5 -106q-38 -111 -60 -111h-103q-10 0 -10 10q0 2 1 4z" />
    <glyph glyph-name="eight" unicode="8" horiz-adv-x="609" 
d="M304 -9q-105 -2 -174.5 55t-69.5 149q0 51 27.5 92t72.5 66q-46 17 -68.5 63t-22.5 101q0 89 68.5 143.5t166.5 54.5q99 2 172 -51t73 -144q0 -55 -24.5 -100.5t-75.5 -66.5q44 -25 72 -66.5t28 -93.5q0 -93 -71.5 -146.5t-173.5 -55.5zM418 504q0 93 -114 101
q-57 -4 -85 -27t-28 -74q0 -45 33 -71t80 -26q45 1 79.5 29t34.5 68zM193 185q0 -38 35.5 -62t75.5 -22q39 -3 75.5 21t36.5 67q0 44 -30 72t-82 28t-81.5 -28t-29.5 -76z" />
    <glyph glyph-name="nine" unicode="9" horiz-adv-x="635" 
d="M259 -11l-57 69q-3 4 -3 9q0 8 6 11q70 39 114 81t83 106q-14 -5 -43 -9t-42 -8q-59 0 -93 10q-31 8 -66 28.5t-53 48.5q-15 23 -22.5 36t-14.5 34.5t-7 43.5v11q0 5 -1 8q0 118 74 185t186 67q115 0 185 -72t70 -193q0 -112 -39 -196q-44 -93 -102.5 -154t-152.5 -120
q-5 -3 -9 -3q-8 0 -13 7zM437 483q0 53 -34 85t-85 32q-55 0 -88 -40.5t-33 -83.5q0 -58 36 -85.5t90 -27.5q23 0 33 5q81 27 81 115z" />
    <glyph glyph-name="colon" unicode=":" horiz-adv-x="318" 
d="M227 341q-9 -18 -15 -27.5t-20 -18.5t-33 -9q-14 0 -22 4q-19 4 -33 24.5t-14 42.5q0 26 19.5 47.5t49.5 21.5q27 0 48 -21t21 -48q0 -10 -1 -16zM227 45q-9 -18 -15 -27.5t-20 -18.5t-33 -9q-14 0 -22 4q-19 4 -33 24.5t-14 42.5q0 26 19.5 47.5t49.5 21.5q27 0 48 -21
t21 -48q0 -10 -1 -16z" />
    <glyph glyph-name="semicolon" unicode=";" horiz-adv-x="320" 
d="M230 61q0 -117 -97 -197l-33 30q22 17 35 46.5t14 49.5l-10 4q-19 4 -33 24.5t-14 42.5q0 26 19.5 47.5t49.5 21.5q28 0 48.5 -19.5t20.5 -49.5zM227 341q-9 -18 -15 -27.5t-20 -18.5t-33 -9q-14 0 -22 4q-19 4 -33 24.5t-14 42.5q0 26 19.5 47.5t49.5 21.5q27 0 48 -21
t21 -48q0 -10 -1 -16z" />
    <glyph glyph-name="less" unicode="&#x3c;" horiz-adv-x="544" 
d="M440 -5l-10 6q-11 6 -32.5 19.5t-41.5 25.5q-2 1 -16 10.5t-24 12.5q-104 68 -173 108q1 2 -2.5 4t-11 5.5t-15 7.5t-14.5 11t-10 15q1 6 5 11.5t8 8t11.5 7t9.5 5.5q16 16 55.5 41t49.5 33q41 32 53 36q54 40 93 62q38 22 46 30q17 11 19 11q8 0 8 -8v-105
q0 -15 -13 -23l-166 -107q0 -1 24 -14.5t62 -35.5t64 -38q8 -5 17.5 -10.5t11.5 -7.5t4 -6t2 -11l-1 -97q0 -9 -8 -9q-1 0 -5 2z" />
    <glyph glyph-name="equal" unicode="=" horiz-adv-x="595" 
d="M97 397l391 1q4 0 7 -1.5t5 -5t3 -6.5t1 -8.5v-9v-9.5v-9q0 -9 -0.5 -25t-0.5 -25q0 -16 -133 -16h-10l-133 1h-35q-84 -1 -95 6q-8 5 -6 32q1 17 1 27q0 41 5 48zM97 172l391 1q4 0 7 -1.5t5 -5t3 -6.5t1 -8.5v-9v-9.5v-9q0 -8 -0.5 -25t-0.5 -25q0 -16 -133 -16h-10
l-133 1h-35q-84 -1 -95 6q-8 5 -6 32q1 17 1 27q0 41 5 48z" />
    <glyph glyph-name="greater" unicode="&#x3e;" horiz-adv-x="544" 
d="M104 -5q-4 -2 -5 -2q-8 0 -8 9l-1 97q0 7 2 11t4 6t11.5 7.5t17.5 10.5q26 16 64 38t62 35.5t24 14.5l-166 107q-13 8 -13 23v105q0 8 8 8q2 0 19 -11q8 -8 46 -30q39 -22 93 -62q12 -4 53 -36q10 -8 49.5 -33t55.5 -41q2 -1 9.5 -5.5t11.5 -7t8 -8t5 -11.5
q-3 -8 -10 -15t-14.5 -11t-15 -7.5t-11 -5.5t-2.5 -4q-69 -40 -173 -108q-10 -3 -24 -12.5t-16 -10.5q-20 -12 -41.5 -25.5t-32.5 -19.5z" />
    <glyph glyph-name="question" unicode="?" horiz-adv-x="575" 
d="M505 529q0 -8 -0.5 -16t-0.5 -11q-9 -37 -20 -58l-6 -9q-12 -20 -28 -35.5t-42.5 -36t-42.5 -35.5q-41 -48 -41 -93v-20q0 -6 -4.5 -10.5t-10.5 -4.5h-83q-6 0 -10.5 4.5t-4.5 10.5v35q0 50 18 88.5t40.5 57t50 41.5t38.5 40l5 8q12 18 12 38q0 26 -20 49l-7 6
q-25 22 -66 22q-16 0 -31 -3l-12 -3q-21 -6 -47.5 -19.5t-44.5 -24t-22 -10.5q-7 0 -11 7l-41 63q-3 4 -3 9q0 8 6 14q82 70 178 82h10q10 1 32 1h10q44 -2 61 -8l36 -13q102 -50 102 -156v-10zM334 45q-14 -28 -29 -40.5t-48 -12.5q-24 0 -42 21.5t-18 47.5t19.5 46
t49.5 20q28 0 48.5 -18t20.5 -48q0 -10 -1 -16z" />
    <glyph glyph-name="at" unicode="@" horiz-adv-x="1144" 
d="M370 -161l-67 -88q-119 77 -180 189t-62 245q-2 238 140 392t378 154q152 0 267.5 -63t176.5 -171.5t61 -244.5q0 -60 -13.5 -117.5t-41.5 -109t-79 -83t-118 -31.5q-87 0 -122 73q-62 -53 -146 -53q-68 0 -119.5 25.5t-79 66.5t-40.5 85t-13 88q0 45 13 88.5t40.5 84.5
t79 66.5t119.5 25.5q91 0 149 -38.5t81 -105.5v-254q1 -20 14 -34t40 -14q52 0 85.5 66.5t33.5 165.5q0 164 -104.5 269.5t-286.5 105.5q-187 0 -294.5 -118.5t-105.5 -318.5q2 -97 49.5 -188.5t144.5 -157.5zM681 92v207q-40 60 -112 60q-42 0 -72 -19t-43.5 -48.5
t-18.5 -53t-5 -43.5t5.5 -44t18.5 -52.5t43 -47.5t72 -19q73 0 112 60z" />
    <glyph glyph-name="A" unicode="A" horiz-adv-x="777" 
d="M594 9q0 8 -7 23.5t-13 27.5l-6 11l-29 60h-303l-28 -61q-4 -5 -11.5 -25t-17 -33t-24.5 -13q-3 0 -15 1h-12l-36 -1l-4 -1h-10.5h-12.5q-15 0 -15 11q0 7 10 24.5t25.5 47.5t25.5 61l32 66l32 65l30 70l32 68l31 66l17 32l14 34l17 33l11 26l27 58q25 52 35 52
q6 0 14 -9.5t16 -25.5t14.5 -30.5t13.5 -31.5t10 -23q54 -114 51 -116l32 -66l32 -68l14 -36q8 -16 21.5 -45.5t19.5 -40.5q1 -3 6.5 -14t10.5 -22l5 -10l34 -65l30 -67q-2 1 0 -2q14 -23 14 -30q0 -4 -4 -6.5t-13 -3.5t-16 -1t-19.5 0.5t-17.5 0.5h-15q-4 0 -12 -1t-12 -1
q-17 0 -24 11zM387 470l-15 -33l-15 -32l-29 -66l-30 -67l-13 -32h206l-16 32l-28 67l-30 66z" />
    <glyph glyph-name="B" unicode="B" horiz-adv-x="681" 
d="M91 10q0 2 1 6q0 11 -1 49t0 92l2 177v283q0 4 -1 29.5t-1 31.5q0 14 5 19t18 5q3 0 16.5 -0.5t17.5 -0.5q38 0 110.5 1t126.5 1q91 0 145 -51t54 -143q0 -55 -22.5 -88t-73.5 -63q56 -12 89 -56.5t34 -102.5l-4 -37q-9 -46 -32.5 -77.5t-58.5 -48.5t-71 -25t-82 -11h-18
t-34.5 0.5t-66.5 0.5q-20 0 -44 -0.5t-30 -0.5h-32h-6q-5 -1 -10 -1q-26 0 -31 11zM366 299l-74 1h-75v-185h140q109 9 109 93q0 35 -29.5 62.5t-70.5 28.5zM378 588h-79q-69 0 -74 1h-2q-4 0 -6 -2v-157q3 -10 8 -10q17 0 55.5 -0.5t58.5 -0.5q55 0 86 21t31 60
q0 38 -21 63t-57 25z" />
    <glyph glyph-name="C" unicode="C" horiz-adv-x="805" 
d="M440 111q36 3 67.5 13.5t49 20.5t44.5 29q3 3 12 11.5t14.5 14.5t13 11t11.5 5l10 -3l6 -4q5 -4 13 -9.5t17.5 -13t17.5 -14.5t13.5 -15t5.5 -13q0 -13 -24 -37q-118 -118 -271 -118q-21 1 -31.5 2t-56 11t-79.5 25.5t-77 50t-72 81.5q-30 58 -39.5 96t-14.5 95
q0 47 16 109q53 144 162 205q90 45 192 50q79 -1 119 -17t112 -66q10 -6 15 -10q49 -42 49 -63q0 -7 -5 -12q-60 -60 -77 -60q-7 0 -11 5q-78 98 -202 100q-58 -5 -102.5 -24t-69 -44.5t-39.5 -58t-19.5 -59t-4.5 -53.5q-9 -97 67.5 -170.5t167.5 -70.5z" />
    <glyph glyph-name="D" unicode="D" horiz-adv-x="755" 
d="M219 705q16 0 43.5 0.5t39.5 0.5q65 0 123 -13q91 -12 170 -83q52 -68 71 -127t19 -157q0 -102 -56.5 -189t-152.5 -115q-20 -7 -45.5 -12t-41 -6.5t-48.5 -3t-41 -2.5q-23 0 -53.5 1t-54.5 1h-19q-5 0 -16.5 -0.5t-17.5 -0.5q-35 0 -41.5 10t-6.5 55q0 13 1 15
q0 7 -0.5 21t-0.5 21q0 18 1 53.5t1 53.5q0 36 -3 70v77q0 17 1 36.5t1 28.5q0 97 -1 156t-1 88q0 11 5 14.5t20 3.5h3q6 2 22 2q8 0 22.5 -0.5t18.5 -0.5q7 0 19 1t19 1zM216 116h6h8q8 -1 17.5 -1.5t11.5 -0.5h8q7 0 23 0.5t24 0.5q14 0 21 -1q215 12 217 237
q-7 90 -31 142q-21 30 -43 49t-48.5 28t-43.5 12t-51 6h-76q-13 0 -22 -0.5t-21 -0.5q0 -23 1 -68t1 -67q0 -42 -3 -82q2 -30 2 -44v-29q0 -14 0.5 -40.5t0.5 -39.5q0 -44 -2 -65v-36z" />
    <glyph glyph-name="E" unicode="E" horiz-adv-x="642" 
d="M93 15q0 23 -0.5 39.5t-0.5 51.5q0 10 0.5 33t0.5 37v211q0 27 -1.5 86.5t-1 105.5t4.5 89q0 4 -0.5 10t-0.5 10q0 15 14 15q21 0 63 1t63 1q34 -3 90 -3q18 0 53 1.5t52 1.5q59 0 106 -4q3 0 9.5 0.5t9.5 0.5q17 0 17 -37q0 -7 -0.5 -19t-0.5 -19q0 -4 0.5 -12t0.5 -12
q0 -15 -15 -15q-119 0 -134 1q-26 0 -81.5 1t-86.5 1q-6 0 -19 -0.5t-19 -0.5q0 -6 0.5 -20t0.5 -20q0 -18 -0.5 -62t-0.5 -77q22 4 80.5 1.5t83.5 -0.5q4 0 15 0.5t18.5 0.5t17 -1t14.5 -4.5t6 -10.5q0 -5 -0.5 -18t-0.5 -20v-10q0 -2 0.5 -12.5t0 -16t-1.5 -13.5t-4 -11.5
t-8 -3.5q-4 0 -12 0.5t-11 0.5q-25 -2 -162 -2l-8 1h-15.5h-12.5q2 -14 0.5 -86.5t-1.5 -84.5q0 -8 12 -8q9 0 115.5 2.5t116.5 -1.5l63 1q46 -4 47 -17q0 -11 -0.5 -30.5t-0.5 -29.5q0 -4 0.5 -11.5t0.5 -11.5q0 -15 -14 -15q-5 0 -20 1t-33 1q-49 0 -73 -3q-11 2 -33 0.5
t-33 0.5h-162q-33 0 -35 -2q-2 0 -14 -0.5t-20 -0.5t-18 1.5t-15.5 5.5t-5.5 11z" />
    <glyph glyph-name="F" unicode="F" horiz-adv-x="642" 
d="M94 14v3q-3 6 -3 69q4 32 5 64t0 84.5t-1 63.5q0 16 -1.5 85t-0.5 128q0 17 1 52t1 54q0 9 -1 24t-1 40q0 9 8.5 15.5t18.5 6.5h6q6 0 8 1q206 0 243 -3h142h31q5 0 12.5 -5t7.5 -10v-11l1 -44q-5 -42 -22 -43q-21 0 -65 -0.5t-71 -0.5q-4 0 -98 2.5t-98 -1.5
q0 -11 -1 -33.5t-1 -33.5q0 -6 0.5 -17.5t0.5 -17.5q0 -12 -0.5 -20t-0.5 -19l2 -33h17.5t17.5 -1q8 0 56.5 1.5t92.5 0.5q12 0 22 -1q2 0 5.5 0.5t4.5 0.5q18 -10 18 -28q0 -9 0.5 -32t0.5 -37q0 -22 -18 -27q-33 0 -69 -3l-36 2h-113q0 -12 0.5 -45t0.5 -45q0 -19 -1 -67
t-1 -81q0 -2 0.5 -12.5t0 -14.5t-3.5 -11.5t-10 -10.5t-19 -3q-3 0 -8 0.5t-8 0.5q-4 0 -12 -0.5t-12 -0.5h-4q-2 0 -10 -0.5t-12 -0.5q-13 0 -23 15z" />
    <glyph glyph-name="G" unicode="G" horiz-adv-x="806" 
d="M579 692q34 -13 88 -54t54 -69q0 -7 -5 -12l-3 -3q-3 -3 -7 -7.5t-10 -10.5l-11.5 -11.5t-12 -11t-12.5 -10t-11 -7t-8 -2.5q-7 0 -11 5q-34 41 -87 66.5t-108 26.5q-58 -5 -102 -24.5t-67.5 -44.5t-38 -58.5t-18.5 -59.5t-4 -53q4 -56 22 -110q48 -75 95.5 -99
t117.5 -29q82 6 160 60l14 14v68q0 3 -0.5 11t-0.5 15q-7 0 -19 -0.5t-19 -0.5q-20 0 -62.5 -0.5t-62.5 -0.5q-30 0 -38 7t-8 30q0 85 18 85q9 0 17 1t17 1q80 0 103 -2l35 1q82 0 105 -2q3 0 10 0.5t10 0.5q13 0 13 -14v-28l3 -37v-95v-12q0 -4 -0.5 -26.5t-0.5 -26.5
q6 -27 -23 -56q-118 -118 -271 -118q-79 2 -127 18q-118 39 -189 152q-30 58 -39.5 96t-14.5 95q0 48 16 110q53 144 162 205q79 40 192 50q95 -8 139 -23z" />
    <glyph glyph-name="H" unicode="H" horiz-adv-x="790" 
d="M573 14q0 35 2 53l-2 19q0 38 2 49l-2 34q0 17 0.5 61.5t0.5 61.5l-37 -2q-37 0 -75 3q-53 -3 -171 -3q-13 0 -37 0.5t-36 0.5q0 -11 -1 -44.5t-1 -44.5l2 -33q0 -93 1 -102q0 -2 0.5 -13.5t0 -18.5t-1.5 -16.5t-5 -14.5t-10 -5q-35 0 -69 3q-4 0 -12.5 -0.5t-12.5 -0.5
q-5 0 -8 2.5t-5 7.5t-3.5 9.5t-1.5 12.5v13v13v11q1 12 2 35.5t2 35.5q0 28 -1.5 86.5t-1.5 88.5q0 6 0.5 17.5t0.5 17.5q0 17 -0.5 53t-0.5 53l2 35q0 12 -0.5 35t-0.5 35q0 6 0.5 18t0.5 18l-2 35l2 35q0 4 -0.5 10t-0.5 10q0 3 1 5.5t2.5 4t3.5 2.5t5 2t5 1.5t6 0.5h6
h6.5h5.5q3 0 16 0.5t22.5 0.5t20.5 -1t17.5 -5t6.5 -11q0 -9 -0.5 -27t-0.5 -27q0 -18 1 -52t1 -52q0 -12 -1 -24t-1 -24l2 -34l-2 -36q76 0 113 3q25 0 67 -1.5t66 -1.5q6 0 12 0.5t14 1.5t12 1l37 -3l36 2q0 12 0.5 34t0.5 34q0 19 -1 57.5t-1 69t3 59.5q0 4 -0.5 10
t-0.5 10q0 6 4.5 10.5t10.5 4.5q22 0 68 -2q4 0 12.5 0.5t12.5 0.5q6 0 10.5 -4.5t4.5 -10.5q0 -15 -0.5 -45t-0.5 -45q3 -34 3 -140q0 -11 -1 -35t-1 -35l2 -36q0 -23 -1 -69.5t-1 -70.5l2 -20q0 -26 -3 -50q3 -42 3 -126q-1 -7 -9 -10.5t-22.5 -5t-26 -1.5t-29.5 0.5
t-24 0.5t-10.5 4.5t-4.5 10.5z" />
    <glyph glyph-name="I" unicode="I" horiz-adv-x="310" 
d="M217 257l-1 -55l2 -33q0 -93 1 -102q0 -2 0.5 -13.5t0 -18.5t-1.5 -16.5t-5 -14.5t-10 -5q-35 0 -69 3q-4 0 -12.5 -0.5t-12.5 -0.5q-5 0 -8 2.5t-5 7.5t-3.5 9.5t-1.5 12.5v13v13v11q1 12 2 35.5t2 35.5q0 28 -1.5 86.5t-1.5 88.5q0 6 0.5 17.5t0.5 17.5q0 17 -0.5 53
t-0.5 53l2 35q0 12 -0.5 35t-0.5 35q0 6 0.5 18t0.5 18l-2 35l2 35q0 4 -0.5 10t-0.5 10q0 3 1 5.5t2.5 4t3.5 2.5t5 2t5 1.5t6 0.5h6h6.5h5.5q3 0 16 0.5t22.5 0.5t20.5 -1t17.5 -5t6.5 -11q0 -9 -0.5 -27t-0.5 -27q0 -18 1 -52t1 -52q0 -12 -1 -24t-1 -24l2 -34
q-1 -5 -1 -191z" />
    <glyph glyph-name="J" unicode="J" horiz-adv-x="601" 
d="M367 593q-23 2 -69 2l-6 -1h-13l-23 -1q-16 0 -38 0.5t-38 0.5q-15 0 -15 15q0 4 0.5 12t0.5 12q0 7 -0.5 19t-0.5 19q0 37 17 37q3 0 9.5 -0.5t9.5 -0.5h150t123 1q3 0 9.5 0.5t9.5 0.5q17 0 17 -37q0 -6 -0.5 -19t-0.5 -19q0 -4 0.5 -12t0.5 -12q0 -52 -0.5 -162.5
t-0.5 -171.5q0 -121 -32 -179.5t-97 -86.5q-13 -7 -29.5 -11.5t-26.5 -5.5t-34.5 -2.5t-32.5 -2.5q-53 3 -113 24q-11 4 -29 11.5t-41.5 22t-23.5 26.5q0 9 27 50t34 41q5 0 9 -3q67 -48 135 -53q31 3 43.5 5t30 13t30.5 33q16 26 20 84q0 47 0.5 151.5t0.5 167.5v33
q-6 -1 -13 -1z" />
    <glyph glyph-name="K" unicode="K" horiz-adv-x="718" 
d="M91 17q0 3 -0.5 9.5t-0.5 9.5q3 34 3 70v528q0 9 -1 27.5t-1 28.5q0 14 14 14q11 0 34 -1t35 -1q4 0 12.5 0.5t12.5 0.5q7 0 10.5 -4t4.5 -7.5t2 -12t1 -10.5l-3 -35q0 -32 -0.5 -100t-0.5 -107v-16l54 1l65 85q21 24 61 73t64 77q1 1 7.5 11.5t10.5 16t11 13t13.5 11.5
t13.5 4q12 0 32.5 0.5t30.5 0.5q67 0 67 -8q0 -2 -2 -4q-5 -6 -43 -56t-59 -74q-19 -27 -77 -93t-89 -112l28 -28q87 -110 131 -163q48 -58 75 -88q0 -1 18 -18.5t30.5 -32.5t12.5 -20q0 -4 -4.5 -5.5t-14.5 -1.5l-10 -1q-7 0 -20 0.5t-19 0.5h-65q-9 0 -20 10.5t-23.5 27
t-19.5 22.5l-200 232q-2 0 -18 -0.5t-39 -0.5v-54q1 -45 1 -92.5v-76.5v-27.5t-2 -18.5t-2.5 -12t-6 -6t-6.5 -2h-11.5h-13.5q-4 0 -16.5 -1t-22 -1t-20 1t-17 5t-7.5 11z" />
    <glyph glyph-name="L" unicode="L" horiz-adv-x="586" 
d="M214 270q0 -8 0.5 -24.5t0.5 -25.5q0 -6 -0.5 -17.5t-0.5 -17.5q0 -11 1 -33.5t1 -33.5q30 -3 160 -3q26 0 73 -0.5t67 -0.5q26 0 18 -77l-1 -10v-11q0 -5 -7.5 -10t-12.5 -5h-31l-35 -3q-36 3 -107 3q-12 -5 -104.5 -2t-102.5 3q-2 1 -8 1h-6q-10 0 -18.5 6.5t-8.5 15.5
q0 25 1 40t1 24q0 13 -1.5 48.5t-0.5 57.5l-2 36q0 35 3 70q-1 36 0 70.5t1 36.5q0 30 -1 129.5t0 151.5v3q10 15 23 15q4 0 12 -0.5t10 -0.5h4q4 0 12 -0.5t12 -0.5q2 0 8 0.5t8 0.5q12 0 19 -3t10 -10.5t3.5 -11.5t0 -14.5t-0.5 -12.5q0 -49 2 -74q0 -5 -0.5 -27.5
t-1 -94.5t-0.5 -188z" />
    <glyph glyph-name="M" unicode="M" horiz-adv-x="860" 
d="M757 706q5 0 7.5 -7t3.5 -21t1 -25.5t-0.5 -29t-0.5 -23.5q-2 -230 -1 -344q0 -51 -1 -77q-1 -7 0.5 -20t1.5 -18q0 -104 -4 -122.5t-25 -19.5q-8 0 -13 -1l-41 3q-5 0 -13 -0.5t-13 -0.5q-14 0 -14 14v63.5v46v26.5q0 36 -0.5 70t-0.5 42q0 17 -0.5 54t-0.5 58
q0 12 2 38q-29 -29 -82 -91t-81 -90q-2 -3 -10.5 -14t-13.5 -17.5t-13 -13t-14 -6.5q-10 0 -28 17t-42.5 46t-33.5 38q-15 19 -115 132q0 -13 1 -38t1 -38l-2 -37q2 -27 2 -57.5t-1 -69.5t-1 -61q0 -95 -5 -105q-4 -7 -25 -8q-5 0 -9 -1q-7 0 -20.5 1t-24.5 1.5t-20 0.5
q-10 0 -13.5 17t-3.5 49t-1 39l2 35q0 6 -0.5 17.5t-0.5 17.5q0 18 1 53t1 53q0 22 -1 64t-1 78t2 70q-2 28 -2 200q0 11 11 11q7 0 12 -7q76 -92 156 -175q54 -71 97 -113q11 -14 32.5 -39t29.5 -35q118 131 205 239q8 10 31 36t36 41q2 2 12 15.5t21 24.5t23 14z" />
    <glyph glyph-name="N" unicode="N" horiz-adv-x="781" 
d="M92 16q0 15 -1 45t-1 45q0 6 0.5 17.5t0.5 17.5t-0.5 18t-0.5 18q0 79 1 225t1 233q0 5 0.5 17t0.5 17t-0.5 13t-0.5 12q0 13 11 13q5 0 10 -3q73 -75 123 -119q113 -102 329 -316q2 14 2 21q0 26 -1.5 79t-1.5 80l2 36q0 12 -0.5 36.5t-0.5 36.5l3 36q0 6 -0.5 18
t-0.5 18t0.5 18.5t0.5 18.5l-2 22q0 6 2.5 9.5t7.5 4.5t9 1.5t12 0t10 -0.5q4 0 16.5 0.5t22.5 0.5t21 -1t17.5 -4.5t6.5 -10.5q0 -9 -0.5 -28t-0.5 -29q0 -12 0.5 -35.5t0.5 -35.5q0 -64 -0.5 -206.5t-0.5 -207.5q0 -6 -0.5 -17.5t-0.5 -17.5q0 -9 1 -27.5t1 -28.5
q0 -8 -0.5 -23t-0.5 -22v-8q0 -9 -9 -9q-10 0 -16 7q-105 105 -172 164q-46 51 -100.5 101.5t-59.5 55.5q-19 19 -58.5 56t-58.5 56l2 -35q-1 -12 -1 -145v-182q-1 -16 -1.5 -30.5t-1 -21t0 -12t-2.5 -7t-4 -2.5t-9 -1t-14 -1l-52 5q-5 0 -13 -0.5t-13 -0.5q-15 0 -15 15z
" />
    <glyph glyph-name="O" unicode="O" 
d="M799 351q0 -43 -5 -74q-3 -20 -9.5 -39.5t-12 -32t-15 -32t-14.5 -30.5q-31 -44 -64.5 -73.5t-73 -45.5t-65 -22.5t-69.5 -14.5q-6 0 -18 0.5t-18 0.5q-64 -5 -141 24q-53 19 -92.5 48.5t-63.5 62t-39 73.5t-21 77t-8 79q5 279 254 349q30 8 111 15q6 0 18 -0.5t18 -0.5
q95 -3 172.5 -57.5t118 -136.5t37.5 -170zM435 108q70 0 118.5 24t71.5 63.5t32 77t9 78.5q-8 97 -42 145q-22 31 -46 51t-54.5 29t-43 11t-45.5 5q-34 -2 -63 -8.5t-48.5 -14t-36 -21t-25.5 -23t-18 -26.5t-12 -25.5t-9 -26.5t-7 -22q-30 -130 30 -216q71 -101 189 -101z
" />
    <glyph glyph-name="P" unicode="P" horiz-adv-x="657" 
d="M346 221q-43 0 -67 -2q-22 2 -65 2l-2 -37l3 -37q0 -13 -1 -37t-1 -36q0 -10 1 -30t1 -30q0 -4 -1.5 -7t-4.5 -4.5t-5.5 -2.5t-7.5 -1.5t-8 -0.5h-8.5h-6.5q-12 1 -25 2t-19.5 0.5t-14 1t-10.5 1t-6.5 2.5t-4 3.5t-1.5 6.5t-1 8.5v11.5l2 35q0 6 -0.5 17.5t-0.5 17.5
l2 36q0 24 -4 70q3 34 3 105q0 24 -1.5 71t-1.5 70l3 35l-2 20q0 24 3 50q0 18 -1 53t-1 53q0 34 16 34q3 0 9.5 -0.5t9.5 -0.5q41 0 60 2q7 0 21 -0.5t22 -0.5h127q39 0 64 -10q42 -12 73 -33.5t47.5 -42t27 -52.5t13 -50.5t5.5 -50.5q0 -46 -8 -69l-1 -6q-2 -6 -3.5 -12
t-4.5 -15t-7 -18.5t-9.5 -18.5t-13 -18t-16.5 -16q-42 -33 -79 -46t-99 -23zM459 463q-1 63 -30.5 91t-83.5 31q-60 3 -131 3q0 -6 0.5 -18t0.5 -18l-3 -36q-1 -14 1 -38.5t2 -33.5q0 -12 -1 -36t-1 -36l1 -36q12 0 37 -1t38 -1q83 0 120 24.5t50 104.5z" />
    <glyph glyph-name="Q" unicode="Q" 
d="M531 -66l-48 56q-19 -2 -48 -2q-64 -5 -141 24q-53 19 -92.5 48.5t-63.5 62t-39 73.5t-21 77t-8 79q3 162 97 255t268 109q6 0 18 -0.5t18 -0.5q95 -3 172.5 -57.5t118 -136.5t37.5 -170q0 -43 -5 -74q-3 -20 -9.5 -39.5t-12 -32t-15 -32t-14.5 -30.5q-57 -81 -134 -118
l21 -21l21 -21t23 -25q0 -1 18 -18.5t30.5 -32.5t12.5 -20q0 -4 -4.5 -5.5t-14.5 -1.5l-10 -1q-6 0 -19 0.5t-20 0.5h-73q-9 0 -19.5 9t-24 24t-19.5 21zM435 108q47 0 84.5 11t61 32t40 43t25.5 53.5t13 53t7 50.5q-8 97 -42 145q-22 31 -46.5 51.5t-53.5 29.5t-43.5 11.5
t-45.5 5.5q-35 -3 -64 -10.5t-49 -15.5t-36.5 -21t-25.5 -23t-17.5 -26.5t-11.5 -25t-8 -25.5t-7 -22q-30 -130 30 -216q71 -101 189 -101z" />
    <glyph glyph-name="R" unicode="R" horiz-adv-x="685" 
d="M439 53q-4 4 -62.5 68.5t-88.5 97.5h-9q-22 2 -65 2l-2 -37l3 -37q0 -13 -1 -37t-1 -36q0 -10 1 -30t1 -30q0 -4 -1.5 -7t-4.5 -4.5t-5.5 -2.5t-7.5 -1.5t-8 -0.5h-8.5h-6.5q-12 1 -25 2t-19.5 0.5t-14 1t-10.5 1t-6.5 2.5t-4 3.5t-1.5 6.5t-1 8.5v11.5l2 35
q0 6 -0.5 17.5t-0.5 17.5l2 36q0 24 -4 70q3 34 3 105q0 24 -1.5 71t-1.5 70l3 35l-2 20q0 24 3 50q0 18 -1 53t-1 53q0 34 16 34q3 0 9.5 -0.5t9.5 -0.5q41 0 60 2q7 0 21 -0.5t22 -0.5q36 0 36 3q5 1 37 -1t45 -2h9q39 0 64 -10q42 -12 73 -33.5t47.5 -42t27 -52.5
t13 -50.5t5.5 -50.5q0 -46 -8 -69l-1 -6q-2 -6 -3.5 -12t-4.5 -15t-7 -18.5t-9.5 -18.5t-13 -18t-16.5 -16q-49 -38 -95 -52q23 -26 74 -80t75 -81q1 -1 8.5 -9.5t15 -16.5t15.5 -17.5t13 -17t5 -10.5q0 -4 -4.5 -5.5t-14.5 -2.5h-10q-6 0 -19 0.5t-20 0.5h-65q-9 0 -19.5 9
t-24 24.5t-19.5 20.5zM328 590q-13 -2 -42 -2l-34 2l-38 -2q0 -6 0.5 -18t0.5 -18l-3 -36q-1 -14 1 -38.5t2 -33.5q0 -12 -1 -36t-1 -36q0 -6 0.5 -18t0.5 -18q12 0 37 -1t38 -1q92 0 134 33q13 16 20.5 34t9.5 27t6 35q-5 25 -11.5 44.5t-16.5 32.5t-17 21t-22 13.5
t-20.5 7.5t-23 4.5t-20.5 3.5z" />
    <glyph glyph-name="S" unicode="S" horiz-adv-x="639" 
d="M568 175q-1 -6 -2.5 -17.5t-2.5 -19t-4 -17t-7 -16.5q-16 -36 -48 -60.5t-65.5 -35.5t-83.5 -20q-75 0 -123.5 10.5t-97.5 35.5q1 2 -13 6.5t-30.5 13.5t-20.5 22q0 1 1 3.5t1 3.5q4 7 12 19.5t13.5 22t12 19.5t11.5 15t8 5q6 0 17 -7.5t17 -8.5l4 -2q89 -39 144 -39
q131 0 131 86q0 13 -3.5 24.5t-13 21.5t-16 16t-22.5 14.5t-22 11t-25.5 10.5t-22.5 9q-9 0 -57 23t-68 34q-1 1 -10 8.5t-12 10.5t-12 11.5t-13 14.5t-11.5 16t-11.5 20t-8 22t-6 26.5t-2 29.5q0 21 6 44l3 11q3 11 6 19.5t8.5 20.5t13.5 22.5t18 18.5q49 39 90 50t92 11
q45 -3 114 -19q1 0 13.5 -4t26 -8.5t28 -10.5t24 -14t9.5 -15q0 -2 -2 -6l-19 -48q-16 -35 -29 -35q-7 0 -23 8.5t-24 8.5q-214 56 -228 -43q0 -32 7.5 -49.5t29 -29t47 -20t72 -30t93.5 -50.5l4 -2q3 -2 10.5 -8t15.5 -12.5t16.5 -16.5t13.5 -20q19 -37 27 -85
q0 -20 -1 -30z" />
    <glyph glyph-name="T" unicode="T" horiz-adv-x="676" 
d="M61 603q0 4 -0.5 12t-0.5 12q5 67 9 72q3 3 24 5q3 0 6 1q32 -4 66 -4.5t84.5 0.5t69.5 1q13 0 37 0.5t37 0.5q22 0 72 0.5t80 0.5q8 0 26 -0.5t28 -0.5q15 0 15 -14q0 -4 -0.5 -12t-0.5 -12q0 -7 1 -19t1 -19q0 -38 -17 -38q-167 0 -197 1l-1 -75q0 -6 0.5 -18.5
t0.5 -18.5t-0.5 -18t-0.5 -18l2 -37q0 -25 -0.5 -74t-0.5 -73q0 -38 1 -118.5t1 -125.5q0 -6 -8 -10t-22.5 -5t-26.5 -1t-30 0.5t-24 0.5q-7 1 -10.5 9t-5 22.5t-1.5 26t0.5 29.5t0.5 24l2 37q1 57 -0.5 158.5t-1.5 136.5q0 7 2 72t-1 75q-18 0 -54 -0.5t-54 -0.5
q-15 0 -45.5 0.5t-47.5 0.5q-15 0 -15 14z" />
    <glyph glyph-name="U" unicode="U" horiz-adv-x="774" 
d="M90 291l2 37q0 12 -1 37t-1 38q0 12 2 38q0 6 -0.5 18.5t-0.5 18.5q0 15 1 47t1 48q0 3 -0.5 21.5t-0.5 34.5t0.5 34t3.5 29t8 11t14.5 -0.5t14.5 -0.5q11 0 34 1t35 1q14 0 14 -15q0 -17 -1 -49t-1 -49q0 -9 1.5 -31t1.5 -54v-65q0 -41 -1.5 -92t-1 -68t5.5 -42t18 -53
q1 -1 14 -19t25 -29.5t42 -23t69 -11.5q27 0 48 5l15 4q65 24 93 83q14 32 14 69l2 27q0 6 -0.5 18.5t-0.5 18.5t0.5 19t0.5 20q-3 36 -3 74q0 7 1 19.5t1 18.5q0 35 -1 105t-1 105q0 15 14 15q79 0 94 -2q6 0 9.5 -5t5 -14t2 -17.5t1 -20.5t0.5 -17q-3 -29 0 -75
q0 -6 -0.5 -18.5t-0.5 -18.5q0 -13 2 -75q0 -7 -1 -19.5t-1 -18.5q0 -13 0.5 -38t0.5 -37q0 -97 -10 -135q0 -3 -2 -8.5t-2 -8.5q-13 -38 -31 -67.5t-41.5 -48.5t-42 -29.5t-44.5 -22.5q-28 -16 -124 -23q-34 3 -73 9l-7 2q-7 1 -15 3t-20.5 6t-25 9t-26.5 13t-26.5 17.5
t-24.5 22.5t-21 28l-6 9q-27 36 -27 53q-16 42 -24 134z" />
    <glyph glyph-name="V" unicode="V" horiz-adv-x="783" 
d="M183 688q7 -15 31.5 -68t39.5 -81q8 -18 60 -130t78 -170q12 26 16.5 39t4.5 15.5t7 17t26 47.5q4 26 71 148q10 26 23.5 55.5t31.5 67t29 61.5q3 6 11 9.5t21 4.5t23.5 1t26.5 -0.5t22 -0.5h7h7.5t6.5 -0.5t5.5 -3t1.5 -5.5t-1 -4q-52 -122 -119 -249q-20 -41 -81 -177
t-100 -209q-1 -2 -6 -14.5t-9.5 -22t-11.5 -18t-13 -8.5q-4 0 -10 6q-34 71 -39 80q-20 29 -51 103t-46 101q-45 83 -154 323q-3 6 -14.5 26t-19.5 36.5t-8 25.5q0 10 27 10l33 -2q3 0 18 1t23 0.5t18.5 -4t13.5 -11.5z" />
    <glyph glyph-name="W" unicode="W" horiz-adv-x="1018" 
d="M871 703q3 0 8.5 -0.5t8.5 -0.5q32 3 63 3q27 0 27 -11v-2l-1 -2q-10 -19 -24 -59t-22 -57q-4 -10 -34.5 -90t-70 -181.5t-65.5 -159.5q-10 -27 -22 -52q-3 -6 -12.5 -33.5t-20.5 -46t-25 -24.5q-5 2 -9 5.5t-7.5 10.5t-6 13.5t-7 19.5t-8.5 22q-16 41 -60.5 166.5
t-73.5 191.5q-17 -52 -62.5 -164t-63.5 -169q-33 -100 -56 -100q-6 0 -10.5 6t-7.5 12.5t-6 17t-4 12.5q-13 33 -30 76t-23 59q-25 71 -173 440q-2 6 -11.5 26.5t-15.5 37t-6 24.5q0 3 2 5t6 3t8.5 2t11 1h10.5h10.5h9.5q2 0 13.5 0.5t17.5 0t15.5 -1.5t15 -4.5t7.5 -9.5
q17 -51 49 -114q91 -255 114 -313q31 97 132 343q2 5 11.5 32t18.5 46.5t15 19.5q5 0 8.5 -3.5t5 -7.5t3.5 -11t3 -9q60 -121 159 -403q77 226 130 337q0 3 7 25.5t21 46.5t27 24z" />
    <glyph glyph-name="X" unicode="X" horiz-adv-x="708" 
d="M531 704q125 0 125 -9q0 -5 -12 -20q-10 -15 -29.5 -44.5t-29.5 -44.5q-49 -81 -157 -235q2 -3 67.5 -99.5t111.5 -162.5q2 -2 16.5 -22t24.5 -36.5t10 -23.5t-7 -7q-24 2 -61 -1q-4 0 -19.5 -1t-26 -1t-22 3.5t-16.5 10.5q-15 23 -70 103.5t-82 125.5
q-14 -20 -27.5 -40.5t-29 -44.5t-25.5 -40q-5 -5 -14.5 -21.5t-15.5 -22.5l-3 -5l-7 -14t-10 -17t-12.5 -17t-14 -13t-13.5 -5q-52 0 -63 -1q-3 0 -14 -0.5t-18.5 -0.5t-16.5 1t-14 3.5t-5 6.5q0 8 8.5 22t25.5 35t18 22q19 25 80.5 123t95.5 140q-15 20 -40 59t-39 58
q-18 23 -49.5 73t-48.5 73q-3 4 -17 22.5t-24.5 34.5t-10.5 24q0 5 19 7t49 2t37 1l21 -2q3 0 6.5 -1.5t7 -4.5t6.5 -5.5t7 -7.5t6.5 -8t6.5 -8.5t6 -8t6 -9t5 -7.5l41 -60q13 -19 39 -60t41 -61q62 89 115 169q7 7 17 26.5t20.5 33t24.5 13.5z" />
    <glyph glyph-name="Y" unicode="Y" horiz-adv-x="712" 
d="M427 528q46 79 104 164q8 12 17 12h23q60 0 71 -1q30 2 30 -6q0 -14 -49 -83q-36 -53 -75.5 -118t-82.5 -140t-44 -77q-2 -30 -2.5 -63.5t0.5 -78t1 -67.5q0 -3 0.5 -15t0 -19t-1.5 -16t-5 -14t-10 -6q-32 0 -48 -1q-16 1 -53 1q-11 3 -11 70q0 190 -1 209q-1 2 -44 77
t-82.5 140t-75.5 118q-49 74 -49 83q0 8 30 6q11 1 94 1q9 0 23 -19q5 -7 26 -40.5t43 -66.5q16 -24 33 -52t36.5 -62t30.5 -53q4 7 30.5 50.5t40.5 66.5z" />
    <glyph glyph-name="Z" unicode="Z" horiz-adv-x="678" 
d="M81 703q3 0 10 0.5t10 0.5q70 0 217.5 -1.5t230.5 -1.5q3 0 21 1l17 2q26 0 26 -15q0 -8 -5 -13q-9 -17 -31.5 -53t-32.5 -57q-32 -53 -94.5 -152.5t-92.5 -148.5l-2 -3l-4.5 -9t-4.5 -7q-5 -8 -80 -132q6 0 17 -0.5t17 -0.5h197q55 0 84 3q3 0 10 -0.5t11 -0.5
q6 0 9.5 -5t4.5 -15.5t1.5 -17.5t0 -21.5t-0.5 -17.5q0 -4 -0.5 -11.5t-0.5 -11.5q0 -6 -4.5 -10t-14 -5.5t-15.5 -2t-20 0t-16 0.5q2 1 -82 1h-191.5t-145.5 1h-21q-5 0 -13.5 -1t-12.5 -1q-20 0 -20 14q0 13 12 34.5t32.5 52t25.5 38.5q35 50 132 211q33 47 149 240h-275
h-23.5t-18 1t-13 1.5t-8.5 2.5t-5.5 3t-2.5 5.5t-0.5 6.5t0.5 8.5v10.5v11v13.5v14t1 14.5t3 11.5t5 8.5t7 3z" />
    <glyph glyph-name="bracketleft" unicode="[" horiz-adv-x="323" 
d="M298 -156h-10t-23 -0.5t-24 -0.5q-14 0 -42 0.5t-42 0.5h-18q-32 0 -39.5 3.5t-7.5 21.5v145q0 30 -1 45v24q0 10 -0.5 29.5t-0.5 29.5q0 14 0.5 44t0.5 44q0 29 -1 44q0 6 0.5 16.5t0.5 15.5q0 8 -0.5 24t-0.5 24q0 5 0.5 18.5t0.5 22.5q0 14 -0.5 43.5t-0.5 44.5
q0 34 1.5 101.5t1.5 100.5q0 18 -0.5 56t-0.5 57v19q-1 24 1.5 30.5t13.5 6.5h71q9 0 27 0.5t28 0.5q70 0 76 -4q4 -3 4 -12v-67q0 -6 -4.5 -10.5t-10.5 -4.5h-101v-44q0 -7 0.5 -16t0.5 -12q-3 -19 -3 -40q0 -27 1.5 -74t1.5 -64q0 -7 -1 -21t-1 -21q0 -11 1.5 -32.5
t1.5 -32.5q0 -13 -1 -36.5t-1 -35.5q0 -4 0.5 -13t0.5 -14q0 -9 -0.5 -26.5t-1 -31.5t-1.5 -26q0 -39 2 -96.5t2 -81.5q0 -9 -1 -27t-1 -26v-46h55q39 1 50 -1.5t11 -13.5v-66q0 -6 -4.5 -10.5t-10.5 -4.5z" />
    <glyph glyph-name="backslash" unicode="\" horiz-adv-x="617" 
d="M304 462l75 -111q34 -42 95.5 -140t80.5 -123q1 -1 18 -22t25.5 -35t8.5 -22q0 -4 -5 -6.5t-14 -3.5t-16.5 -1t-18.5 0.5t-14 0.5q-11 1 -55 1q-6 0 -13.5 5t-14 13t-12.5 17t-10 17l-7 14l-3 5q-6 6 -15.5 22.5t-14.5 21.5q-10 16 -25.5 40t-29 44.5t-27.5 40.5l-74 111
q-108 154 -157 235q-10 15 -29.5 44.5t-29.5 44.5q-12 15 -12 20q0 9 117 9q14 0 24.5 -13.5t20.5 -33t17 -26.5q53 -80 115 -169z" />
    <glyph glyph-name="bracketright" unicode="]" horiz-adv-x="323" 
d="M25 -156q-6 0 -10.5 4.5t-4.5 10.5v66q0 16 61 15h55v46q0 8 -1 26t-1 27q0 24 2 81.5t2 96.5l-3 84q0 5 0.5 14t0.5 13q0 12 -1 35.5t-1 36.5q0 11 1.5 32.5t1.5 32.5q0 7 -1 21t-1 21q0 17 1.5 64t1.5 74q0 21 -3 40q0 3 0.5 12t0.5 16v44h-101q-6 0 -10.5 4.5
t-4.5 10.5v67q0 13 10 14.5t70 1.5q10 0 28 -0.5t27 -0.5h71q16 0 15 -37v-9.5v-9.5q0 -19 -0.5 -57t-0.5 -56q0 -33 1.5 -100.5t1.5 -101.5q0 -15 -0.5 -44.5t-0.5 -43.5q0 -9 0.5 -22.5t0.5 -18.5q0 -8 -0.5 -24t-0.5 -24q0 -5 0.5 -15.5t0.5 -16.5q-1 -15 -1 -44
q0 -14 0.5 -44t0.5 -44q0 -10 -0.5 -29.5t-0.5 -29.5v-24q-1 -15 -1 -45v-145q0 -18 -7.5 -21.5t-39.5 -3.5h-18q-14 0 -42 -0.5t-42 -0.5q-8 0 -24 0.5t-23 0.5h-10z" />
    <glyph glyph-name="asciicircum" unicode="^" horiz-adv-x="408" 
d="M360 432h-80q-12 0 -18 11l-57 109l-63 -110q-7 -10 -18 -10q-6 0 -20 -0.5t-23 -0.5t-19.5 0.5t-16 2.5t-5.5 5q0 1 5 9l20 32t32 54q87 156 107 156q18 0 49 -62q10 -15 27 -43t22 -37q2 -4 10 -18.5t15.5 -27t13.5 -18.5q26 -43 26 -45q0 -7 -7 -7z" />
    <glyph glyph-name="underscore" unicode="_" horiz-adv-x="431" 
d="M416 -76h-21.5t-41 -0.5t-40.5 -0.5q-2 1 -7 1q-40 -2 -60 -2q-8 0 -25 0.5t-25 0.5h-50q-10 0 -29 0.5t-29 0.5q-4 0 -21 -0.5t-29 -1t-26 0.5q-6 1 -8.5 2.5t-2.5 3.5v6v4v46q0 11 7 13t39 2q9 0 28 -1t28 -1q6 0 18.5 1t19.5 1q32 0 91.5 -1t90.5 -1q41 0 62 2
q39 0 43 -5q3 -3 3 -10v-46q0 -6 -4.5 -10.5t-10.5 -4.5z" />
    <glyph glyph-name="grave" unicode="`" horiz-adv-x="209" 
d="M151 777q-13 9 -32 22q-18 12 -55.5 38t-57.5 39q-11 9 -3 21l46 55q9 13 20 2q3 -2 7 -6l5 -4q35 -28 45 -38q11 -6 29.5 -24t26.5 -24q7 -7 15 -13l6 -5q11 -11 1 -22l-31 -38q-10 -10 -22 -3z" />
    <glyph glyph-name="a" unicode="a" horiz-adv-x="777" 
d="M594 9q0 8 -7 23.5t-13 27.5l-6 11l-29 60h-303l-28 -61q-4 -5 -11.5 -25t-17 -33t-24.5 -13q-3 0 -15 1h-12l-36 -1l-4 -1h-10.5h-12.5q-15 0 -15 11q0 7 10 24.5t25.5 47.5t25.5 61l32 66l32 65l30 70l32 68l31 66l17 32l14 34l17 33l11 26l27 58q25 52 35 52
q6 0 14 -9.5t16 -25.5t14.5 -30.5t13.5 -31.5t10 -23q54 -114 51 -116l32 -66l32 -68l14 -36q8 -16 21.5 -45.5t19.5 -40.5q1 -3 6.5 -14t10.5 -22l5 -10l34 -65l30 -67q-2 1 0 -2q14 -23 14 -30q0 -4 -4 -6.5t-13 -3.5t-16 -1t-19.5 0.5t-17.5 0.5h-15q-4 0 -12 -1t-12 -1
q-17 0 -24 11zM387 470l-15 -33l-15 -32l-29 -66l-30 -67l-13 -32h206l-16 32l-28 67l-30 66z" />
    <glyph glyph-name="b" unicode="b" horiz-adv-x="681" 
d="M91 10q0 2 1 6q0 11 -1 49t0 92l2 177v283q0 4 -1 29.5t-1 31.5q0 14 5 19t18 5q3 0 16.5 -0.5t17.5 -0.5q38 0 110.5 1t126.5 1q91 0 145 -51t54 -143q0 -55 -22.5 -88t-73.5 -63q56 -12 89 -56.5t34 -102.5l-4 -37q-9 -46 -32.5 -77.5t-58.5 -48.5t-71 -25t-82 -11h-18
t-34.5 0.5t-66.5 0.5q-20 0 -44 -0.5t-30 -0.5h-32h-6q-5 -1 -10 -1q-26 0 -31 11zM366 299l-74 1h-75v-185h140q109 9 109 93q0 35 -29.5 62.5t-70.5 28.5zM378 588h-79q-69 0 -74 1h-2q-4 0 -6 -2v-157q3 -10 8 -10q17 0 55.5 -0.5t58.5 -0.5q55 0 86 21t31 60
q0 38 -21 63t-57 25z" />
    <glyph glyph-name="c" unicode="c" horiz-adv-x="805" 
d="M440 111q36 3 67.5 13.5t49 20.5t44.5 29q3 3 12 11.5t14.5 14.5t13 11t11.5 5l10 -3l6 -4q5 -4 13 -9.5t17.5 -13t17.5 -14.5t13.5 -15t5.5 -13q0 -13 -24 -37q-118 -118 -271 -118q-21 1 -31.5 2t-56 11t-79.5 25.5t-77 50t-72 81.5q-30 58 -39.5 96t-14.5 95
q0 47 16 109q53 144 162 205q90 45 192 50q79 -1 119 -17t112 -66q10 -6 15 -10q49 -42 49 -63q0 -7 -5 -12q-60 -60 -77 -60q-7 0 -11 5q-78 98 -202 100q-58 -5 -102.5 -24t-69 -44.5t-39.5 -58t-19.5 -59t-4.5 -53.5q-9 -97 67.5 -170.5t167.5 -70.5z" />
    <glyph glyph-name="d" unicode="d" horiz-adv-x="755" 
d="M219 705q16 0 43.5 0.5t39.5 0.5q65 0 123 -13q91 -12 170 -83q52 -68 71 -127t19 -157q0 -102 -56.5 -189t-152.5 -115q-20 -7 -45.5 -12t-41 -6.5t-48.5 -3t-41 -2.5q-23 0 -53.5 1t-54.5 1h-19q-5 0 -16.5 -0.5t-17.5 -0.5q-35 0 -41.5 10t-6.5 55q0 13 1 15
q0 7 -0.5 21t-0.5 21q0 18 1 53.5t1 53.5q0 36 -3 70v77q0 17 1 36.5t1 28.5q0 97 -1 156t-1 88q0 11 5 14.5t20 3.5h3q6 2 22 2q8 0 22.5 -0.5t18.5 -0.5q7 0 19 1t19 1zM216 116h6h8q8 -1 17.5 -1.5t11.5 -0.5h8q7 0 23 0.5t24 0.5q14 0 21 -1q215 12 217 237
q-7 90 -31 142q-21 30 -43 49t-48.5 28t-43.5 12t-51 6h-76q-13 0 -22 -0.5t-21 -0.5q0 -23 1 -68t1 -67q0 -42 -3 -82q2 -30 2 -44v-29q0 -14 0.5 -40.5t0.5 -39.5q0 -44 -2 -65v-36z" />
    <glyph glyph-name="e" unicode="e" horiz-adv-x="642" 
d="M93 15q0 23 -0.5 39.5t-0.5 51.5q0 10 0.5 33t0.5 37v211q0 27 -1.5 86.5t-1 105.5t4.5 89q0 4 -0.5 10t-0.5 10q0 15 14 15q21 0 63 1t63 1q34 -3 90 -3q18 0 53 1.5t52 1.5q59 0 106 -4q3 0 9.5 0.5t9.5 0.5q17 0 17 -37q0 -7 -0.5 -19t-0.5 -19q0 -4 0.5 -12t0.5 -12
q0 -15 -15 -15q-119 0 -134 1q-26 0 -81.5 1t-86.5 1q-6 0 -19 -0.5t-19 -0.5q0 -6 0.5 -20t0.5 -20q0 -18 -0.5 -62t-0.5 -77q22 4 80.5 1.5t83.5 -0.5q4 0 15 0.5t18.5 0.5t17 -1t14.5 -4.5t6 -10.5q0 -5 -0.5 -18t-0.5 -20v-10q0 -2 0.5 -12.5t0 -16t-1.5 -13.5t-4 -11.5
t-8 -3.5q-4 0 -12 0.5t-11 0.5q-25 -2 -162 -2l-8 1h-15.5h-12.5q2 -14 0.5 -86.5t-1.5 -84.5q0 -8 12 -8q9 0 115.5 2.5t116.5 -1.5l63 1q46 -4 47 -17q0 -11 -0.5 -30.5t-0.5 -29.5q0 -4 0.5 -11.5t0.5 -11.5q0 -15 -14 -15q-5 0 -20 1t-33 1q-49 0 -73 -3q-11 2 -33 0.5
t-33 0.5h-162q-33 0 -35 -2q-2 0 -14 -0.5t-20 -0.5t-18 1.5t-15.5 5.5t-5.5 11z" />
    <glyph glyph-name="f" unicode="f" horiz-adv-x="642" 
d="M94 14v3q-3 6 -3 69q4 32 5 64t0 84.5t-1 63.5q0 16 -1.5 85t-0.5 128q0 17 1 52t1 54q0 9 -1 24t-1 40q0 9 8.5 15.5t18.5 6.5h6q6 0 8 1q206 0 243 -3h142h31q5 0 12.5 -5t7.5 -10v-11l1 -44q-5 -42 -22 -43q-21 0 -65 -0.5t-71 -0.5q-4 0 -98 2.5t-98 -1.5
q0 -11 -1 -33.5t-1 -33.5q0 -6 0.5 -17.5t0.5 -17.5q0 -12 -0.5 -20t-0.5 -19l2 -33h17.5t17.5 -1q8 0 56.5 1.5t92.5 0.5q12 0 22 -1q2 0 5.5 0.5t4.5 0.5q18 -10 18 -28q0 -9 0.5 -32t0.5 -37q0 -22 -18 -27q-33 0 -69 -3l-36 2h-113q0 -12 0.5 -45t0.5 -45q0 -19 -1 -67
t-1 -81q0 -2 0.5 -12.5t0 -14.5t-3.5 -11.5t-10 -10.5t-19 -3q-3 0 -8 0.5t-8 0.5q-4 0 -12 -0.5t-12 -0.5h-4q-2 0 -10 -0.5t-12 -0.5q-13 0 -23 15z" />
    <glyph glyph-name="g" unicode="g" horiz-adv-x="806" 
d="M579 692q34 -13 88 -54t54 -69q0 -7 -5 -12l-3 -3q-3 -3 -7 -7.5t-10 -10.5l-11.5 -11.5t-12 -11t-12.5 -10t-11 -7t-8 -2.5q-7 0 -11 5q-34 41 -87 66.5t-108 26.5q-58 -5 -102 -24.5t-67.5 -44.5t-38 -58.5t-18.5 -59.5t-4 -53q4 -56 22 -110q48 -75 95.5 -99
t117.5 -29q82 6 160 60l14 14v68q0 3 -0.5 11t-0.5 15q-7 0 -19 -0.5t-19 -0.5q-20 0 -62.5 -0.5t-62.5 -0.5q-30 0 -38 7t-8 30q0 85 18 85q9 0 17 1t17 1q80 0 103 -2l35 1q82 0 105 -2q3 0 10 0.5t10 0.5q13 0 13 -14v-28l3 -37v-95v-12q0 -4 -0.5 -26.5t-0.5 -26.5
q6 -27 -23 -56q-118 -118 -271 -118q-79 2 -127 18q-118 39 -189 152q-30 58 -39.5 96t-14.5 95q0 48 16 110q53 144 162 205q79 40 192 50q95 -8 139 -23z" />
    <glyph glyph-name="h" unicode="h" horiz-adv-x="790" 
d="M573 14q0 35 2 53l-2 19q0 38 2 49l-2 34q0 17 0.5 61.5t0.5 61.5l-37 -2q-37 0 -75 3q-53 -3 -171 -3q-13 0 -37 0.5t-36 0.5q0 -11 -1 -44.5t-1 -44.5l2 -33q0 -93 1 -102q0 -2 0.5 -13.5t0 -18.5t-1.5 -16.5t-5 -14.5t-10 -5q-35 0 -69 3q-4 0 -12.5 -0.5t-12.5 -0.5
q-5 0 -8 2.5t-5 7.5t-3.5 9.5t-1.5 12.5v13v13v11q1 12 2 35.5t2 35.5q0 28 -1.5 86.5t-1.5 88.5q0 6 0.5 17.5t0.5 17.5q0 17 -0.5 53t-0.5 53l2 35q0 12 -0.5 35t-0.5 35q0 6 0.5 18t0.5 18l-2 35l2 35q0 4 -0.5 10t-0.5 10q0 3 1 5.5t2.5 4t3.5 2.5t5 2t5 1.5t6 0.5h6
h6.5h5.5q3 0 16 0.5t22.5 0.5t20.5 -1t17.5 -5t6.5 -11q0 -9 -0.5 -27t-0.5 -27q0 -18 1 -52t1 -52q0 -12 -1 -24t-1 -24l2 -34l-2 -36q76 0 113 3q25 0 67 -1.5t66 -1.5q6 0 12 0.5t14 1.5t12 1l37 -3l36 2q0 12 0.5 34t0.5 34q0 19 -1 57.5t-1 69t3 59.5q0 4 -0.5 10
t-0.5 10q0 6 4.5 10.5t10.5 4.5q22 0 68 -2q4 0 12.5 0.5t12.5 0.5q6 0 10.5 -4.5t4.5 -10.5q0 -15 -0.5 -45t-0.5 -45q3 -34 3 -140q0 -11 -1 -35t-1 -35l2 -36q0 -23 -1 -69.5t-1 -70.5l2 -20q0 -26 -3 -50q3 -42 3 -126q-1 -7 -9 -10.5t-22.5 -5t-26 -1.5t-29.5 0.5
t-24 0.5t-10.5 4.5t-4.5 10.5z" />
    <glyph glyph-name="i" unicode="i" horiz-adv-x="310" 
d="M217 257l-1 -55l2 -33q0 -93 1 -102q0 -2 0.5 -13.5t0 -18.5t-1.5 -16.5t-5 -14.5t-10 -5q-35 0 -69 3q-4 0 -12.5 -0.5t-12.5 -0.5q-5 0 -8 2.5t-5 7.5t-3.5 9.5t-1.5 12.5v13v13v11q1 12 2 35.5t2 35.5q0 28 -1.5 86.5t-1.5 88.5q0 6 0.5 17.5t0.5 17.5q0 17 -0.5 53
t-0.5 53l2 35q0 12 -0.5 35t-0.5 35q0 6 0.5 18t0.5 18l-2 35l2 35q0 4 -0.5 10t-0.5 10q0 3 1 5.5t2.5 4t3.5 2.5t5 2t5 1.5t6 0.5h6h6.5h5.5q3 0 16 0.5t22.5 0.5t20.5 -1t17.5 -5t6.5 -11q0 -9 -0.5 -27t-0.5 -27q0 -18 1 -52t1 -52q0 -12 -1 -24t-1 -24l2 -34
q-1 -5 -1 -191z" />
    <glyph glyph-name="j" unicode="j" horiz-adv-x="601" 
d="M367 593q-23 2 -69 2l-6 -1h-13l-23 -1q-16 0 -38 0.5t-38 0.5q-15 0 -15 15q0 4 0.5 12t0.5 12q0 7 -0.5 19t-0.5 19q0 37 17 37q3 0 9.5 -0.5t9.5 -0.5h150t123 1q3 0 9.5 0.5t9.5 0.5q17 0 17 -37q0 -6 -0.5 -19t-0.5 -19q0 -4 0.5 -12t0.5 -12q0 -52 -0.5 -162.5
t-0.5 -171.5q0 -121 -32 -179.5t-97 -86.5q-13 -7 -29.5 -11.5t-26.5 -5.5t-34.5 -2.5t-32.5 -2.5q-53 3 -113 24q-11 4 -29 11.5t-41.5 22t-23.5 26.5q0 9 27 50t34 41q5 0 9 -3q67 -48 135 -53q31 3 43.5 5t30 13t30.5 33q16 26 20 84q0 47 0.5 151.5t0.5 167.5v33
q-6 -1 -13 -1z" />
    <glyph glyph-name="k" unicode="k" horiz-adv-x="738" 
d="M91 17q0 3 -0.5 9.5t-0.5 9.5q3 34 3 70v528q0 9 -1 27.5t-1 28.5q0 14 14 14q11 0 34 -1t35 -1q4 0 12.5 0.5t12.5 0.5q7 0 10.5 -4t4.5 -7.5t2 -12t1 -10.5l-3 -35q0 -32 -0.5 -100t-0.5 -107v-16l54 1l65 85q21 24 61 73t64 77q1 1 7.5 11.5t10.5 16t11 13t13.5 11.5
t13.5 4q12 0 32.5 0.5t30.5 0.5q67 0 67 -8q0 -2 -2 -4q-5 -6 -43 -56t-59 -74q-19 -27 -77 -93t-89 -112l28 -28q87 -110 131 -163q48 -58 75 -88q0 -1 18 -18.5t30.5 -32.5t12.5 -20q0 -4 -4.5 -5.5t-14.5 -1.5l-10 -1q-7 0 -20 0.5t-19 0.5h-65q-9 0 -20 10.5t-23.5 27
t-19.5 22.5l-200 232q-2 0 -18 -0.5t-39 -0.5v-54q1 -45 1 -92.5v-76.5v-27.5t-2 -18.5t-2.5 -12t-6 -6t-6.5 -2h-11.5h-13.5q-4 0 -16.5 -1t-22 -1t-20 1t-17 5t-7.5 11z" />
    <glyph glyph-name="l" unicode="l" horiz-adv-x="586" 
d="M214 270q0 -8 0.5 -24.5t0.5 -25.5q0 -6 -0.5 -17.5t-0.5 -17.5q0 -11 1 -33.5t1 -33.5q30 -3 160 -3q26 0 73 -0.5t67 -0.5q26 0 18 -77l-1 -10v-11q0 -5 -7.5 -10t-12.5 -5h-31l-35 -3q-36 3 -107 3q-12 -5 -104.5 -2t-102.5 3q-2 1 -8 1h-6q-10 0 -18.5 6.5t-8.5 15.5
q0 25 1 40t1 24q0 13 -1.5 48.5t-0.5 57.5l-2 36q0 35 3 70q-1 36 0 70.5t1 36.5q0 30 -1 129.5t0 151.5v3q10 15 23 15q4 0 12 -0.5t10 -0.5h4q4 0 12 -0.5t12 -0.5q2 0 8 0.5t8 0.5q12 0 19 -3t10 -10.5t3.5 -11.5t0 -14.5t-0.5 -12.5q0 -49 2 -74q0 -5 -0.5 -27.5
t-1 -94.5t-0.5 -188z" />
    <glyph glyph-name="m" unicode="m" horiz-adv-x="860" 
d="M757 706q5 0 7.5 -7t3.5 -21t1 -25.5t-0.5 -29t-0.5 -23.5q-2 -230 -1 -344q0 -51 -1 -77q-1 -7 0.5 -20t1.5 -18q0 -104 -4 -122.5t-25 -19.5q-8 0 -13 -1l-41 3q-5 0 -13 -0.5t-13 -0.5q-14 0 -14 14v63.5v46v26.5q0 36 -0.5 70t-0.5 42q0 17 -0.5 54t-0.5 58
q0 12 2 38q-29 -29 -82 -91t-81 -90q-2 -3 -10.5 -14t-13.5 -17.5t-13 -13t-14 -6.5q-10 0 -28 17t-42.5 46t-33.5 38q-15 19 -115 132q0 -13 1 -38t1 -38l-2 -37q2 -27 2 -57.5t-1 -69.5t-1 -61q0 -95 -5 -105q-4 -7 -25 -8q-5 0 -9 -1q-7 0 -20.5 1t-24.5 1.5t-20 0.5
q-10 0 -13.5 17t-3.5 49t-1 39l2 35q0 6 -0.5 17.5t-0.5 17.5q0 18 1 53t1 53q0 22 -1 64t-1 78t2 70q-2 28 -2 200q0 11 11 11q7 0 12 -7q76 -92 156 -175q54 -71 97 -113q11 -14 32.5 -39t29.5 -35q118 131 205 239q8 10 31 36t36 41q2 2 12 15.5t21 24.5t23 14z" />
    <glyph glyph-name="n" unicode="n" horiz-adv-x="781" 
d="M92 16q0 15 -1 45t-1 45q0 6 0.5 17.5t0.5 17.5t-0.5 18t-0.5 18q0 79 1 225t1 233q0 5 0.5 17t0.5 17t-0.5 13t-0.5 12q0 13 11 13q5 0 10 -3q73 -75 123 -119q113 -102 329 -316q2 14 2 21q0 26 -1.5 79t-1.5 80l2 36q0 12 -0.5 36.5t-0.5 36.5l3 36q0 6 -0.5 18
t-0.5 18t0.5 18.5t0.5 18.5l-2 22q0 6 2.5 9.5t7.5 4.5t9 1.5t12 0t10 -0.5q4 0 16.5 0.5t22.5 0.5t21 -1t17.5 -4.5t6.5 -10.5q0 -9 -0.5 -28t-0.5 -29q0 -12 0.5 -35.5t0.5 -35.5q0 -64 -0.5 -206.5t-0.5 -207.5q0 -6 -0.5 -17.5t-0.5 -17.5q0 -9 1 -27.5t1 -28.5
q0 -8 -0.5 -23t-0.5 -22v-8q0 -9 -9 -9q-10 0 -16 7q-105 105 -172 164q-46 51 -100.5 101.5t-59.5 55.5q-19 19 -58.5 56t-58.5 56l2 -35q-1 -12 -1 -145v-182q-1 -16 -1.5 -30.5t-1 -21t0 -12t-2.5 -7t-4 -2.5t-9 -1t-14 -1l-52 5q-5 0 -13 -0.5t-13 -0.5q-15 0 -15 15z
" />
    <glyph glyph-name="o" unicode="o" 
d="M799 351q0 -43 -5 -74q-3 -20 -9.5 -39.5t-12 -32t-15 -32t-14.5 -30.5q-31 -44 -64.5 -73.5t-73 -45.5t-65 -22.5t-69.5 -14.5q-6 0 -18 0.5t-18 0.5q-64 -5 -141 24q-53 19 -92.5 48.5t-63.5 62t-39 73.5t-21 77t-8 79q5 279 254 349q30 8 111 15q6 0 18 -0.5t18 -0.5
q95 -3 172.5 -57.5t118 -136.5t37.5 -170zM435 108q70 0 118.5 24t71.5 63.5t32 77t9 78.5q-8 97 -42 145q-22 31 -46 51t-54.5 29t-43 11t-45.5 5q-34 -2 -63 -8.5t-48.5 -14t-36 -21t-25.5 -23t-18 -26.5t-12 -25.5t-9 -26.5t-7 -22q-30 -130 30 -216q71 -101 189 -101z
" />
    <glyph glyph-name="p" unicode="p" horiz-adv-x="657" 
d="M346 221q-43 0 -67 -2q-22 2 -65 2l-2 -37l3 -37q0 -13 -1 -37t-1 -36q0 -10 1 -30t1 -30q0 -4 -1.5 -7t-4.5 -4.5t-5.5 -2.5t-7.5 -1.5t-8 -0.5h-8.5h-6.5q-12 1 -25 2t-19.5 0.5t-14 1t-10.5 1t-6.5 2.5t-4 3.5t-1.5 6.5t-1 8.5v11.5l2 35q0 6 -0.5 17.5t-0.5 17.5
l2 36q0 24 -4 70q3 34 3 105q0 24 -1.5 71t-1.5 70l3 35l-2 20q0 24 3 50q0 18 -1 53t-1 53q0 34 16 34q3 0 9.5 -0.5t9.5 -0.5q41 0 60 2q7 0 21 -0.5t22 -0.5h127q39 0 64 -10q42 -12 73 -33.5t47.5 -42t27 -52.5t13 -50.5t5.5 -50.5q0 -46 -8 -69l-1 -6q-2 -6 -3.5 -12
t-4.5 -15t-7 -18.5t-9.5 -18.5t-13 -18t-16.5 -16q-42 -33 -79 -46t-99 -23zM459 463q-1 63 -30.5 91t-83.5 31q-60 3 -131 3q0 -6 0.5 -18t0.5 -18l-3 -36q-1 -14 1 -38.5t2 -33.5q0 -12 -1 -36t-1 -36l1 -36q12 0 37 -1t38 -1q83 0 120 24.5t50 104.5z" />
    <glyph glyph-name="q" unicode="q" 
d="M531 -66l-48 56q-19 -2 -48 -2q-64 -5 -141 24q-53 19 -92.5 48.5t-63.5 62t-39 73.5t-21 77t-8 79q3 162 97 255t268 109q6 0 18 -0.5t18 -0.5q95 -3 172.5 -57.5t118 -136.5t37.5 -170q0 -43 -5 -74q-3 -20 -9.5 -39.5t-12 -32t-15 -32t-14.5 -30.5q-57 -81 -134 -118
l21 -21l21 -21t23 -25q0 -1 18 -18.5t30.5 -32.5t12.5 -20q0 -4 -4.5 -5.5t-14.5 -1.5l-10 -1q-6 0 -19 0.5t-20 0.5h-73q-9 0 -19.5 9t-24 24t-19.5 21zM435 108q47 0 84.5 11t61 32t40 43t25.5 53.5t13 53t7 50.5q-8 97 -42 145q-22 31 -46.5 51.5t-53.5 29.5t-43.5 11.5
t-45.5 5.5q-35 -3 -64 -10.5t-49 -15.5t-36.5 -21t-25.5 -23t-17.5 -26.5t-11.5 -25t-8 -25.5t-7 -22q-30 -130 30 -216q71 -101 189 -101z" />
    <glyph glyph-name="r" unicode="r" horiz-adv-x="695" 
d="M439 53q-4 4 -62.5 68.5t-88.5 97.5h-9q-22 2 -65 2l-2 -37l3 -37q0 -13 -1 -37t-1 -36q0 -10 1 -30t1 -30q0 -4 -1.5 -7t-4.5 -4.5t-5.5 -2.5t-7.5 -1.5t-8 -0.5h-8.5h-6.5q-12 1 -25 2t-19.5 0.5t-14 1t-10.5 1t-6.5 2.5t-4 3.5t-1.5 6.5t-1 8.5v11.5l2 35
q0 6 -0.5 17.5t-0.5 17.5l2 36q0 24 -4 70q3 34 3 105q0 24 -1.5 71t-1.5 70l3 35l-2 20q0 24 3 50q0 18 -1 53t-1 53q0 34 16 34q3 0 9.5 -0.5t9.5 -0.5q41 0 60 2q7 0 21 -0.5t22 -0.5q36 0 36 3q5 1 37 -1t45 -2h9q39 0 64 -10q42 -12 73 -33.5t47.5 -42t27 -52.5
t13 -50.5t5.5 -50.5q0 -46 -8 -69l-1 -6q-2 -6 -3.5 -12t-4.5 -15t-7 -18.5t-9.5 -18.5t-13 -18t-16.5 -16q-49 -38 -95 -52q23 -26 74 -80t75 -81q1 -1 8.5 -9.5t15 -16.5t15.5 -17.5t13 -17t5 -10.5q0 -4 -4.5 -5.5t-14.5 -2.5h-10q-6 0 -19 0.5t-20 0.5h-65q-9 0 -19.5 9
t-24 24.5t-19.5 20.5zM328 590q-13 -2 -42 -2l-34 2l-38 -2q0 -6 0.5 -18t0.5 -18l-3 -36q-1 -14 1 -38.5t2 -33.5q0 -12 -1 -36t-1 -36q0 -6 0.5 -18t0.5 -18q12 0 37 -1t38 -1q92 0 134 33q13 16 20.5 34t9.5 27t6 35q-5 25 -11.5 44.5t-16.5 32.5t-17 21t-22 13.5
t-20.5 7.5t-23 4.5t-20.5 3.5z" />
    <glyph glyph-name="s" unicode="s" horiz-adv-x="639" 
d="M568 175q-1 -6 -2.5 -17.5t-2.5 -19t-4 -17t-7 -16.5q-16 -36 -48 -60.5t-65.5 -35.5t-83.5 -20q-75 0 -123.5 10.5t-97.5 35.5q1 2 -13 6.5t-30.5 13.5t-20.5 22q0 1 1 3.5t1 3.5q4 7 12 19.5t13.5 22t12 19.5t11.5 15t8 5q6 0 17 -7.5t17 -8.5l4 -2q89 -39 144 -39
q131 0 131 86q0 13 -3.5 24.5t-13 21.5t-16 16t-22.5 14.5t-22 11t-25.5 10.5t-22.5 9q-9 0 -57 23t-68 34q-1 1 -10 8.5t-12 10.5t-12 11.5t-13 14.5t-11.5 16t-11.5 20t-8 22t-6 26.5t-2 29.5q0 21 6 44l3 11q3 11 6 19.5t8.5 20.5t13.5 22.5t18 18.5q49 39 90 50t92 11
q45 -3 114 -19q1 0 13.5 -4t26 -8.5t28 -10.5t24 -14t9.5 -15q0 -2 -2 -6l-19 -48q-16 -35 -29 -35q-7 0 -23 8.5t-24 8.5q-214 56 -228 -43q0 -32 7.5 -49.5t29 -29t47 -20t72 -30t93.5 -50.5l4 -2q3 -2 10.5 -8t15.5 -12.5t16.5 -16.5t13.5 -20q19 -37 27 -85
q0 -20 -1 -30z" />
    <glyph glyph-name="t" unicode="t" horiz-adv-x="656" 
d="M51 603q0 4 -0.5 12t-0.5 12q5 67 9 72q3 3 24 5q3 0 6 1q32 -4 66 -4.5t84.5 0.5t69.5 1q13 0 37 0.5t37 0.5q22 0 72 0.5t80 0.5q8 0 26 -0.5t28 -0.5q15 0 15 -14q0 -4 -0.5 -12t-0.5 -12q0 -7 1 -19t1 -19q0 -38 -17 -38q-167 0 -197 1l-1 -75q0 -6 0.5 -18.5
t0.5 -18.5t-0.5 -18t-0.5 -18l2 -37q0 -25 -0.5 -74t-0.5 -73q0 -38 1 -118.5t1 -125.5q0 -6 -8 -10t-22.5 -5t-26.5 -1t-30 0.5t-24 0.5q-7 1 -10.5 9t-5 22.5t-1.5 26t0.5 29.5t0.5 24l2 37q1 57 -0.5 158.5t-1.5 136.5q0 7 2 72t-1 75q-18 0 -54 -0.5t-54 -0.5
q-15 0 -45.5 0.5t-47.5 0.5q-15 0 -15 14z" />
    <glyph glyph-name="u" unicode="u" horiz-adv-x="774" 
d="M90 291l2 37q0 12 -1 37t-1 38q0 12 2 38q0 6 -0.5 18.5t-0.5 18.5q0 15 1 47t1 48q0 3 -0.5 21.5t-0.5 34.5t0.5 34t3.5 29t8 11t14.5 -0.5t14.5 -0.5q11 0 34 1t35 1q14 0 14 -15q0 -17 -1 -49t-1 -49q0 -9 1.5 -31t1.5 -54v-65q0 -41 -1.5 -92t-1 -68t5.5 -42t18 -53
q1 -1 14 -19t25 -29.5t42 -23t69 -11.5q27 0 48 5l15 4q65 24 93 83q14 32 14 69l2 27q0 6 -0.5 18.5t-0.5 18.5t0.5 19t0.5 20q-3 36 -3 74q0 7 1 19.5t1 18.5q0 35 -1 105t-1 105q0 15 14 15q79 0 94 -2q6 0 9.5 -5t5 -14t2 -17.5t1 -20.5t0.5 -17q-3 -29 0 -75
q0 -6 -0.5 -18.5t-0.5 -18.5q0 -13 2 -75q0 -7 -1 -19.5t-1 -18.5q0 -13 0.5 -38t0.5 -37q0 -97 -10 -135q0 -3 -2 -8.5t-2 -8.5q-13 -38 -31 -67.5t-41.5 -48.5t-42 -29.5t-44.5 -22.5q-28 -16 -124 -23q-34 3 -73 9l-7 2q-7 1 -15 3t-20.5 6t-25 9t-26.5 13t-26.5 17.5
t-24.5 22.5t-21 28l-6 9q-27 36 -27 53q-16 42 -24 134z" />
    <glyph glyph-name="v" unicode="v" horiz-adv-x="783" 
d="M183 688q7 -15 31.5 -68t39.5 -81q8 -18 60 -130t78 -170q12 26 16.5 39t4.5 15.5t7 17t26 47.5q4 26 71 148q10 26 23.5 55.5t31.5 67t29 61.5q3 6 11 9.5t21 4.5t23.5 1t26.5 -0.5t22 -0.5h7h7.5t6.5 -0.5t5.5 -3t1.5 -5.5t-1 -4q-52 -122 -119 -249q-20 -41 -81 -177
t-100 -209q-1 -2 -6 -14.5t-9.5 -22t-11.5 -18t-13 -8.5q-4 0 -10 6q-34 71 -39 80q-20 29 -51 103t-46 101q-45 83 -154 323q-3 6 -14.5 26t-19.5 36.5t-8 25.5q0 10 27 10l33 -2q3 0 18 1t23 0.5t18.5 -4t13.5 -11.5z" />
    <glyph glyph-name="w" unicode="w" horiz-adv-x="1018" 
d="M871 703q3 0 8.5 -0.5t8.5 -0.5q32 3 63 3q27 0 27 -11v-2l-1 -2q-10 -19 -24 -59t-22 -57q-4 -10 -34.5 -90t-70 -181.5t-65.5 -159.5q-10 -27 -22 -52q-3 -6 -12.5 -33.5t-20.5 -46t-25 -24.5q-5 2 -9 5.5t-7.5 10.5t-6 13.5t-7 19.5t-8.5 22q-16 41 -60.5 166.5
t-73.5 191.5q-17 -52 -62.5 -164t-63.5 -169q-33 -100 -56 -100q-6 0 -10.5 6t-7.5 12.5t-6 17t-4 12.5q-13 33 -30 76t-23 59q-25 71 -173 440q-2 6 -11.5 26.5t-15.5 37t-6 24.5q0 3 2 5t6 3t8.5 2t11 1h10.5h10.5h9.5q2 0 13.5 0.5t17.5 0t15.5 -1.5t15 -4.5t7.5 -9.5
q17 -51 49 -114q91 -255 114 -313q31 97 132 343q2 5 11.5 32t18.5 46.5t15 19.5q5 0 8.5 -3.5t5 -7.5t3.5 -11t3 -9q60 -121 159 -403q77 226 130 337q0 3 7 25.5t21 46.5t27 24z" />
    <glyph glyph-name="x" unicode="x" horiz-adv-x="708" 
d="M531 704q125 0 125 -9q0 -5 -12 -20q-10 -15 -29.5 -44.5t-29.5 -44.5q-49 -81 -157 -235q2 -3 67.5 -99.5t111.5 -162.5q2 -2 16.5 -22t24.5 -36.5t10 -23.5t-7 -7q-24 2 -61 -1q-4 0 -19.5 -1t-26 -1t-22 3.5t-16.5 10.5q-15 23 -70 103.5t-82 125.5
q-14 -20 -27.5 -40.5t-29 -44.5t-25.5 -40q-5 -5 -14.5 -21.5t-15.5 -22.5l-3 -5l-7 -14t-10 -17t-12.5 -17t-14 -13t-13.5 -5q-52 0 -63 -1q-3 0 -14 -0.5t-18.5 -0.5t-16.5 1t-14 3.5t-5 6.5q0 8 8.5 22t25.5 35t18 22q19 25 80.5 123t95.5 140q-15 20 -40 59t-39 58
q-18 23 -49.5 73t-48.5 73q-3 4 -17 22.5t-24.5 34.5t-10.5 24q0 5 19 7t49 2t37 1l21 -2q3 0 6.5 -1.5t7 -4.5t6.5 -5.5t7 -7.5t6.5 -8t6.5 -8.5t6 -8t6 -9t5 -7.5l41 -60q13 -19 39 -60t41 -61q62 89 115 169q7 7 17 26.5t20.5 33t24.5 13.5z" />
    <glyph glyph-name="y" unicode="y" horiz-adv-x="712" 
d="M427 528q46 79 104 164q8 12 17 12h23q60 0 71 -1q30 2 30 -6q0 -14 -49 -83q-36 -53 -75.5 -118t-82.5 -140t-44 -77q-2 -30 -2.5 -63.5t0.5 -78t1 -67.5q0 -3 0.5 -15t0 -19t-1.5 -16t-5 -14t-10 -6q-32 0 -48 -1q-16 1 -53 1q-11 3 -11 70q0 190 -1 209q-1 2 -44 77
t-82.5 140t-75.5 118q-49 74 -49 83q0 8 30 6q11 1 94 1q9 0 23 -19q5 -7 26 -40.5t43 -66.5q16 -24 33 -52t36.5 -62t30.5 -53q4 7 30.5 50.5t40.5 66.5z" />
    <glyph glyph-name="z" unicode="z" horiz-adv-x="678" 
d="M81 703q3 0 10 0.5t10 0.5q70 0 217.5 -1.5t230.5 -1.5q3 0 21 1l17 2q26 0 26 -15q0 -8 -5 -13q-9 -17 -31.5 -53t-32.5 -57q-32 -53 -94.5 -152.5t-92.5 -148.5l-2 -3l-4.5 -9t-4.5 -7q-5 -8 -80 -132q6 0 17 -0.5t17 -0.5h197q55 0 84 3q3 0 10 -0.5t11 -0.5
q6 0 9.5 -5t4.5 -15.5t1.5 -17.5t0 -21.5t-0.5 -17.5q0 -4 -0.5 -11.5t-0.5 -11.5q0 -6 -4.5 -10t-14 -5.5t-15.5 -2t-20 0t-16 0.5q2 1 -82 1h-191.5t-145.5 1h-21q-5 0 -13.5 -1t-12.5 -1q-20 0 -20 14q0 13 12 34.5t32.5 52t25.5 38.5q35 50 132 211q33 47 149 240h-275
h-23.5t-18 1t-13 1.5t-8.5 2.5t-5.5 3t-2.5 5.5t-0.5 6.5t0.5 8.5v10.5v11v13.5v14t1 14.5t3 11.5t5 8.5t7 3z" />
    <glyph glyph-name="braceleft" unicode="{" horiz-adv-x="356" 
d="M253 447q0 -64 -52 -97q51 -26 51 -113v-195q5 -75 36 -94q16 -9 41 -11q6 0 10 -4.5t5 -13.5t1 -16.5t-0.5 -20t-0.5 -17.5q0 -20 -24 -20q-2 0 -6 1t-7 1q-14 2 -26.5 5.5t-21.5 6.5t-19 8.5t-14.5 8t-13 10t-10.5 9.5l-11.5 11.5t-10.5 11.5q-13 21 -19 54t-6.5 52.5
t-0.5 77.5v70q0 5 0.5 24t0.5 29t-3 27t-9.5 26t-19 16t-30.5 7h-8q-6 0 -10.5 4.5t-4.5 10.5v69q0 6 4.5 10.5t10.5 4.5h8q24 0 42 15t18 52q0 5 0.5 23t1 61t0.5 109q0 39 7 73q11 54 55 86t112 35q6 0 10.5 -4.5t4.5 -10.5v-63q0 -10 -32 -20.5t-37 -15.5
q-14 -15 -19 -37.5t-3.5 -43t-0.5 -45.5z" />
    <glyph glyph-name="bar" unicode="|" horiz-adv-x="232" 
d="M147 -162h-61q-6 0 -10.5 4.5t-4.5 10.5q0 37 2 383.5t-3 388.5q0 56 2 65.5t14 9.5h61q6 0 10.5 -4.5t4.5 -10.5v-57q0 -15 -1.5 -45t-1.5 -45q0 -42 1.5 -125t1.5 -125v-435q0 -6 -4.5 -10.5t-10.5 -4.5z" />
    <glyph glyph-name="braceright" unicode="}" horiz-adv-x="356" 
d="M103 447q1 71 1 167q-2 25 -0.5 45.5t-3.5 43t-19 37.5q-5 5 -37 15.5t-32 20.5v63q0 6 4.5 10.5t10.5 4.5q68 -3 112 -35t55 -86q7 -34 7 -73q0 -66 0.5 -109t1 -61t0.5 -23q0 -37 18 -52t42 -15h8q6 0 10.5 -4.5t4.5 -10.5v-69q0 -6 -4.5 -10.5t-10.5 -4.5h-8
q-18 0 -30.5 -7t-19 -16t-9.5 -26t-3 -27t0.5 -29t0.5 -24v-70q0 -111 -10 -146q-6 -21 -16 -38q-2 -2 -9.5 -10t-10 -10.5t-9.5 -9t-11 -9t-11.5 -7.5t-14.5 -8t-16.5 -6.5t-20.5 -6t-24 -4.5q-3 0 -7 -1t-6 -1q-24 0 -24 20q0 5 -0.5 17.5t-0.5 20t1 16.5t5 13.5t10 4.5
q30 2 46 14t23 39.5t8.5 66t0.5 100.5q-1 51 -1 80q0 87 51 113q-52 33 -52 97z" />
    <glyph glyph-name="asciitilde" unicode="~" horiz-adv-x="707" 
d="M518 305h83q7 0 11.5 -5.5t3.5 -12.5q-9 -46 -38 -85l-7 -9q-18 -22 -39 -34l-9 -5q-32 -17 -86 -17h-15q-36 2 -70 25l-7 6q-8 4 -30.5 19t-36.5 20q-1 0 -4.5 0.5t-5.5 0.5q-39 0 -52 -31q-2 -2 -6 -10q-8 -8 -8 -14q-4 -10 -19 -10h-77q-4 0 -7 1q-8 5 -8.5 13.5
t3.5 21t4 17.5q2 4 2 7q3 3 3 6q3 5 10.5 19t13.5 23.5t14 17.5q2 3 7 6q17 15 44 25l6 3q15 5 33 8q5 0 7 1q3 0 9 0.5t8 0.5q6 0 10 2q41 2 93 -29l9 -6q41 -31 63 -34q51 -7 66 41q5 18 22 18z" />
    <glyph glyph-name="exclamdown" unicode="&#xa1;" horiz-adv-x="318" 
d="M227 502q1 -6 1 -16q0 -27 -21 -48t-48 -21q-30 0 -49.5 21.5t-19.5 47.5q0 22 14 42.5t33 24.5q8 4 22 4q19 0 33 -9t20 -18.5t15 -27.5zM222 -141q0 -15 -15 -15q-3 0 -8.5 0.5t-8.5 0.5q-10 0 -31 -1t-32 -1q-25 0 -29 13.5t-3 94.5v68q0 18 0.5 54.5t0.5 61.5
q0 11 -0.5 33t-0.5 32q0 32 1 57t1 43q0 4 -0.5 10t-0.5 10q0 3 0.5 5t2 3.5t2.5 3t3.5 2t4 1t4.5 0.5h4.5h5h4.5q5 0 16 -0.5t16 -0.5q8 0 24 0.5t24 0.5q24 0 16 -98l-1 -7q0 -41 0.5 -123t0.5 -123q0 -21 -0.5 -62.5t-0.5 -62.5z" />
    <glyph glyph-name="cent" unicode="&#xa2;" horiz-adv-x="583" 
d="M349 0h-65q-12 0 -12 12v66q-35 5 -68.5 18.5t-46.5 26.5q-24 14 -60 61q-1 3 -12.5 27t-18 50t-6.5 59q0 8 2 24t2 24q24 177 208 215v60q0 12 12 12h65q12 0 12 -12v-59q83 -12 153 -81q3 -5 3 -9q0 -6 -3 -9l-56 -59q-3 -4 -8 -4t-8 4q-52 48 -124 48
q-62 0 -100 -43.5t-38 -100.5q0 -63 37.5 -103t99.5 -40q77 0 130 51q3 3 8 3q6 0 9 -4l56 -59q3 -5 3 -10t-15 -20q-1 -1 -7 -7.5t-9.5 -9.5t-12 -10t-15.5 -11.5t-18.5 -10.5t-23 -10t-27.5 -8t-34 -6v-63q0 -12 -12 -12z" />
    <glyph glyph-name="sterling" unicode="&#xa3;" horiz-adv-x="690" 
d="M582 639q-36 -83 -48 -83q-4 0 -45.5 14.5t-71.5 14.5q-126 0 -126 -156v-45q2 -1 51 -1q14 0 44 2q35 0 82 2q46 1 53.5 -3t7.5 -29v-3v-3v-3.5v-3.5v-42q0 -2 0.5 -6.5t0.5 -6.5q0 -5 -2.5 -8.5t-5 -5t-8.5 -3t-7 -1.5q-30 2 -45 2q-20 0 -65 -0.5t-70 -0.5h-35v-19
t0.5 -43t0.5 -48q0 -7 -0.5 -22.5t-0.5 -23.5h293q3 0 5.5 -1.5t4 -5t2.5 -6.5t1 -9v-10v-11v-10q0 -12 1 -25t0.5 -17.5t-1 -10t-6.5 -6.5t-13 -1.5t-23 -0.5q-9 0 -46 -1.5t-44 -1.5q-16 0 -49 1.5t-50 1.5q-13 0 -40 -1t-42 -1q-6 0 -9 1q-2 0 -8 -0.5t-8 -0.5
q-6 0 -16 0.5t-16 0.5h-24h-34q-58 0 -68 1.5t-10 11.5l-1 90q0 12 12 12h63q0 12 -1 40t-1 41q0 9 1 28t1 29v18h-62q-5 0 -8 6.5t-4 19t-1.5 22.5t0 25.5t0.5 19.5q0 21 12 21h62q-2 138 36 215q41 62 80 75q54 28 134 28q44 0 85.5 -12t62 -25t20.5 -19q0 -5 -1 -7z" />
    <glyph glyph-name="yen" unicode="&#xa5;" horiz-adv-x="712" 
d="M146 218h147q0 19 -2 61q-2 2 -2 3h-143q-12 0 -12 12v62q0 12 12 12h94q-98 168 -151 246q-49 74 -49 83q0 8 30 6q11 1 94 1q9 0 23 -19q5 -7 26 -40.5t43 -66.5q16 -24 33 -52t36.5 -62t30.5 -53q4 7 30.5 50.5t40.5 66.5q46 79 104 164q8 12 17 12h23q60 0 71 -1
q30 2 30 -6q0 -14 -49 -83q-67 -99 -151 -246h102q12 0 12 -12v-62q0 -12 -12 -12h-151q-2 -2 -2 -3q-3 -32 -3 -61h156q12 0 12 -12v-63q0 -12 -12 -12h-155q1 -20 1 -61q0 -3 0.5 -15t0 -19t-1.5 -16t-5 -14t-10 -6q-32 0 -48 -1q-16 1 -53 1q-11 3 -11 70v61h-146
q-12 0 -12 12v63q0 12 12 12z" />
    <glyph glyph-name="brokenbar" unicode="&#xa6;" horiz-adv-x="234" 
d="M163 323q0 -6 -4.5 -10.5t-10.5 -4.5h-61q-6 0 -10 4.5t-3 10.5q0 233 -2 302q0 44 1 55q1 14 4 17t11 3h61q6 0 10.5 -4.5t4.5 -10.5v-7v-50q0 -15 -1 -45.5t-1 -45.5q0 -41 0.5 -107t0.5 -107zM161 -157q0 -6 -4.5 -10.5t-10.5 -4.5h-61q-6 0 -10 4.5t-3 10.5
q0 233 -2 302q0 44 1 55q1 14 4 17t11 3h61q6 0 10.5 -4.5t4.5 -10.5v-7v-50q0 -15 -0.5 -45.5t-0.5 -45.5v-214z" />
    <glyph glyph-name="section" unicode="&#xa7;" horiz-adv-x="639" 
d="M552 169q-11 -24 -25 -40q5 -5 15 -22q19 -37 27 -85q0 -20 -1 -30q-1 -6 -2.5 -17.5t-2.5 -19t-4 -17t-7 -16.5q-16 -36 -48 -60.5t-65.5 -35.5t-83.5 -20q-75 0 -123.5 10.5t-97.5 35.5q1 2 -13 6.5t-30.5 13.5t-20.5 22q0 1 1 3.5t1 3.5q4 7 12 19.5t13.5 22t12 19.5
t11.5 15t8 5q6 0 17 -7.5t17 -8.5l4 -2q89 -39 144 -39q131 0 131 86q0 13 -3.5 24.5t-13 21.5t-16 16t-22.5 14.5t-22 11t-25.5 10.5t-22.5 9q-9 0 -57 23t-68 34q-1 1 -10 8.5t-12 10.5t-12 11.5t-13 14.5t-11.5 16t-11.5 20t-8 22t-6 26.5t-2 29.5q0 22 6 44q16 58 38 82
q-44 50 -44 121q0 21 6 44l3 11q3 11 6 19.5t8.5 20.5t13.5 22.5t18 18.5q49 39 90 50t92 11q45 -3 114 -19q1 0 13.5 -4t26 -8.5t28 -10.5t24 -14t9.5 -15q0 -2 -2 -6l-19 -48q-16 -35 -29 -35q-7 0 -23 8.5t-24 8.5q-214 56 -228 -43q0 -32 7.5 -49.5t29 -29t47 -20
t72 -30t93.5 -50.5l4 -2q3 -2 10.5 -8t15.5 -12.5t16.5 -16.5t13.5 -20q19 -37 27 -85q0 -20 -1 -30q-1 -6 -2.5 -17.5t-2.5 -19t-4 -17t-7 -16.5zM317 365q-10 0 -60 24q-20 -15 -24 -44q0 -29 5.5 -45.5t22.5 -27.5t35 -18t54.5 -21.5t69.5 -31.5q22 22 22 57
q0 13 -3.5 24.5t-13 21.5t-16 16t-22.5 14.5t-22 11t-25.5 10.5t-22.5 9z" />
    <glyph glyph-name="dieresis" unicode="&#xa8;" horiz-adv-x="327" 
d="M128 845q0 -25 -19 -45.5t-45 -20.5q-13 0 -20 4q-18 4 -31 23t-13 39q0 25 18 44.5t46 19.5q25 0 44.5 -19.5t19.5 -44.5zM327 845q0 -25 -19 -45.5t-45 -20.5q-13 0 -20 4q-18 4 -31 23t-13 39q0 25 18 44.5t46 19.5q25 0 44.5 -19.5t19.5 -44.5z" />
    <glyph glyph-name="copyright" unicode="&#xa9;" horiz-adv-x="833" 
d="M773 389q-2 -12 -2 -37q-5 -28 -11 -53t-16 -46t-17 -37t-21.5 -32t-21 -25t-24 -22.5t-22 -17.5t-24 -17t-21.5 -15q-40 -19 -72.5 -28.5t-48 -11.5t-55.5 -5q-13 0 -73 5q-70 24 -109 46.5t-82 60.5q-54 77 -71 123.5t-22 111.5q6 71 32 143q32 59 69.5 99.5t79 61
t70 29t69.5 15.5q96 0 158 -20.5t115 -67.5q31 -28 54 -59.5t34 -53.5t18.5 -56t9 -46t4.5 -45zM706 389q0 6 -0.5 17.5t-0.5 17.5q-11 61 -38 108.5t-58 74t-69 43.5t-67 22.5t-56 5.5q-51 -4 -103 -18q-185 -92 -185 -271q5 -58 7 -69q12 -32 26.5 -59.5t27.5 -47.5
t31 -36.5t31.5 -27.5t33 -19.5t30.5 -13t30.5 -8t26.5 -4t24.5 -2t19.5 -1.5q68 6 121.5 29.5t84 54.5t50.5 70t26.5 71.5t6.5 62.5zM422 271q45 3 87 31q24 24 28 24l6 -2l11 -11q12 -11 23 -24t11 -19q0 -8 -14 -20q-65 -67 -152 -67q-1 0 -7 0.5t-11 0.5t-14.5 1.5
t-18 3.5t-20 5.5t-21.5 8t-21.5 12t-22 16.5t-21 21.5t-19.5 26.5q-12 22 -18.5 41.5t-8 30.5t-4.5 35q0 25 9 61q32 82 91 114q51 26 107 28q42 0 71.5 -12t66.5 -38q6 -5 17 -17t11 -20q0 -4 -3 -7q-46 -46 -52 -46q-5 0 -6 3q-41 51 -106 53q-39 -3 -65.5 -19t-36 -38.5
t-12 -35.5t-2.5 -25q-1 -47 34 -82t83 -34z" />
    <glyph glyph-name="ordfeminine" unicode="&#xaa;" horiz-adv-x="460" 
d="M40 568q0 6 3 18t3 19q38 104 135 104q65 0 103 -40v30q0 12 12 12h58q12 0 12 -12q0 -17 0.5 -53.5t0.5 -54.5q0 -7 -0.5 -21t-0.5 -21q0 -12 1.5 -34.5t1.5 -33.5q0 -80 -15 -80h-58q-12 0 -12 12v30q-38 -40 -103 -40q-20 0 -31 3q-50 11 -80 49t-30 104v9zM134 600
q-7 -7 -11 -30t0 -33q6 -26 27.5 -43t50.5 -17q33 0 56 22t24 57q-1 36 -25 57t-56 21h-10q-3 0 -12.5 -2.5t-23 -11t-20.5 -20.5z" />
    <glyph glyph-name="guillemotleft" unicode="&#xab;" horiz-adv-x="599" 
d="M298 0h-25q-7 0 -21 -0.5t-22 -0.5q-21 0 -37 4q-4 1 -31.5 43t-34.5 62q-10 16 -20.5 31.5t-11.5 17.5q-5 8 -5 14q0 8 6 15q13 19 30 53q18 28 35 56.5t23.5 38.5t14.5 14q8 5 48 5q59 0 59 -8q0 -1 -0.5 -2t-2 -2.5t-4.5 -7t-7 -13.5q-18 -24 -40 -61.5t-35.5 -62
t-15.5 -23.5q5 0 76 -121q3 -3 4 -7q24 -37 24 -38q0 -7 -7 -7zM501 0h-25q-7 0 -21 -0.5t-22 -0.5q-21 0 -37 4q-4 1 -31.5 43t-34.5 62q-10 16 -20.5 31.5t-11.5 17.5q-5 8 -5 14q0 8 6 15q13 19 30 53q18 28 35 56.5t23.5 38.5t14.5 14q8 5 48 5q59 0 59 -8q0 -1 -0.5 -2
t-2 -2.5t-4.5 -7t-7 -13.5q-18 -24 -40 -61.5t-35.5 -62t-15.5 -23.5q5 0 76 -121q2 -3 4 -7q24 -37 24 -38q0 -7 -7 -7z" />
    <glyph glyph-name="logicalnot" unicode="&#xac;" horiz-adv-x="690" 
d="M547 67h-13t-28.5 -0.5t-29.5 -0.5h-14h-13h-11.5h-10t-8 0.5t-7 1.5t-4.5 2.5t-3 3.5t-1 5q0 15 0.5 30.5t0.5 23.5v15.5t-0.5 11.5t-2.5 6t-4.5 3t-7.5 1h-10t-14.5 -0.5t-18.5 -0.5q-11 0 -45.5 -0.5t-44.5 -0.5q-16 0 -46 0.5t-38 0.5q-5 0 -8.5 6.5t-4 19t-0.5 23
t0.5 25.5t0.5 21q0 8 0.5 12t0.5 7t3.5 3.5t5.5 1t9.5 0t12.5 -0.5q31 0 96 -0.5t91 -0.5h150q23 0 27 -11t4 -57v-21q0 -121 -5 -128q-3 -2 -9 -2z" />
    <glyph glyph-name="registered" unicode="&#xae;" horiz-adv-x="833" 
d="M773 389q-2 -12 -2 -37q-5 -28 -11 -53t-16 -46t-17 -37t-21.5 -32t-21 -25t-24 -22.5t-22 -17.5t-24 -17t-21.5 -15q-40 -19 -72.5 -28.5t-48 -11.5t-55.5 -5q-13 0 -73 5q-70 24 -109 46.5t-82 60.5q-54 77 -71 123.5t-22 111.5q6 71 32 143q32 59 69.5 99.5t79 61
t70 29t69.5 15.5q96 0 158 -20.5t115 -67.5q31 -28 54 -59.5t34 -53.5t18.5 -56t9 -46t4.5 -45zM706 389q0 6 -0.5 17.5t-0.5 17.5q-11 61 -38 108.5t-58 74t-69 43.5t-67 22.5t-56 5.5q-51 -4 -103 -18q-185 -92 -185 -271q5 -58 7 -69q12 -32 26.5 -59.5t27.5 -47.5
t31 -36.5t31.5 -27.5t33 -19.5t30.5 -13t30.5 -8t26.5 -4t24.5 -2t19.5 -1.5q68 6 121.5 29.5t84 54.5t50.5 70t26.5 71.5t6.5 62.5zM473 237l-83 92h-5h-16l-2 -20l2 -20q0 -7 -0.5 -20.5t-0.5 -20.5q0 -6 0.5 -17t0.5 -16q0 -8 -23 -8q-8 1 -17.5 1t-14 0.5t-10.5 1
t-8 1.5t-4.5 3t-3 5t-0.5 8l1 19q0 4 -0.5 10t-0.5 9l2 20q0 11 -0.5 42t-0.5 55q0 12 -1 38t-1 39q1 38 1 116q0 19 9 19q2 0 5.5 -0.5t5.5 -0.5q35 0 46 1h23l20 1h11t17 -0.5t17 -0.5h5q22 0 35 -6q29 -8 48 -22t27.5 -34.5t11.5 -34t5 -35.5q0 -43 -22.5 -75.5
t-64.5 -47.5q13 -14 41 -44.5t41 -44.5q1 -1 9.5 -10t15 -17.5t6.5 -11.5q0 -4 -16 -4h-76q-5 0 -11 5t-13.5 13.5t-10.5 11.5zM491 462q-1 18 -7 30.5t-12 18.5t-20 9t-22.5 3.5t-29.5 0t-31 -0.5v-20q-1 -13 -1 -84q0 -3 0.5 -9.5t0.5 -9.5l41 -2q78 0 81 64z" />
    <glyph glyph-name="macron" unicode="&#xaf;" horiz-adv-x="252" 
d="M240 782h-48q-14 -1 -41 -1t-40 1h-99q-12 0 -12 17v52q0 10 3.5 13.5t13.5 3.5h6q19 1 58 1h9q13 -1 37 -1q26 0 29 1h31q3 0 8.5 -0.5t8.5 -0.5h10q34 0 37 -4q1 -3 1 -8v-62q0 -12 -12 -12z" />
    <glyph glyph-name="degree" unicode="&#xb0;" horiz-adv-x="466" 
d="M376 588v-12q-4 -68 -51 -112t-117 -44q-62 0 -96 27q-37 24 -54.5 56.5t-17.5 84.5q0 69 49.5 116t118.5 47q70 0 119 -44t49 -119zM208 507h11q8 1 17 3.5t22.5 10t22 25t8.5 42.5q0 31 -20 54t-63 23q-32 0 -55 -22t-23 -53q0 -83 80 -83z" />
    <glyph glyph-name="plusminus" unicode="&#xb1;" horiz-adv-x="623" 
d="M356 203h-87q-13 0 -14.5 8.5t-1.5 66.5q0 7 1 34t0 43v8h-64q-77 -1 -89 3.5t-10 33.5q1 17 1 28q0 41 5 48q6 4 157 4q0 12 0.5 36.5t0.5 36.5q0 10 -0.5 23t-0.5 20v15.5t1 13t2.5 9t4.5 6t7 1.5h87q12 0 13.5 -7.5t1.5 -63.5v-90h145q4 0 7 -1.5t5 -5t3 -7.5t1 -9.5
v-9.5v-10v-9q0 -8 -0.5 -25t-0.5 -25q0 -11 -16.5 -13.5t-67.5 -2.5h-10q-13 0 -38 0.5t-28 0.5q-1 -4 -0.5 -12t1.5 -24.5t1 -25.5v-20v-33t-1.5 -22.5t-5.5 -17.5t-10 -5zM100 114h413q4 0 7 -1.5t5 -5t3 -7.5t1 -9.5v-9.5v-10v-9q0 -8 -0.5 -24t-0.5 -24v-2v-3.5t-1 -2.5
t-4.5 -2t-8.5 -2q-14 -2 -151 -2l-133 1h-35q-84 -1 -95 6q-8 5 -6 32q1 17 1 27q0 41 5 48z" />
    <glyph glyph-name="twosuperior" unicode="&#xb2;" horiz-adv-x="387" 
d="M290 355h-235q-6 0 -6 6q0 7 4 11q27 25 95 95q6 7 16.5 20t16.5 20q3 2 8 9.5t8 10.5q23 33 23 71q0 21 -15.5 36t-45.5 15q-22 0 -38.5 -11.5t-24.5 -22.5t-11 -11q-2 1 -11 6q-34 17 -34 28l4 8q14 28 47.5 47t69.5 19q61 0 93.5 -32t32.5 -79q0 -55 -31 -102
q-2 -2 -2 -3q-21 -31 -58 -68l-14 -16h108q7 0 7 -8v-42q0 -7 -7 -7z" />
    <glyph glyph-name="threesuperior" unicode="&#xb3;" horiz-adv-x="365" 
d="M208 449q0 32 -22 41t-74 9h-23q-3 0 -4.5 2t-2 6t-0.5 7.5v9.5v9q0 15 2 20q3 2 14 2.5t27 0.5h23q21 0 41 13t20 36q0 49 -68 49q-16 0 -22 -2q-13 -1 -31.5 -9t-19.5 -8q-4 0 -6 4l-19 33q-1 1 -1 4q0 10 35 22.5t66 12.5q52 0 92 -23.5t40 -73.5v-8q0 -15 -12.5 -42
t-37.5 -35q50 -27 50 -76q0 -55 -37.5 -80.5t-94.5 -25.5q-36 0 -69.5 12t-33.5 22v3l1 1l18 34q3 3 6 3q2 0 11.5 -4.5t25 -9t31.5 -4.5q28 0 34 3q16 3 28.5 14.5t12.5 27.5z" />
    <glyph glyph-name="acute" unicode="&#xb4;" horiz-adv-x="209" 
d="M58 777q-12 -7 -22 3l-31 38q-10 11 1 22q3 2 6 5q8 6 15 13q8 6 26.5 24t29.5 24q10 10 45 38l5 4l7 6q11 11 20 -2l46 -55q8 -12 -3 -21q-20 -13 -57.5 -39t-55.5 -38z" />
    <glyph glyph-name="paragraph" unicode="&#xb6;" horiz-adv-x="588" 
d="M90 408q0 77 61 123q43 32 97 32h238q10 0 11 -5.5t1 -57.5q0 -10 0.5 -29t0.5 -29q0 -12 -0.5 -35.5t-0.5 -35.5q0 -6 1 -9q0 -30 -1 -104t-1 -112q0 -12 0.5 -37t0.5 -38q-9 -69 -12 -71h-58q-10 0 -12 19t-1 89t1 120q0 17 1 53t1 56q0 22 -1 68.5t-1 69.5q0 5 -86 5
v-88l1 -65l-1 -77l-1 -66l1 -172q0 -12 -12 -12h-58q-10 0 -11.5 9t-1.5 68v53l1 118q-79 0 -123 56q-35 44 -35 104z" />
    <glyph glyph-name="periodcentered" unicode="&#xb7;" horiz-adv-x="318" 
d="M227 199q-9 -18 -15 -27.5t-20 -18.5t-33 -9q-14 0 -22 4q-19 4 -33 24.5t-14 42.5q0 26 19.5 47.5t49.5 21.5q27 0 48 -21t21 -48q0 -10 -1 -16z" />
    <glyph glyph-name="cedilla" unicode="&#xb8;" horiz-adv-x="233" 
d="M38 -103q-2 1 -0.5 9t1.5 9l25 99q0 12 12 12h38q12 0 12 -12l-13 -56q53 -2 86.5 -28.5t33.5 -73.5v-11l-2 -10q-7 -37 -27 -55l-7 -6q-11 -10 -33 -19q-12 -4 -18 -5q-32 -7 -69 -2q-13 1 -25 6q-13 3 -28 10q-2 0 -11 5q-25 7 4 55q1 3 2 4l7 7q5 2 9 -1
q32 -15 68 -16q9 0 13 1q4 0 10 2q14 6 20 18l3 8q1 3 1 9t-3 12q-17 31 -92 26q-15 0 -17 3z" />
    <glyph glyph-name="onesuperior" unicode="&#xb9;" horiz-adv-x="283" 
d="M183 364h-47q-7 0 -7 8v23t-0.5 56t-0.5 69q0 84 1 101l-59 -30q-1 -1 -3 -1q-4 0 -7 4l-19 38l-1 2v3q0 3 75 44q7 5 34 19.5t33 14.5q10 0 10 -28q0 -20 -0.5 -67.5t-0.5 -78.5v-136v-5t0.5 -7.5t0.5 -7.5t-0.5 -7.5t-1.5 -6.5t-3 -5t-4 -2z" />
    <glyph glyph-name="ordmasculine" unicode="&#xba;" horiz-adv-x="466" 
d="M376 555v-12q-4 -68 -51 -112t-117 -44q-62 0 -96 27q-37 24 -54.5 56.5t-17.5 84.5q0 69 49.5 116t118.5 47q70 0 119 -44t49 -119zM208 474h11q8 1 17 3.5t22.5 10t22 25t8.5 42.5q0 31 -20 54t-63 23q-32 0 -55 -22t-23 -53q0 -83 80 -83zM347 251h-206q-4 0 -21 -0.5
t-29 -1t-26 0.5q-6 1 -8.5 2.5t-2.5 3.5v6v4v46q0 11 7 13t39 2q10 0 28 -1t28 -1q132 0 160 2q39 0 43 -5q3 -4 3 -10v-46q0 -6 -4.5 -10.5t-10.5 -4.5z" />
    <glyph glyph-name="guillemotright" unicode="&#xbb;" horiz-adv-x="602" 
d="M98 0q-7 0 -7 7q0 1 24 38q1 4 4 7q71 121 76 121q-2 -1 -15.5 23.5t-35.5 62t-40 61.5q-3 6 -5.5 10t-3.5 6t-2.5 3.5t-2 2.5t-0.5 1.5v1.5q0 8 59 8q40 0 48 -5q8 -4 14.5 -14t23.5 -38.5t35 -56.5q17 -34 30 -53q6 -7 6 -15q0 -6 -5 -14q-1 -2 -11.5 -17.5
t-20.5 -31.5q-7 -20 -34.5 -62t-31.5 -43q-16 -4 -37 -4q-8 0 -22 0.5t-21 0.5h-25zM304 0q-7 0 -7 7q0 1 24 38q1 4 4 7q71 121 76 121q-2 -1 -15.5 23.5t-35.5 62t-40 61.5q-3 6 -5.5 10t-3.5 6t-2.5 3.5t-2 2.5t-0.5 1.5v1.5q0 8 59 8q40 0 48 -5q8 -4 14.5 -14
t23.5 -38.5t35 -56.5q17 -34 30 -53q6 -7 6 -15q0 -6 -5 -14q-1 -2 -11.5 -17.5t-20.5 -31.5q-7 -20 -34.5 -62t-31.5 -43q-16 -4 -37 -4q-8 0 -22 0.5t-21 0.5h-25z" />
    <glyph glyph-name="onequarter" unicode="&#xbc;" horiz-adv-x="730" 
d="M229 0h-59q-8 0 -8 7q0 1 1 3q6 12 18 46q5 16 19 46.5t19 45.5q29 61 53 130q4 11 14 32.5t15 36.5q5 10 39 99.5t69 160.5q25 69 31.5 81t18.5 12h56q8 0 8 -8q0 -2 -1 -3q1 0 -8 -20.5t-22.5 -52.5t-20.5 -52q-2 -5 -28.5 -68.5t-39.5 -102.5q-12 -21 -52 -123
q-12 -34 -40.5 -100t-40.5 -99l-25 -60q-3 -11 -16 -11zM605 -1h-47q-2 0 -3.5 1t-2.5 3.5t-1 5v7v8.5v10v10v30h-91q-36 0 -53 2q-5 0 -5 7l5 15q5 14 13 38.5t14 45.5q9 21 24 70t21 65q10 30 15 33q9 1 53 1q7 0 7 -5v-1q-9 -26 -14 -46q-4 -8 -10.5 -31.5t-11.5 -34.5
q-8 -28 -14 -41q-8 -34 -19 -58h66v66q0 7 7 7h47q6 0 7 -4.5t1 -22.5v-45h39q8 0 8 -7v-47q0 -7 -8 -7h-39q0 -3 1 -25t-1 -36t-8 -14zM213 364h-47q-7 0 -7 8v23t-0.5 56t-0.5 69q0 84 1 101l-59 -30q-1 -1 -3 -1q-4 0 -7 4l-19 38l-1 2v3q0 3 75 44q7 5 34 19.5t33 14.5
q10 0 10 -28q0 -20 -0.5 -67.5t-0.5 -78.5v-136v-5t0.5 -7.5t0.5 -7.5t-0.5 -7.5t-1.5 -6.5t-3 -5t-4 -2z" />
    <glyph glyph-name="onehalf" unicode="&#xbd;" horiz-adv-x="749" 
d="M229 0h-59q-8 0 -8 7q0 1 1 3q6 12 18 46q5 16 19 46.5t19 45.5q29 61 53 130q4 11 14 32.5t15 36.5q5 10 39 99.5t69 160.5q25 69 31.5 81t18.5 12h56q8 0 8 -8q0 -2 -1 -3q1 0 -8 -20.5t-22.5 -52.5t-20.5 -52q-2 -5 -28.5 -68.5t-39.5 -102.5q-12 -21 -52 -123
q-12 -34 -40.5 -100t-40.5 -99l-25 -60q-3 -11 -16 -11zM213 364h-47q-7 0 -7 8v23t-0.5 56t-0.5 69q0 84 1 101l-59 -30q-1 -1 -3 -1q-4 0 -7 4l-19 38l-1 2v3q0 3 75 44q7 5 34 19.5t33 14.5q10 0 10 -28q0 -20 -0.5 -67.5t-0.5 -78.5v-136v-5t0.5 -7.5t0.5 -7.5
t-0.5 -7.5t-1.5 -6.5t-3 -5t-4 -2zM672 0h-235q-6 0 -6 6q0 7 4 11q27 25 95 95q6 6 16.5 20t16.5 20q3 2 8 9.5t8 10.5q23 33 23 71q0 21 -15.5 36t-45.5 15q-22 0 -38.5 -11t-24.5 -22.5t-11 -11.5q-2 1 -11 6q-34 17 -34 28l4 8q14 28 47.5 47t69.5 19q61 0 93.5 -32
t32.5 -79q0 -55 -31 -102q-2 -2 -2 -3q-21 -31 -58 -68l-14 -16h108q7 0 7 -8v-42q0 -7 -7 -7z" />
    <glyph glyph-name="threequarters" unicode="&#xbe;" horiz-adv-x="776" 
d="M275 0h-59q-8 0 -8 7q0 1 1 3q6 12 18 46q5 16 19 46.5t19 45.5q29 61 53 130q4 11 14 32.5t15 36.5q5 10 39 99.5t69 160.5q25 69 31.5 81t18.5 12h56q8 0 8 -8q0 -2 -1 -3q1 0 -8 -20.5t-22.5 -52.5t-20.5 -52q-2 -5 -28.5 -68.5t-39.5 -102.5q-12 -21 -52 -123
q-12 -34 -40.5 -100t-40.5 -99l-25 -60q-3 -11 -16 -11zM651 -1h-47q-2 0 -3.5 1t-2.5 3.5t-1 5v7v8.5v10v10v30h-91q-36 0 -53 2q-5 0 -5 7l5 15q5 14 13 38.5t14 45.5q9 21 24 70t21 65q10 30 15 33q9 1 53 1q7 0 7 -5v-1q-9 -26 -14 -46q-4 -8 -10.5 -31.5t-11.5 -34.5
q-8 -28 -14 -41q-8 -34 -19 -58h66v66q0 7 7 7h47q6 0 7 -4.5t1 -22.5v-45h39q8 0 8 -7v-47q0 -7 -8 -7h-39q0 -3 1 -25t-1 -36t-8 -14zM238 447q0 32 -22 41t-74 9h-23q-3 0 -4.5 2t-2 6t-0.5 7.5v9.5v9q0 15 2 20q3 2 14 2.5t27 0.5h23q21 0 41 13t20 36q0 49 -68 49
q-16 0 -22 -2q-13 -1 -31.5 -9t-19.5 -8q-4 0 -6 4l-19 33q-1 1 -1 4q0 10 35 22.5t66 12.5q52 0 92 -23.5t40 -73.5v-8q0 -15 -12.5 -42t-37.5 -35q50 -27 50 -76q0 -55 -37.5 -80.5t-94.5 -25.5q-36 0 -69.5 12t-33.5 22v3l1 1l18 34q3 3 6 3q2 0 11.5 -4.5t25 -9
t31.5 -4.5q28 0 34 3q16 3 28.5 14.5t12.5 27.5z" />
    <glyph glyph-name="questiondown" unicode="&#xbf;" horiz-adv-x="575" 
d="M70 21q0 8 0.5 16t0.5 11q9 37 20 58l6 9q12 20 28 35.5t42.5 36t42.5 35.5q41 48 41 93v20q0 6 4.5 10.5t10.5 4.5h83q6 0 10.5 -4.5t4.5 -10.5v-35q0 -50 -18 -88.5t-40.5 -57t-50 -41.5t-38.5 -40l-5 -8q-12 -18 -12 -38q0 -26 20 -49l7 -6q25 -22 66 -22q16 0 31 3
l12 3q21 6 47.5 19.5t44.5 24t22 10.5q8 0 11 -7l41 -63q3 -4 3 -9q0 -8 -6 -14q-82 -70 -178 -82h-10q-10 -1 -32 -1h-10q-44 2 -61 8l-36 13q-102 50 -102 156v10zM378 476q-14 -28 -29 -40.5t-48 -12.5q-24 0 -42 21.5t-18 47.5t19.5 46t49.5 20q28 0 48.5 -18t20.5 -48
q0 -10 -1 -16z" />
    <glyph glyph-name="Agrave" unicode="&#xc0;" horiz-adv-x="777" 
d="M594 9q0 8 -7 23.5t-13 27.5l-6 11l-29 60h-303l-28 -61q-4 -5 -11.5 -25t-17 -33t-24.5 -13q-3 0 -15 1h-12l-36 -1l-4 -1h-10.5h-12.5q-15 0 -15 11q0 7 10 24.5t25.5 47.5t25.5 61l32 66l32 65l30 70l32 68l31 66l17 32l14 34l17 33l11 26l27 58q25 52 35 52
q6 0 14 -9.5t16 -25.5t14.5 -30.5t13.5 -31.5t10 -23q54 -114 51 -116l32 -66l32 -68l14 -36q8 -16 21.5 -45.5t19.5 -40.5q1 -3 6.5 -14t10.5 -22l5 -10l34 -65l30 -67q-2 1 0 -2q14 -23 14 -30q0 -4 -4 -6.5t-13 -3.5t-16 -1t-19.5 0.5t-17.5 0.5h-15q-4 0 -12 -1t-12 -1
q-17 0 -24 11zM387 470l-15 -33l-15 -32l-29 -66l-30 -67l-13 -32h206l-16 32l-28 67l-30 66zM418 777q-13 9 -32 22q-18 12 -55.5 38t-57.5 39q-11 9 -3 21l46 55q9 13 20 2q3 -2 7 -6l5 -4q35 -28 45 -38q11 -6 29.5 -24t26.5 -24q7 -7 15 -13l6 -5q11 -11 1 -22l-31 -38
q-10 -10 -22 -3z" />
    <glyph glyph-name="Aacute" unicode="&#xc1;" horiz-adv-x="777" 
d="M594 9q0 8 -7 23.5t-13 27.5l-6 11l-29 60h-303l-28 -61q-4 -5 -11.5 -25t-17 -33t-24.5 -13q-3 0 -15 1h-12l-36 -1l-4 -1h-10.5h-12.5q-15 0 -15 11q0 7 10 24.5t25.5 47.5t25.5 61l32 66l32 65l30 70l32 68l31 66l17 32l14 34l17 33l11 26l27 58q25 52 35 52
q6 0 14 -9.5t16 -25.5t14.5 -30.5t13.5 -31.5t10 -23q54 -114 51 -116l32 -66l32 -68l14 -36q8 -16 21.5 -45.5t19.5 -40.5q1 -3 6.5 -14t10.5 -22l5 -10l34 -65l30 -67q-2 1 0 -2q14 -23 14 -30q0 -4 -4 -6.5t-13 -3.5t-16 -1t-19.5 0.5t-17.5 0.5h-15q-4 0 -12 -1t-12 -1
q-17 0 -24 11zM387 470l-15 -33l-15 -32l-29 -66l-30 -67l-13 -32h206l-16 32l-28 67l-30 66zM363 777q-12 -7 -22 3l-31 38q-10 11 1 22q3 2 6 5q8 6 15 13q8 6 26.5 24t29.5 24q10 10 45 38l5 4l7 6q11 11 20 -2l46 -55q8 -12 -3 -21q-20 -13 -57.5 -39t-55.5 -38z" />
    <glyph glyph-name="Acircumflex" unicode="&#xc2;" horiz-adv-x="777" 
d="M594 9q0 8 -7 23.5t-13 27.5l-6 11l-29 60h-303l-28 -61q-4 -5 -11.5 -25t-17 -33t-24.5 -13q-3 0 -15 1h-12l-36 -1l-4 -1h-10.5h-12.5q-15 0 -15 11q0 7 10 24.5t25.5 47.5t25.5 61l32 66l32 65l30 70l32 68l31 66l17 32l14 34l17 33l11 26l27 58q25 52 35 52
q6 0 14 -9.5t16 -25.5t14.5 -30.5t13.5 -31.5t10 -23q54 -114 51 -116l32 -66l32 -68l14 -36q8 -16 21.5 -45.5t19.5 -40.5q1 -3 6.5 -14t10.5 -22l5 -10l34 -65l30 -67q-2 1 0 -2q14 -23 14 -30q0 -4 -4 -6.5t-13 -3.5t-16 -1t-19.5 0.5t-17.5 0.5h-15q-4 0 -12 -1t-12 -1
q-17 0 -24 11zM387 470l-15 -33l-15 -32l-29 -66l-30 -67l-13 -32h206l-16 32l-28 67l-30 66zM541 785h-86q-12 0 -21 12l-48 58l-48 -58q-9 -10 -15 -12q-4 -1 -41 -1q-53 0 -53 9q0 5 13 20t38 43.5t43 52.5q1 1 15.5 18.5t27.5 29.5t20 12q9 0 17.5 -6t18.5 -18.5
t12 -14.5q8 -9 27.5 -33.5t31.5 -36.5q54 -64 54 -69q0 -6 -6 -6z" />
    <glyph glyph-name="Atilde" unicode="&#xc3;" horiz-adv-x="777" 
d="M594 9q0 8 -7 23.5t-13 27.5l-6 11l-29 60h-303l-28 -61q-4 -5 -11.5 -25t-17 -33t-24.5 -13q-3 0 -15 1h-12l-36 -1l-4 -1h-10.5h-12.5q-15 0 -15 11q0 7 10 24.5t25.5 47.5t25.5 61l32 66l32 65l30 70l32 68l31 66l17 32l14 34l17 33l11 26l27 58q25 52 35 52
q6 0 14 -9.5t16 -25.5t14.5 -30.5t13.5 -31.5t10 -23q54 -114 51 -116l32 -66l32 -68l14 -36q8 -16 21.5 -45.5t19.5 -40.5q1 -3 6.5 -14t10.5 -22l5 -10l34 -65l30 -67q-2 1 0 -2q14 -23 14 -30q0 -4 -4 -6.5t-13 -3.5t-16 -1t-19.5 0.5t-17.5 0.5h-15q-4 0 -12 -1t-12 -1
q-17 0 -24 11zM387 470l-15 -33l-15 -32l-29 -66l-30 -67l-13 -32h206l-16 32l-28 67l-30 66zM514 902h62q5 0 9 -4t3 -9q-10 -39 -29 -64l-5 -6q-16 -18 -29 -26l-7 -4q-26 -13 -72 -13h-4q-28 2 -52 19l-6 5q-5 3 -22 14t-28 15q-1 0 -3.5 0.5t-3.5 0.5q-29 0 -40 -24
q-3 -2 -4 -7q0 -1 -2 -3.5t-3 -4.5t-1 -3q-3 -7 -14 -7h-58q-3 0 -5 1q-6 4 -6.5 10.5t2.5 15.5t3 13q2 2 2 5l2 4q21 38 28 45q1 3 6 5q12 11 32 19q1 1 2 1t1.5 0.5t1.5 0.5l25 6q3 0 5 1q3 0 7 0.5t6 0.5q4 0 7 1q32 1 70 -22l7 -4q33 -24 47 -26q37 -5 50 31q4 13 16 13
z" />
    <glyph glyph-name="Adieresis" unicode="&#xc4;" horiz-adv-x="777" 
d="M594 9q0 8 -7 23.5t-13 27.5l-6 11l-29 60h-303l-28 -61q-4 -5 -11.5 -25t-17 -33t-24.5 -13q-3 0 -15 1h-12l-36 -1l-4 -1h-10.5h-12.5q-15 0 -15 11q0 7 10 24.5t25.5 47.5t25.5 61l32 66l32 65l30 70l32 68l31 66l17 32l14 34l17 33l11 26l27 58q25 52 35 52
q6 0 14 -9.5t16 -25.5t14.5 -30.5t13.5 -31.5t10 -23q54 -114 51 -116l32 -66l32 -68l14 -36q8 -16 21.5 -45.5t19.5 -40.5q1 -3 6.5 -14t10.5 -22l5 -10l34 -65l30 -67q-2 1 0 -2q14 -23 14 -30q0 -4 -4 -6.5t-13 -3.5t-16 -1t-19.5 0.5t-17.5 0.5h-15q-4 0 -12 -1t-12 -1
q-17 0 -24 11zM387 470l-15 -33l-15 -32l-29 -66l-30 -67l-13 -32h206l-16 32l-28 67l-30 66zM353 845q0 -25 -19 -45.5t-45 -20.5q-13 0 -20 4q-18 4 -31 23t-13 39q0 25 18 44.5t46 19.5q25 0 44.5 -19.5t19.5 -44.5zM552 845q0 -25 -19 -45.5t-45 -20.5q-13 0 -20 4
q-18 4 -31 23t-13 39q0 25 18 44.5t46 19.5q25 0 44.5 -19.5t19.5 -44.5z" />
    <glyph glyph-name="Aring" unicode="&#xc5;" horiz-adv-x="777" 
d="M500 815q0 -44 -30.5 -73t-72.5 -34q9 -8 20.5 -29.5t24.5 -52t15 -34.5q54 -114 51 -116l32 -66l32 -68l14 -36q8 -16 21.5 -45.5t19.5 -40.5q1 -3 6.5 -14t10.5 -22l5 -10l34 -65l30 -67q-2 1 0 -2q14 -23 14 -30q0 -4 -4 -6.5t-13 -3.5t-16 -1t-19.5 0.5t-17.5 0.5
h-15q-4 0 -12 -1t-12 -1q-17 0 -24 11q0 8 -7 23.5t-13 27.5l-6 11l-29 60h-303l-28 -61q-4 -5 -11.5 -25t-17 -33t-24.5 -13q-3 0 -15 1h-12l-36 -1l-4 -1h-10.5h-12.5q-15 0 -15 11q0 7 10 24.5t25.5 47.5t25.5 61l32 66l32 65l30 70l32 68l31 66l17 32l14 34l17 33l11 26
l27 58q22 43 27 48q-10 0 -46 12q-28 9 -43.5 36t-15.5 57q0 52 32.5 82t79.5 30q53 0 81.5 -32t30.5 -78zM387 470l-15 -33l-15 -32l-29 -66l-30 -67l-13 -32h206l-16 32l-28 67l-30 66zM433 817q-6 44 -45 44q-24 0 -35 -13.5t-11 -32.5q5 -36 39 -44q24 0 38 12t14 34z
" />
    <glyph glyph-name="AE" unicode="&#xc6;" horiz-adv-x="939" 
d="M390 15q0 23 -0.5 39.5t-0.5 51.5v25h-153l-28 -61q-4 -5 -11.5 -25t-17 -33t-24.5 -13q-3 0 -15 1h-12l-36 -1l-4 -1h-10.5h-12.5q-15 0 -15 11q0 7 10 24.5t25.5 47.5t25.5 61l32 66l32 65l30 70l32 68l31 66l17 32l14 34l17 33l11 26l27 58l17 35q4 6 12 8h27
q20 0 60 1t61 1q34 -3 90 -3q17 0 52 1.5t53 1.5q59 0 106 -4q3 0 9.5 0.5t9.5 0.5q17 0 17 -37q0 -7 -0.5 -19t-0.5 -19q0 -4 0.5 -12t0.5 -12q0 -15 -15 -15q-119 0 -134 1q-26 0 -81.5 1t-86.5 1q-7 0 -19 -0.5t-19 -0.5q0 -6 0.5 -20t0.5 -20q0 -18 -0.5 -62t-0.5 -77
q22 4 80.5 1.5t83.5 -0.5q4 0 15 0.5t18.5 0.5t17 -1t14.5 -4.5t6 -10.5q0 -5 -0.5 -18t-0.5 -20v-10q0 -2 0.5 -12.5t0 -16t-1.5 -13.5t-4 -11.5t-8 -3.5q-4 0 -12 0.5t-11 0.5q-25 -2 -162 -2l-7 1h-16.5h-12.5q1 -14 0 -86.5t-1 -84.5q0 -8 12 -8q9 0 115.5 2.5
t116.5 -1.5l63 1q46 -4 47 -17q0 -11 -0.5 -30.5t-0.5 -29.5q0 -4 0.5 -11.5t0.5 -11.5q0 -15 -14 -15q-5 0 -20 1t-33 1q-49 0 -73 -3q-11 2 -33 0.5t-33 0.5h-162q-33 0 -35 -2q-2 0 -14 -0.5t-20 -0.5t-18 1.5t-15.5 5.5t-5.5 11zM390 387q0 13 -0.5 39t-0.5 39l-2 5
l-15 -33l-15 -32l-29 -66l-30 -67l-13 -32h105v147z" />
    <glyph glyph-name="Ccedilla" unicode="&#xc7;" horiz-adv-x="805" 
d="M369 -103q-2 1 -0.5 9t1.5 9l20 79q-180 26 -266 165q-30 58 -39.5 96t-14.5 95q0 47 16 109q53 144 162 205q90 45 192 50q79 -1 119 -17t112 -66q10 -6 15 -10q49 -42 49 -63q0 -7 -5 -12q-60 -60 -77 -60q-7 0 -11 5q-78 98 -202 100q-58 -5 -102.5 -24t-69 -44.5
t-39.5 -58t-19.5 -59t-4.5 -53.5q-9 -97 67.5 -170.5t167.5 -70.5q36 3 67.5 13.5t49 20.5t44.5 29q3 3 12 11.5t14.5 14.5t13 11t11.5 5l10 -3l6 -4q5 -4 13 -9.5t17.5 -13t17.5 -14.5t13.5 -15t5.5 -13q0 -13 -24 -37q-114 -114 -260 -118l-7 -31q53 -2 86.5 -28.5
t33.5 -73.5v-11l-2 -10q-7 -37 -27 -55l-7 -6q-11 -10 -33 -19q-12 -4 -18 -5q-32 -7 -69 -2q-13 1 -25 6q-13 3 -28 10q-2 0 -11 5q-25 7 4 55q0 1 0.5 2t1.5 2t2 2.5t2.5 2.5t2.5 2q5 2 9 -1q32 -15 68 -16q9 0 13 1q4 0 10 2q14 6 20 18l3 8q1 3 1 9t-3 12q-17 31 -92 26
q-16 0 -17 3z" />
    <glyph glyph-name="Egrave" unicode="&#xc8;" horiz-adv-x="642" 
d="M93 15q0 23 -0.5 39.5t-0.5 51.5q0 10 0.5 33t0.5 37v211q0 27 -1.5 86.5t-1 105.5t4.5 89q0 4 -0.5 10t-0.5 10q0 15 14 15q21 0 63 1t63 1q34 -3 90 -3q18 0 53 1.5t52 1.5q59 0 106 -4q3 0 9.5 0.5t9.5 0.5q17 0 17 -37q0 -7 -0.5 -19t-0.5 -19q0 -4 0.5 -12t0.5 -12
q0 -15 -15 -15q-119 0 -134 1q-26 0 -81.5 1t-86.5 1q-6 0 -19 -0.5t-19 -0.5q0 -6 0.5 -20t0.5 -20q0 -18 -0.5 -62t-0.5 -77q22 4 80.5 1.5t83.5 -0.5q4 0 15 0.5t18.5 0.5t17 -1t14.5 -4.5t6 -10.5q0 -5 -0.5 -18t-0.5 -20v-10q0 -2 0.5 -12.5t0 -16t-1.5 -13.5t-4 -11.5
t-8 -3.5q-4 0 -12 0.5t-11 0.5q-25 -2 -162 -2l-8 1h-15.5h-12.5q2 -14 0.5 -86.5t-1.5 -84.5q0 -8 12 -8q9 0 115.5 2.5t116.5 -1.5l63 1q46 -4 47 -17q0 -11 -0.5 -30.5t-0.5 -29.5q0 -4 0.5 -11.5t0.5 -11.5q0 -15 -14 -15q-5 0 -20 1t-33 1q-49 0 -73 -3q-11 2 -33 0.5
t-33 0.5h-162q-33 0 -35 -2q-2 0 -14 -0.5t-20 -0.5t-18 1.5t-15.5 5.5t-5.5 11zM368 777q-13 9 -32 22q-18 12 -55.5 38t-57.5 39q-11 9 -3 21l46 55q9 13 20 2q3 -2 7 -6l5 -4q35 -28 45 -38q11 -6 29.5 -24t26.5 -24q7 -7 15 -13l6 -5q11 -11 1 -22l-31 -38
q-10 -10 -22 -3z" />
    <glyph glyph-name="Eacute" unicode="&#xc9;" horiz-adv-x="642" 
d="M93 15q0 23 -0.5 39.5t-0.5 51.5q0 10 0.5 33t0.5 37v211q0 27 -1.5 86.5t-1 105.5t4.5 89q0 4 -0.5 10t-0.5 10q0 15 14 15q21 0 63 1t63 1q34 -3 90 -3q18 0 53 1.5t52 1.5q59 0 106 -4q3 0 9.5 0.5t9.5 0.5q17 0 17 -37q0 -7 -0.5 -19t-0.5 -19q0 -4 0.5 -12t0.5 -12
q0 -15 -15 -15q-119 0 -134 1q-26 0 -81.5 1t-86.5 1q-6 0 -19 -0.5t-19 -0.5q0 -6 0.5 -20t0.5 -20q0 -18 -0.5 -62t-0.5 -77q22 4 80.5 1.5t83.5 -0.5q4 0 15 0.5t18.5 0.5t17 -1t14.5 -4.5t6 -10.5q0 -5 -0.5 -18t-0.5 -20v-10q0 -2 0.5 -12.5t0 -16t-1.5 -13.5t-4 -11.5
t-8 -3.5q-4 0 -12 0.5t-11 0.5q-25 -2 -162 -2l-8 1h-15.5h-12.5q2 -14 0.5 -86.5t-1.5 -84.5q0 -8 12 -8q9 0 115.5 2.5t116.5 -1.5l63 1q46 -4 47 -17q0 -11 -0.5 -30.5t-0.5 -29.5q0 -4 0.5 -11.5t0.5 -11.5q0 -15 -14 -15q-5 0 -20 1t-33 1q-49 0 -73 -3q-11 2 -33 0.5
t-33 0.5h-162q-33 0 -35 -2q-2 0 -14 -0.5t-20 -0.5t-18 1.5t-15.5 5.5t-5.5 11zM299 777q-12 -7 -22 3l-31 38q-10 11 1 22q3 2 6 5q8 6 15 13q8 6 26.5 24t29.5 24q10 10 45 38l5 4l7 6q11 11 20 -2l46 -55q8 -12 -3 -21q-20 -13 -57.5 -39t-55.5 -38z" />
    <glyph glyph-name="Ecircumflex" unicode="&#xca;" horiz-adv-x="642" 
d="M93 15q0 23 -0.5 39.5t-0.5 51.5q0 10 0.5 33t0.5 37v211q0 27 -1.5 86.5t-1 105.5t4.5 89q0 4 -0.5 10t-0.5 10q0 15 14 15q21 0 63 1t63 1q34 -3 90 -3q18 0 53 1.5t52 1.5q59 0 106 -4q3 0 9.5 0.5t9.5 0.5q17 0 17 -37q0 -7 -0.5 -19t-0.5 -19q0 -4 0.5 -12t0.5 -12
q0 -15 -15 -15q-119 0 -134 1q-26 0 -81.5 1t-86.5 1q-6 0 -19 -0.5t-19 -0.5q0 -6 0.5 -20t0.5 -20q0 -18 -0.5 -62t-0.5 -77q22 4 80.5 1.5t83.5 -0.5q4 0 15 0.5t18.5 0.5t17 -1t14.5 -4.5t6 -10.5q0 -5 -0.5 -18t-0.5 -20v-10q0 -2 0.5 -12.5t0 -16t-1.5 -13.5t-4 -11.5
t-8 -3.5q-4 0 -12 0.5t-11 0.5q-25 -2 -162 -2l-8 1h-15.5h-12.5q2 -14 0.5 -86.5t-1.5 -84.5q0 -8 12 -8q9 0 115.5 2.5t116.5 -1.5l63 1q46 -4 47 -17q0 -11 -0.5 -30.5t-0.5 -29.5q0 -4 0.5 -11.5t0.5 -11.5q0 -15 -14 -15q-5 0 -20 1t-33 1q-49 0 -73 -3q-11 2 -33 0.5
t-33 0.5h-162q-33 0 -35 -2q-2 0 -14 -0.5t-20 -0.5t-18 1.5t-15.5 5.5t-5.5 11zM474 785h-86q-12 0 -21 12l-48 58l-48 -58q-9 -10 -15 -12q-4 -1 -41 -1q-53 0 -53 9q0 5 13 20t38 43.5t43 52.5q1 1 15.5 18.5t27.5 29.5t20 12q9 0 17.5 -6t18.5 -18.5t12 -14.5
q8 -9 27.5 -33.5t31.5 -36.5q54 -64 54 -69q0 -6 -6 -6z" />
    <glyph glyph-name="Edieresis" unicode="&#xcb;" horiz-adv-x="642" 
d="M93 15q0 23 -0.5 39.5t-0.5 51.5q0 10 0.5 33t0.5 37v211q0 27 -1.5 86.5t-1 105.5t4.5 89q0 4 -0.5 10t-0.5 10q0 15 14 15q21 0 63 1t63 1q34 -3 90 -3q18 0 53 1.5t52 1.5q59 0 106 -4q3 0 9.5 0.5t9.5 0.5q17 0 17 -37q0 -7 -0.5 -19t-0.5 -19q0 -4 0.5 -12t0.5 -12
q0 -15 -15 -15q-119 0 -134 1q-26 0 -81.5 1t-86.5 1q-6 0 -19 -0.5t-19 -0.5q0 -6 0.5 -20t0.5 -20q0 -18 -0.5 -62t-0.5 -77q22 4 80.5 1.5t83.5 -0.5q4 0 15 0.5t18.5 0.5t17 -1t14.5 -4.5t6 -10.5q0 -5 -0.5 -18t-0.5 -20v-10q0 -2 0.5 -12.5t0 -16t-1.5 -13.5t-4 -11.5
t-8 -3.5q-4 0 -12 0.5t-11 0.5q-25 -2 -162 -2l-8 1h-15.5h-12.5q2 -14 0.5 -86.5t-1.5 -84.5q0 -8 12 -8q9 0 115.5 2.5t116.5 -1.5l63 1q46 -4 47 -17q0 -11 -0.5 -30.5t-0.5 -29.5q0 -4 0.5 -11.5t0.5 -11.5q0 -15 -14 -15q-5 0 -20 1t-33 1q-49 0 -73 -3q-11 2 -33 0.5
t-33 0.5h-162q-33 0 -35 -2q-2 0 -14 -0.5t-20 -0.5t-18 1.5t-15.5 5.5t-5.5 11zM285 845q0 -25 -19 -45.5t-45 -20.5q-13 0 -20 4q-18 4 -31 23t-13 39q0 25 18 44.5t46 19.5q25 0 44.5 -19.5t19.5 -44.5zM484 845q0 -25 -19 -45.5t-45 -20.5q-13 0 -20 4q-18 4 -31 23
t-13 39q0 25 18 44.5t46 19.5q25 0 44.5 -19.5t19.5 -44.5z" />
    <glyph glyph-name="Igrave" unicode="&#xcc;" horiz-adv-x="310" 
d="M217 257l-1 -55l2 -33q0 -93 1 -102q0 -2 0.5 -13.5t0 -18.5t-1.5 -16.5t-5 -14.5t-10 -5q-35 0 -69 3q-4 0 -12.5 -0.5t-12.5 -0.5q-5 0 -8 2.5t-5 7.5t-3.5 9.5t-1.5 12.5v13v13v11q1 12 2 35.5t2 35.5q0 28 -1.5 86.5t-1.5 88.5q0 6 0.5 17.5t0.5 17.5q0 17 -0.5 53
t-0.5 53l2 35q0 12 -0.5 35t-0.5 35q0 6 0.5 18t0.5 18l-2 35l2 35q0 4 -0.5 10t-0.5 10q0 3 1 5.5t2.5 4t3.5 2.5t5 2t5 1.5t6 0.5h6h6.5h5.5q3 0 16 0.5t22.5 0.5t20.5 -1t17.5 -5t6.5 -11q0 -9 -0.5 -27t-0.5 -27q0 -18 1 -52t1 -52q0 -12 -1 -24t-1 -24l2 -34
q-1 -5 -1 -191zM202 777q-13 9 -32 22q-18 12 -55.5 38t-57.5 39q-11 9 -3 21l46 55q9 13 20 2q3 -2 7 -6l5 -4q35 -28 45 -38q11 -6 29.5 -24t26.5 -24q7 -7 15 -13l6 -5q11 -11 1 -22l-31 -38q-10 -10 -22 -3z" />
    <glyph glyph-name="Iacute" unicode="&#xcd;" horiz-adv-x="310" 
d="M217 257l-1 -55l2 -33q0 -93 1 -102q0 -2 0.5 -13.5t0 -18.5t-1.5 -16.5t-5 -14.5t-10 -5q-35 0 -69 3q-4 0 -12.5 -0.5t-12.5 -0.5q-5 0 -8 2.5t-5 7.5t-3.5 9.5t-1.5 12.5v13v13v11q1 12 2 35.5t2 35.5q0 28 -1.5 86.5t-1.5 88.5q0 6 0.5 17.5t0.5 17.5q0 17 -0.5 53
t-0.5 53l2 35q0 12 -0.5 35t-0.5 35q0 6 0.5 18t0.5 18l-2 35l2 35q0 4 -0.5 10t-0.5 10q0 3 1 5.5t2.5 4t3.5 2.5t5 2t5 1.5t6 0.5h6h6.5h5.5q3 0 16 0.5t22.5 0.5t20.5 -1t17.5 -5t6.5 -11q0 -9 -0.5 -27t-0.5 -27q0 -18 1 -52t1 -52q0 -12 -1 -24t-1 -24l2 -34
q-1 -5 -1 -191zM108 777q-12 -7 -22 3l-31 38q-10 11 1 22q3 2 6 5q8 6 15 13q8 6 26.5 24t29.5 24q10 10 45 38l5 4l7 6q11 11 20 -2l46 -55q8 -12 -3 -21q-20 -13 -57.5 -39t-55.5 -38z" />
    <glyph glyph-name="Icircumflex" unicode="&#xce;" horiz-adv-x="318" 
d="M221 257l-1 -55l2 -33q0 -93 1 -102q0 -2 0.5 -13.5t0 -18.5t-1.5 -16.5t-5 -14.5t-10 -5q-35 0 -69 3q-4 0 -12.5 -0.5t-12.5 -0.5q-5 0 -8 2.5t-5 7.5t-3.5 9.5t-1.5 12.5v13v13v11q1 12 2 35.5t2 35.5q0 28 -1.5 86.5t-1.5 88.5q0 6 0.5 17.5t0.5 17.5q0 17 -0.5 53
t-0.5 53l2 35q0 12 -0.5 35t-0.5 35q0 6 0.5 18t0.5 18l-2 35l2 35q0 4 -0.5 10t-0.5 10q0 3 1 5.5t2.5 4t3.5 2.5t5 2t5 1.5t6 0.5h6h6.5h5.5q3 0 16 0.5t22.5 0.5t20.5 -1t17.5 -5t6.5 -11q0 -9 -0.5 -27t-0.5 -27q0 -18 1 -52t1 -52q0 -12 -1 -24t-1 -24l2 -34
q-1 -5 -1 -191zM312 785h-86q-12 0 -21 12l-48 58l-48 -58q-9 -10 -15 -12q-4 -1 -41 -1q-53 0 -53 9q0 5 13 20t38 43.5t43 52.5q1 1 15.5 18.5t27.5 29.5t20 12q9 0 17.5 -6t18.5 -18.5t12 -14.5q8 -9 27.5 -33.5t31.5 -36.5q54 -64 54 -69q0 -6 -6 -6z" />
    <glyph glyph-name="Idieresis" unicode="&#xcf;" horiz-adv-x="327" 
d="M225 257l-1 -55l2 -33q0 -93 1 -102q0 -2 0.5 -13.5t0 -18.5t-1.5 -16.5t-5 -14.5t-10 -5q-35 0 -69 3q-4 0 -12.5 -0.5t-12.5 -0.5q-5 0 -8 2.5t-5 7.5t-3.5 9.5t-1.5 12.5v13v13v11q1 12 2 35.5t2 35.5q0 28 -1.5 86.5t-1.5 88.5q0 6 0.5 17.5t0.5 17.5q0 17 -0.5 53
t-0.5 53l2 35q0 12 -0.5 35t-0.5 35q0 6 0.5 18t0.5 18l-2 35l2 35q0 4 -0.5 10t-0.5 10q0 3 1 5.5t2.5 4t3.5 2.5t5 2t5 1.5t6 0.5h6h6.5h5.5q3 0 16 0.5t22.5 0.5t20.5 -1t17.5 -5t6.5 -11q0 -9 -0.5 -27t-0.5 -27q0 -18 1 -52t1 -52q0 -12 -1 -24t-1 -24l2 -34
q-1 -5 -1 -191zM128 845q0 -25 -19 -45.5t-45 -20.5q-13 0 -20 4q-18 4 -31 23t-13 39q0 25 18 44.5t46 19.5q25 0 44.5 -19.5t19.5 -44.5zM327 845q0 -25 -19 -45.5t-45 -20.5q-13 0 -20 4q-18 4 -31 23t-13 39q0 25 18 44.5t46 19.5q25 0 44.5 -19.5t19.5 -44.5z" />
    <glyph glyph-name="Eth" unicode="&#xd0;" horiz-adv-x="787" 
d="M27 402l95 1q2 26 2 37q0 97 -1 156t-1 88q0 11 5 14.5t20 3.5h3q6 2 22 2q8 0 22.5 -0.5t18.5 -0.5q6 0 18.5 1t19.5 1q16 0 43.5 0.5t39.5 0.5q65 0 123 -13q91 -12 170 -83q52 -68 71 -127t19 -157q0 -102 -56.5 -189t-152.5 -115q-20 -7 -45.5 -12t-41 -6.5t-48.5 -3
t-41 -2.5q-23 0 -53.5 1t-54.5 1h-19q-5 0 -16.5 -0.5t-17.5 -0.5q-35 0 -41.5 10t-6.5 55q0 13 1 15q0 7 -0.5 21t-0.5 21q0 18 1 53.5t1 53.5q0 20 -2 60q-85 -1 -95 6q-9 6 -7 34q1 16 1 26q0 41 5 48zM248 116h6h8q8 -1 17.5 -1.5t11.5 -0.5h8q7 0 23 0.5t24 0.5
q14 0 21 -1q215 12 217 237q-7 90 -31 142q-21 30 -43 49t-48.5 28t-43.5 12t-51 6h-76q-13 0 -22 -0.5t-21 -0.5q0 -23 1 -68t1 -67q0 -8 -0.5 -24t-0.5 -24l120 2q4 0 7 -1.5t5 -5t3 -7.5t1 -9.5v-9.5v-10v-9q0 -8 -0.5 -25t-0.5 -25q0 -11 -16.5 -13.5t-67.5 -2.5h-10
h-41q0 -12 0.5 -36t0.5 -35q0 -44 -2 -65v-36z" />
    <glyph glyph-name="Ntilde" unicode="&#xd1;" horiz-adv-x="781" 
d="M92 16q0 15 -1 45t-1 45q0 6 0.5 17.5t0.5 17.5t-0.5 18t-0.5 18q0 79 1 225t1 233q0 5 0.5 17t0.5 17t-0.5 13t-0.5 12q0 13 11 13q5 0 10 -3q73 -75 123 -119q113 -102 329 -316q2 14 2 21q0 26 -1.5 79t-1.5 80l2 36q0 12 -0.5 36.5t-0.5 36.5l3 36q0 6 -0.5 18
t-0.5 18t0.5 18.5t0.5 18.5l-2 22q0 6 2.5 9.5t7.5 4.5t9 1.5t12 0t10 -0.5q4 0 16.5 0.5t22.5 0.5t21 -1t17.5 -4.5t6.5 -10.5q0 -9 -0.5 -28t-0.5 -29q0 -12 0.5 -35.5t0.5 -35.5q0 -64 -0.5 -206.5t-0.5 -207.5q0 -6 -0.5 -17.5t-0.5 -17.5q0 -9 1 -27.5t1 -28.5
q0 -8 -0.5 -23t-0.5 -22v-8q0 -9 -9 -9q-10 0 -16 7q-105 105 -172 164q-46 51 -100.5 101.5t-59.5 55.5q-19 19 -58.5 56t-58.5 56l2 -35q-1 -12 -1 -145v-182q-1 -16 -1.5 -30.5t-1 -21t0 -12t-2.5 -7t-4 -2.5t-9 -1t-14 -1l-52 5q-5 0 -13 -0.5t-13 -0.5q-15 0 -15 15z
M516 902h62q5 0 9 -4t3 -9q-10 -39 -29 -64l-5 -6q-16 -18 -29 -26l-7 -4q-26 -13 -72 -13h-4q-28 2 -52 19l-6 5q-5 3 -22 14t-28 15q-1 0 -3.5 0.5t-3.5 0.5q-29 0 -40 -24q-3 -2 -4 -7q0 -1 -2 -3.5t-3 -4.5t-1 -3q-3 -7 -14 -7h-58q-3 0 -5 1q-6 4 -6.5 10.5t2.5 15.5
t3 13q2 2 2 5l2 4q21 38 28 45q1 3 6 5q12 11 32 19q1 1 2 1t1.5 0.5t1.5 0.5l25 6q3 0 5 1q3 0 7 0.5t6 0.5q4 0 7 1q32 1 70 -22l7 -4q33 -24 47 -26q37 -5 50 31q4 13 16 13z" />
    <glyph glyph-name="Ograve" unicode="&#xd2;" 
d="M799 351q0 -43 -5 -74q-3 -20 -9.5 -39.5t-12 -32t-15 -32t-14.5 -30.5q-31 -44 -64.5 -73.5t-73 -45.5t-65 -22.5t-69.5 -14.5q-6 0 -18 0.5t-18 0.5q-64 -5 -141 24q-53 19 -92.5 48.5t-63.5 62t-39 73.5t-21 77t-8 79q5 279 254 349q30 8 111 15q6 0 18 -0.5t18 -0.5
q95 -3 172.5 -57.5t118 -136.5t37.5 -170zM435 108q70 0 118.5 24t71.5 63.5t32 77t9 78.5q-8 97 -42 145q-22 31 -46 51t-54.5 29t-43 11t-45.5 5q-34 -2 -63 -8.5t-48.5 -14t-36 -21t-25.5 -23t-18 -26.5t-12 -25.5t-9 -26.5t-7 -22q-30 -130 30 -216q71 -101 189 -101z
M456 777q-13 9 -32 22q-18 12 -55.5 38t-57.5 39q-11 9 -3 21l46 55q9 13 20 2q3 -2 7 -6l5 -4q35 -28 45 -38q11 -6 29.5 -24t26.5 -24q7 -7 15 -13l6 -5q11 -11 1 -22l-31 -38q-10 -10 -22 -3z" />
    <glyph glyph-name="Oacute" unicode="&#xd3;" 
d="M799 351q0 -43 -5 -74q-3 -20 -9.5 -39.5t-12 -32t-15 -32t-14.5 -30.5q-31 -44 -64.5 -73.5t-73 -45.5t-65 -22.5t-69.5 -14.5q-6 0 -18 0.5t-18 0.5q-64 -5 -141 24q-53 19 -92.5 48.5t-63.5 62t-39 73.5t-21 77t-8 79q5 279 254 349q30 8 111 15q6 0 18 -0.5t18 -0.5
q95 -3 172.5 -57.5t118 -136.5t37.5 -170zM435 108q70 0 118.5 24t71.5 63.5t32 77t9 78.5q-8 97 -42 145q-22 31 -46 51t-54.5 29t-43 11t-45.5 5q-34 -2 -63 -8.5t-48.5 -14t-36 -21t-25.5 -23t-18 -26.5t-12 -25.5t-9 -26.5t-7 -22q-30 -130 30 -216q71 -101 189 -101z
M416 777q-12 -7 -22 3l-31 38q-10 11 1 22q3 2 6 5q8 6 15 13q8 6 26.5 24t29.5 24q10 10 45 38l5 4l7 6q11 11 20 -2l46 -55q8 -12 -3 -21q-20 -13 -57.5 -39t-55.5 -38z" />
    <glyph glyph-name="Ocircumflex" unicode="&#xd4;" 
d="M799 351q0 -43 -5 -74q-3 -20 -9.5 -39.5t-12 -32t-15 -32t-14.5 -30.5q-31 -44 -64.5 -73.5t-73 -45.5t-65 -22.5t-69.5 -14.5q-6 0 -18 0.5t-18 0.5q-64 -5 -141 24q-53 19 -92.5 48.5t-63.5 62t-39 73.5t-21 77t-8 79q5 279 254 349q30 8 111 15q6 0 18 -0.5t18 -0.5
q95 -3 172.5 -57.5t118 -136.5t37.5 -170zM435 108q70 0 118.5 24t71.5 63.5t32 77t9 78.5q-8 97 -42 145q-22 31 -46 51t-54.5 29t-43 11t-45.5 5q-34 -2 -63 -8.5t-48.5 -14t-36 -21t-25.5 -23t-18 -26.5t-12 -25.5t-9 -26.5t-7 -22q-30 -130 30 -216q71 -101 189 -101z
M588 785h-86q-12 0 -21 12l-48 58l-48 -58q-9 -10 -15 -12q-4 -1 -41 -1q-53 0 -53 9q0 5 13 20t38 43.5t43 52.5q1 1 15.5 18.5t27.5 29.5t20 12q9 0 17.5 -6t18.5 -18.5t12 -14.5q8 -9 27.5 -33.5t31.5 -36.5q54 -64 54 -69q0 -6 -6 -6z" />
    <glyph glyph-name="Otilde" unicode="&#xd5;" 
d="M799 351q0 -43 -5 -74q-3 -20 -9.5 -39.5t-12 -32t-15 -32t-14.5 -30.5q-31 -44 -64.5 -73.5t-73 -45.5t-65 -22.5t-69.5 -14.5q-6 0 -18 0.5t-18 0.5q-64 -5 -141 24q-53 19 -92.5 48.5t-63.5 62t-39 73.5t-21 77t-8 79q5 279 254 349q30 8 111 15q6 0 18 -0.5t18 -0.5
q95 -3 172.5 -57.5t118 -136.5t37.5 -170zM435 108q70 0 118.5 24t71.5 63.5t32 77t9 78.5q-8 97 -42 145q-22 31 -46 51t-54.5 29t-43 11t-45.5 5q-34 -2 -63 -8.5t-48.5 -14t-36 -21t-25.5 -23t-18 -26.5t-12 -25.5t-9 -26.5t-7 -22q-30 -130 30 -216q71 -101 189 -101z
M561 902h62q5 0 9 -4t3 -9q-10 -39 -29 -64l-5 -6q-16 -18 -29 -26l-7 -4q-26 -13 -72 -13h-4q-28 2 -52 19l-6 5q-5 3 -22 14t-28 15q-1 0 -3.5 0.5t-3.5 0.5q-30 0 -40 -24q-2 -2 -4 -7q0 -1 -2 -3.5t-3 -4.5t-1 -3q-3 -7 -14 -7h-58q-3 0 -5 1q-6 4 -6.5 10.5t2.5 15.5
t3 13q2 2 2 5l2 4q21 38 28 45q1 3 6 5q12 11 32 19q1 1 2 1t1.5 0.5t1.5 0.5l25 6q3 0 5 1q3 0 7 0.5t6 0.5q4 0 7 1q32 1 70 -22l7 -4q33 -24 47 -26q37 -5 50 31q4 13 16 13z" />
    <glyph glyph-name="Odieresis" unicode="&#xd6;" 
d="M799 351q0 -43 -5 -74q-3 -20 -9.5 -39.5t-12 -32t-15 -32t-14.5 -30.5q-31 -44 -64.5 -73.5t-73 -45.5t-65 -22.5t-69.5 -14.5q-6 0 -18 0.5t-18 0.5q-64 -5 -141 24q-53 19 -92.5 48.5t-63.5 62t-39 73.5t-21 77t-8 79q5 279 254 349q30 8 111 15q6 0 18 -0.5t18 -0.5
q95 -3 172.5 -57.5t118 -136.5t37.5 -170zM435 108q70 0 118.5 24t71.5 63.5t32 77t9 78.5q-8 97 -42 145q-22 31 -46 51t-54.5 29t-43 11t-45.5 5q-34 -2 -63 -8.5t-48.5 -14t-36 -21t-25.5 -23t-18 -26.5t-12 -25.5t-9 -26.5t-7 -22q-30 -130 30 -216q71 -101 189 -101z
M399 845q0 -25 -19 -45.5t-45 -20.5q-13 0 -20 4q-18 4 -31 23t-13 39q0 25 18 44.5t46 19.5q25 0 44.5 -19.5t19.5 -44.5zM598 845q0 -25 -19 -45.5t-45 -20.5q-13 0 -20 4q-18 4 -31 23t-13 39q0 25 18 44.5t46 19.5q25 0 44.5 -19.5t19.5 -44.5z" />
    <glyph glyph-name="multiply" unicode="&#xd7;" horiz-adv-x="560" 
d="M466 105l-62 -61q-9 -9 -16.5 -4t-47.5 45q-6 6 -24 25.5t-30 30.5l-5 5l-46 -46q-53 -54 -65 -59.5t-31 16.5q-11 13 -19 21q-29 29 -30 37q2 8 108 114l-51 52q-7 7 -16.5 16t-14.5 14l-11 11t-9 10t-4.5 8t-0.5 7t4 6l61 62q8 8 14 5t32 -30l5 -5l4.5 -4.5l5.5 -5.5
l64 -63l102 102q3 3 6.5 4t7 -0.5t6.5 -3t7.5 -5.5t7 -6.5l7 -7l6.5 -6.5l35 -36q8 -8 -1.5 -21t-41.5 -45l-12 -12l-48 -46q0 -1 8 -8t20 -18t18 -17q51 -51 57 -62q7 -12 0 -19z" />
    <glyph glyph-name="Oslash" unicode="&#xd8;" 
d="M799 351q0 -43 -5 -74q-3 -20 -9.5 -39.5t-12 -32t-15 -32t-14.5 -30.5q-31 -44 -64.5 -73.5t-73 -45.5t-65 -22.5t-69.5 -14.5q-6 0 -18 0.5t-18 0.5q-64 -5 -141 24l-10 3q-15 -15 -25 -15q-44 0 -55 -1q-3 0 -14 -0.5t-18.5 -0.5t-16.5 1t-14 3.5t-5 6.5q0 14 44 68
q-102 89 -110 275q5 279 254 349q30 8 111 15q6 0 18 -0.5t18 -0.5q64 -3 118 -27q12 16 27 16q117 0 117 -9q0 -5 -12 -20q-7 -10 -19.5 -29t-15.5 -24q55 -52 85 -124.5t28 -146.5zM435 108q70 0 118.5 24t71.5 63.5t32 77t9 78.5q-8 97 -42 145l-10 13q-37 -56 -109 -158
l-74 -111q-14 -19 -27 -38.5t-27.5 -43t-23.5 -37.5q38 -13 82 -13zM364 351l75 111l80 116q-18 6 -84 14q-34 -2 -63 -8.5t-48.5 -14t-36 -21t-25.5 -23t-18 -26.5t-12 -25.5t-9 -26.5t-7 -22q-30 -130 30 -216l11 -15q79 121 107 157z" />
    <glyph glyph-name="Ugrave" unicode="&#xd9;" horiz-adv-x="774" 
d="M90 291l2 37q0 12 -1 37t-1 38q0 12 2 38q0 6 -0.5 18.5t-0.5 18.5q0 15 1 47t1 48q0 3 -0.5 21.5t-0.5 34.5t0.5 34t3.5 29t8 11t14.5 -0.5t14.5 -0.5q11 0 34 1t35 1q14 0 14 -15q0 -17 -1 -49t-1 -49q0 -9 1.5 -31t1.5 -54v-65q0 -41 -1.5 -92t-1 -68t5.5 -42t18 -53
q1 -1 14 -19t25 -29.5t42 -23t69 -11.5q27 0 48 5l15 4q65 24 93 83q14 32 14 69l2 27q0 6 -0.5 18.5t-0.5 18.5t0.5 19t0.5 20q-3 36 -3 74q0 7 1 19.5t1 18.5q0 35 -1 105t-1 105q0 15 14 15q79 0 94 -2q6 0 9.5 -5t5 -14t2 -17.5t1 -20.5t0.5 -17q-3 -29 0 -75
q0 -6 -0.5 -18.5t-0.5 -18.5q0 -13 2 -75q0 -7 -1 -19.5t-1 -18.5q0 -13 0.5 -38t0.5 -37q0 -97 -10 -135q0 -3 -2 -8.5t-2 -8.5q-13 -38 -31 -67.5t-41.5 -48.5t-42 -29.5t-44.5 -22.5q-28 -16 -124 -23q-34 3 -73 9l-7 2q-7 1 -15 3t-20.5 6t-25 9t-26.5 13t-26.5 17.5
t-24.5 22.5t-21 28l-6 9q-27 36 -27 53q-16 42 -24 134zM411 777q-13 9 -32 22q-18 12 -55.5 38t-57.5 39q-11 9 -3 21l46 55q9 13 20 2q3 -2 7 -6l5 -4q35 -28 45 -38q11 -6 29.5 -24t26.5 -24q7 -7 15 -13l6 -5q11 -11 1 -22l-31 -38q-10 -10 -22 -3z" />
    <glyph glyph-name="Uacute" unicode="&#xda;" horiz-adv-x="774" 
d="M90 291l2 37q0 12 -1 37t-1 38q0 12 2 38q0 6 -0.5 18.5t-0.5 18.5q0 15 1 47t1 48q0 3 -0.5 21.5t-0.5 34.5t0.5 34t3.5 29t8 11t14.5 -0.5t14.5 -0.5q11 0 34 1t35 1q14 0 14 -15q0 -17 -1 -49t-1 -49q0 -9 1.5 -31t1.5 -54v-65q0 -41 -1.5 -92t-1 -68t5.5 -42t18 -53
q1 -1 14 -19t25 -29.5t42 -23t69 -11.5q27 0 48 5l15 4q65 24 93 83q14 32 14 69l2 27q0 6 -0.5 18.5t-0.5 18.5t0.5 19t0.5 20q-3 36 -3 74q0 7 1 19.5t1 18.5q0 35 -1 105t-1 105q0 15 14 15q79 0 94 -2q6 0 9.5 -5t5 -14t2 -17.5t1 -20.5t0.5 -17q-3 -29 0 -75
q0 -6 -0.5 -18.5t-0.5 -18.5q0 -13 2 -75q0 -7 -1 -19.5t-1 -18.5q0 -13 0.5 -38t0.5 -37q0 -97 -10 -135q0 -3 -2 -8.5t-2 -8.5q-13 -38 -31 -67.5t-41.5 -48.5t-42 -29.5t-44.5 -22.5q-28 -16 -124 -23q-34 3 -73 9l-7 2q-7 1 -15 3t-20.5 6t-25 9t-26.5 13t-26.5 17.5
t-24.5 22.5t-21 28l-6 9q-27 36 -27 53q-16 42 -24 134zM369 777q-12 -7 -22 3l-31 38q-10 11 1 22q3 2 6 5q8 6 15 13q8 6 26.5 24t29.5 24q10 10 45 38l5 4l7 6q11 11 20 -2l46 -55q8 -12 -3 -21q-20 -13 -57.5 -39t-55.5 -38z" />
    <glyph glyph-name="Ucircumflex" unicode="&#xdb;" horiz-adv-x="774" 
d="M90 291l2 37q0 12 -1 37t-1 38q0 12 2 38q0 6 -0.5 18.5t-0.5 18.5q0 15 1 47t1 48q0 3 -0.5 21.5t-0.5 34.5t0.5 34t3.5 29t8 11t14.5 -0.5t14.5 -0.5q11 0 34 1t35 1q14 0 14 -15q0 -17 -1 -49t-1 -49q0 -9 1.5 -31t1.5 -54v-65q0 -41 -1.5 -92t-1 -68t5.5 -42t18 -53
q1 -1 14 -19t25 -29.5t42 -23t69 -11.5q27 0 48 5l15 4q65 24 93 83q14 32 14 69l2 27q0 6 -0.5 18.5t-0.5 18.5t0.5 19t0.5 20q-3 36 -3 74q0 7 1 19.5t1 18.5q0 35 -1 105t-1 105q0 15 14 15q79 0 94 -2q6 0 9.5 -5t5 -14t2 -17.5t1 -20.5t0.5 -17q-3 -29 0 -75
q0 -6 -0.5 -18.5t-0.5 -18.5q0 -13 2 -75q0 -7 -1 -19.5t-1 -18.5q0 -13 0.5 -38t0.5 -37q0 -97 -10 -135q0 -3 -2 -8.5t-2 -8.5q-13 -38 -31 -67.5t-41.5 -48.5t-42 -29.5t-44.5 -22.5q-28 -16 -124 -23q-34 3 -73 9l-7 2q-7 1 -15 3t-20.5 6t-25 9t-26.5 13t-26.5 17.5
t-24.5 22.5t-21 28l-6 9q-27 36 -27 53q-16 42 -24 134zM540 785h-86q-12 0 -21 12l-48 58l-48 -58q-9 -10 -15 -12q-4 -1 -41 -1q-53 0 -53 9q0 5 13 20t38 43.5t43 52.5q1 1 15.5 18.5t27.5 29.5t20 12q9 0 17.5 -6t18.5 -18.5t12 -14.5q8 -9 27.5 -33.5t31.5 -36.5
q54 -64 54 -69q0 -6 -6 -6z" />
    <glyph glyph-name="Udieresis" unicode="&#xdc;" horiz-adv-x="774" 
d="M90 291l2 37q0 12 -1 37t-1 38q0 12 2 38q0 6 -0.5 18.5t-0.5 18.5q0 15 1 47t1 48q0 3 -0.5 21.5t-0.5 34.5t0.5 34t3.5 29t8 11t14.5 -0.5t14.5 -0.5q11 0 34 1t35 1q14 0 14 -15q0 -17 -1 -49t-1 -49q0 -9 1.5 -31t1.5 -54v-65q0 -41 -1.5 -92t-1 -68t5.5 -42t18 -53
q1 -1 14 -19t25 -29.5t42 -23t69 -11.5q27 0 48 5l15 4q65 24 93 83q14 32 14 69l2 27q0 6 -0.5 18.5t-0.5 18.5t0.5 19t0.5 20q-3 36 -3 74q0 7 1 19.5t1 18.5q0 35 -1 105t-1 105q0 15 14 15q79 0 94 -2q6 0 9.5 -5t5 -14t2 -17.5t1 -20.5t0.5 -17q-3 -29 0 -75
q0 -6 -0.5 -18.5t-0.5 -18.5q0 -13 2 -75q0 -7 -1 -19.5t-1 -18.5q0 -13 0.5 -38t0.5 -37q0 -97 -10 -135q0 -3 -2 -8.5t-2 -8.5q-13 -38 -31 -67.5t-41.5 -48.5t-42 -29.5t-44.5 -22.5q-28 -16 -124 -23q-34 3 -73 9l-7 2q-7 1 -15 3t-20.5 6t-25 9t-26.5 13t-26.5 17.5
t-24.5 22.5t-21 28l-6 9q-27 36 -27 53q-16 42 -24 134zM351 845q0 -25 -19 -45.5t-45 -20.5q-13 0 -20 4q-18 4 -31 23t-13 39q0 25 18 44.5t46 19.5q25 0 44.5 -19.5t19.5 -44.5zM550 845q0 -25 -19 -45.5t-45 -20.5q-13 0 -20 4q-18 4 -31 23t-13 39q0 25 18 44.5
t46 19.5q25 0 44.5 -19.5t19.5 -44.5z" />
    <glyph glyph-name="Yacute" unicode="&#xdd;" horiz-adv-x="712" 
d="M427 528q46 79 104 164q8 12 17 12h23q60 0 71 -1q30 2 30 -6q0 -14 -49 -83q-36 -53 -75.5 -118t-82.5 -140t-44 -77q-2 -30 -2.5 -63.5t0.5 -78t1 -67.5q0 -3 0.5 -15t0 -19t-1.5 -16t-5 -14t-10 -6q-32 0 -48 -1q-16 1 -53 1q-11 3 -11 70q0 190 -1 209q-1 2 -44 77
t-82.5 140t-75.5 118q-49 74 -49 83q0 8 30 6q11 1 94 1q9 0 23 -19q5 -7 26 -40.5t43 -66.5q16 -24 33 -52t36.5 -62t30.5 -53q4 7 30.5 50.5t40.5 66.5zM332 777q-12 -7 -22 3l-31 38q-10 11 1 22q3 2 6 5q8 6 15 13q8 6 26.5 24t29.5 24q10 10 45 38l5 4l7 6q11 11 20 -2
l46 -55q8 -12 -3 -21q-20 -13 -57.5 -39t-55.5 -38z" />
    <glyph glyph-name="Thorn" unicode="&#xde;" horiz-adv-x="641" 
d="M282 107h-67v-95q0 -10 -9.5 -12t-48.5 -2h-11h-13h-12t-11.5 1t-9 2.5t-7 4t-2.5 5.5v9v26.5t0.5 34.5t0.5 38.5v34.5q0 18 -2 56q0 2 0.5 5.5t0.5 5.5q0 56 -1 59q2 38 2 57q0 24 -1 36q0 37 0.5 100.5t0.5 90.5l-1 124q0 10 10 11.5t71 1.5h7h8h8t8 -1t6 -2.5t4.5 -4
t1.5 -5.5v-82q44 2 67 2q12 0 34.5 -2t33.5 -2q88 -17 114 -34q107 -61 107 -226q0 -40 -10 -70q-40 -88 -101.5 -127.5t-177.5 -39.5zM297 486h-82q-1 0 -1 -6.5t0.5 -18t1 -24t1 -27.5t0.5 -26q0 -4 -1 -14t-1 -14q0 -5 0.5 -15t0.5 -15v-23.5v-21.5v-19t-0.5 -16
t-0.5 -12v-8v-3h82q72 0 106 38t34 95q0 130 -140 130z" />
    <glyph glyph-name="germandbls" unicode="&#xdf;" horiz-adv-x="681" 
d="M378 588h-79q-69 0 -74 1h-2q-4 0 -6 -2v-731q0 -5 -4 -9q-2 -2 -8 -4q-49 -3 -98 0l-7 2l-5 3q-5 5 -3 11q0 13 -1 129.5t0 168.5l2 177v283q0 10 -1 17v13q0 3 -0.5 19.5t3 24.5t15.5 10h8h36q4 -1 9 0h20q126 2 202 2q91 0 145 -51t54 -143q0 -55 -22.5 -88t-73.5 -63
q56 -12 89 -56.5t34 -102.5l-4 -37q-9 -46 -32.5 -77.5t-58.5 -48.5t-71 -25t-82 -11q-5 0 -67 1q-12 0 -12 12v81q0 18 7 17h10q3 -1 9 -1q42 -3 82 11l11 3q63 22 63 84q0 32 -25.5 59t-62.5 31q-4 1 -12 1q-10 3 -22 1.5t-24 0.5t-16 9q-2 3 -2 10q-2 26 0 77q-1 7 0 11
q13 8 14 8q51 0 71 7l9 3q6 2 9 4l10 4q41 22 41 66q0 38 -21 63t-57 25z" />
    <glyph glyph-name="agrave" unicode="&#xe0;" horiz-adv-x="777" 
d="M594 9q0 8 -7 23.5t-13 27.5l-6 11l-29 60h-303l-28 -61q-4 -5 -11.5 -25t-17 -33t-24.5 -13q-3 0 -15 1h-12l-36 -1l-4 -1h-10.5h-12.5q-15 0 -15 11q0 7 10 24.5t25.5 47.5t25.5 61l32 66l32 65l30 70l32 68l31 66l17 32l14 34l17 33l11 26l27 58q25 52 35 52
q6 0 14 -9.5t16 -25.5t14.5 -30.5t13.5 -31.5t10 -23q54 -114 51 -116l32 -66l32 -68l14 -36q8 -16 21.5 -45.5t19.5 -40.5q1 -3 6.5 -14t10.5 -22l5 -10l34 -65l30 -67q-2 1 0 -2q14 -23 14 -30q0 -4 -4 -6.5t-13 -3.5t-16 -1t-19.5 0.5t-17.5 0.5h-15q-4 0 -12 -1t-12 -1
q-17 0 -24 11zM387 470l-15 -33l-15 -32l-29 -66l-30 -67l-13 -32h206l-16 32l-28 67l-30 66zM418 777q-13 9 -32 22q-18 12 -55.5 38t-57.5 39q-11 9 -3 21l46 55q9 13 20 2q3 -2 7 -6l5 -4q35 -28 45 -38q11 -6 29.5 -24t26.5 -24q7 -7 15 -13l6 -5q11 -11 1 -22l-31 -38
q-10 -10 -22 -3z" />
    <glyph glyph-name="aacute" unicode="&#xe1;" horiz-adv-x="777" 
d="M594 9q0 8 -7 23.5t-13 27.5l-6 11l-29 60h-303l-28 -61q-4 -5 -11.5 -25t-17 -33t-24.5 -13q-3 0 -15 1h-12l-36 -1l-4 -1h-10.5h-12.5q-15 0 -15 11q0 7 10 24.5t25.5 47.5t25.5 61l32 66l32 65l30 70l32 68l31 66l17 32l14 34l17 33l11 26l27 58q25 52 35 52
q6 0 14 -9.5t16 -25.5t14.5 -30.5t13.5 -31.5t10 -23q54 -114 51 -116l32 -66l32 -68l14 -36q8 -16 21.5 -45.5t19.5 -40.5q1 -3 6.5 -14t10.5 -22l5 -10l34 -65l30 -67q-2 1 0 -2q14 -23 14 -30q0 -4 -4 -6.5t-13 -3.5t-16 -1t-19.5 0.5t-17.5 0.5h-15q-4 0 -12 -1t-12 -1
q-17 0 -24 11zM387 470l-15 -33l-15 -32l-29 -66l-30 -67l-13 -32h206l-16 32l-28 67l-30 66zM363 777q-12 -7 -22 3l-31 38q-10 11 1 22q3 2 6 5q8 6 15 13q8 6 26.5 24t29.5 24q10 10 45 38l5 4l7 6q11 11 20 -2l46 -55q8 -12 -3 -21q-20 -13 -57.5 -39t-55.5 -38z" />
    <glyph glyph-name="acircumflex" unicode="&#xe2;" horiz-adv-x="777" 
d="M594 9q0 8 -7 23.5t-13 27.5l-6 11l-29 60h-303l-28 -61q-4 -5 -11.5 -25t-17 -33t-24.5 -13q-3 0 -15 1h-12l-36 -1l-4 -1h-10.5h-12.5q-15 0 -15 11q0 7 10 24.5t25.5 47.5t25.5 61l32 66l32 65l30 70l32 68l31 66l17 32l14 34l17 33l11 26l27 58q25 52 35 52
q6 0 14 -9.5t16 -25.5t14.5 -30.5t13.5 -31.5t10 -23q54 -114 51 -116l32 -66l32 -68l14 -36q8 -16 21.5 -45.5t19.5 -40.5q1 -3 6.5 -14t10.5 -22l5 -10l34 -65l30 -67q-2 1 0 -2q14 -23 14 -30q0 -4 -4 -6.5t-13 -3.5t-16 -1t-19.5 0.5t-17.5 0.5h-15q-4 0 -12 -1t-12 -1
q-17 0 -24 11zM387 470l-15 -33l-15 -32l-29 -66l-30 -67l-13 -32h206l-16 32l-28 67l-30 66zM541 785h-86q-12 0 -21 12l-48 58l-48 -58q-9 -10 -15 -12q-4 -1 -41 -1q-53 0 -53 9q0 5 13 20t38 43.5t43 52.5q1 1 15.5 18.5t27.5 29.5t20 12q9 0 17.5 -6t18.5 -18.5
t12 -14.5q8 -9 27.5 -33.5t31.5 -36.5q54 -64 54 -69q0 -6 -6 -6z" />
    <glyph glyph-name="atilde" unicode="&#xe3;" horiz-adv-x="777" 
d="M594 9q0 8 -7 23.5t-13 27.5l-6 11l-29 60h-303l-28 -61q-4 -5 -11.5 -25t-17 -33t-24.5 -13q-3 0 -15 1h-12l-36 -1l-4 -1h-10.5h-12.5q-15 0 -15 11q0 7 10 24.5t25.5 47.5t25.5 61l32 66l32 65l30 70l32 68l31 66l17 32l14 34l17 33l11 26l27 58q25 52 35 52
q6 0 14 -9.5t16 -25.5t14.5 -30.5t13.5 -31.5t10 -23q54 -114 51 -116l32 -66l32 -68l14 -36q8 -16 21.5 -45.5t19.5 -40.5q1 -3 6.5 -14t10.5 -22l5 -10l34 -65l30 -67q-2 1 0 -2q14 -23 14 -30q0 -4 -4 -6.5t-13 -3.5t-16 -1t-19.5 0.5t-17.5 0.5h-15q-4 0 -12 -1t-12 -1
q-17 0 -24 11zM387 470l-15 -33l-15 -32l-29 -66l-30 -67l-13 -32h206l-16 32l-28 67l-30 66zM514 902h62q5 0 9 -4t3 -9q-10 -39 -29 -64l-5 -6q-16 -18 -29 -26l-7 -4q-26 -13 -72 -13h-4q-28 2 -52 19l-6 5q-5 3 -22 14t-28 15q-1 0 -3.5 0.5t-3.5 0.5q-29 0 -40 -24
q-3 -2 -4 -7q0 -1 -2 -3.5t-3 -4.5t-1 -3q-3 -7 -14 -7h-58q-3 0 -5 1q-6 4 -6.5 10.5t2.5 15.5t3 13q2 2 2 5l2 4q21 38 28 45q1 3 6 5q12 11 32 19q1 1 2 1t1.5 0.5t1.5 0.5l25 6q3 0 5 1q3 0 7 0.5t6 0.5q4 0 7 1q32 1 70 -22l7 -4q33 -24 47 -26q37 -5 50 31q4 13 16 13
z" />
    <glyph glyph-name="adieresis" unicode="&#xe4;" horiz-adv-x="777" 
d="M594 9q0 8 -7 23.5t-13 27.5l-6 11l-29 60h-303l-28 -61q-4 -5 -11.5 -25t-17 -33t-24.5 -13q-3 0 -15 1h-12l-36 -1l-4 -1h-10.5h-12.5q-15 0 -15 11q0 7 10 24.5t25.5 47.5t25.5 61l32 66l32 65l30 70l32 68l31 66l17 32l14 34l17 33l11 26l27 58q25 52 35 52
q6 0 14 -9.5t16 -25.5t14.5 -30.5t13.5 -31.5t10 -23q54 -114 51 -116l32 -66l32 -68l14 -36q8 -16 21.5 -45.5t19.5 -40.5q1 -3 6.5 -14t10.5 -22l5 -10l34 -65l30 -67q-2 1 0 -2q14 -23 14 -30q0 -4 -4 -6.5t-13 -3.5t-16 -1t-19.5 0.5t-17.5 0.5h-15q-4 0 -12 -1t-12 -1
q-17 0 -24 11zM387 470l-15 -33l-15 -32l-29 -66l-30 -67l-13 -32h206l-16 32l-28 67l-30 66zM353 845q0 -25 -19 -45.5t-45 -20.5q-13 0 -20 4q-18 4 -31 23t-13 39q0 25 18 44.5t46 19.5q25 0 44.5 -19.5t19.5 -44.5zM552 845q0 -25 -19 -45.5t-45 -20.5q-13 0 -20 4
q-18 4 -31 23t-13 39q0 25 18 44.5t46 19.5q25 0 44.5 -19.5t19.5 -44.5z" />
    <glyph glyph-name="aring" unicode="&#xe5;" horiz-adv-x="777" 
d="M500 815q0 -44 -30.5 -73t-72.5 -34q9 -8 20.5 -29.5t24.5 -52t15 -34.5q54 -114 51 -116l32 -66l32 -68l14 -36q8 -16 21.5 -45.5t19.5 -40.5q1 -3 6.5 -14t10.5 -22l5 -10l34 -65l30 -67q-2 1 0 -2q14 -23 14 -30q0 -4 -4 -6.5t-13 -3.5t-16 -1t-19.5 0.5t-17.5 0.5
h-15q-4 0 -12 -1t-12 -1q-17 0 -24 11q0 8 -7 23.5t-13 27.5l-6 11l-29 60h-303l-28 -61q-4 -5 -11.5 -25t-17 -33t-24.5 -13q-3 0 -15 1h-12l-36 -1l-4 -1h-10.5h-12.5q-15 0 -15 11q0 7 10 24.5t25.5 47.5t25.5 61l32 66l32 65l30 70l32 68l31 66l17 32l14 34l17 33l11 26
l27 58q22 43 27 48q-10 0 -46 12q-28 9 -43.5 36t-15.5 57q0 52 32.5 82t79.5 30q53 0 81.5 -32t30.5 -78zM387 470l-15 -33l-15 -32l-29 -66l-30 -67l-13 -32h206l-16 32l-28 67l-30 66zM433 817q-6 44 -45 44q-24 0 -35 -13.5t-11 -32.5q5 -36 39 -44q24 0 38 12t14 34z
" />
    <glyph glyph-name="ae" unicode="&#xe6;" horiz-adv-x="939" 
d="M390 15q0 23 -0.5 39.5t-0.5 51.5v25h-153l-28 -61q-4 -5 -11.5 -25t-17 -33t-24.5 -13q-3 0 -15 1h-12l-36 -1l-4 -1h-10.5h-12.5q-15 0 -15 11q0 7 10 24.5t25.5 47.5t25.5 61l32 66l32 65l30 70l32 68l31 66l17 32l14 34l17 33l11 26l27 58l17 35q4 6 12 8h27
q20 0 60 1t61 1q34 -3 90 -3q17 0 52 1.5t53 1.5q59 0 106 -4q3 0 9.5 0.5t9.5 0.5q17 0 17 -37q0 -7 -0.5 -19t-0.5 -19q0 -4 0.5 -12t0.5 -12q0 -15 -15 -15q-119 0 -134 1q-26 0 -81.5 1t-86.5 1q-7 0 -19 -0.5t-19 -0.5q0 -6 0.5 -20t0.5 -20q0 -18 -0.5 -62t-0.5 -77
q22 4 80.5 1.5t83.5 -0.5q4 0 15 0.5t18.5 0.5t17 -1t14.5 -4.5t6 -10.5q0 -5 -0.5 -18t-0.5 -20v-10q0 -2 0.5 -12.5t0 -16t-1.5 -13.5t-4 -11.5t-8 -3.5q-4 0 -12 0.5t-11 0.5q-25 -2 -162 -2l-7 1h-16.5h-12.5q1 -14 0 -86.5t-1 -84.5q0 -8 12 -8q9 0 115.5 2.5
t116.5 -1.5l63 1q46 -4 47 -17q0 -11 -0.5 -30.5t-0.5 -29.5q0 -4 0.5 -11.5t0.5 -11.5q0 -15 -14 -15q-5 0 -20 1t-33 1q-49 0 -73 -3q-11 2 -33 0.5t-33 0.5h-162q-33 0 -35 -2q-2 0 -14 -0.5t-20 -0.5t-18 1.5t-15.5 5.5t-5.5 11zM390 387q0 13 -0.5 39t-0.5 39l-2 5
l-15 -33l-15 -32l-29 -66l-30 -67l-13 -32h105v147z" />
    <glyph glyph-name="ccedilla" unicode="&#xe7;" horiz-adv-x="805" 
d="M369 -103q-2 1 -0.5 9t1.5 9l20 79q-180 26 -266 165q-30 58 -39.5 96t-14.5 95q0 47 16 109q53 144 162 205q90 45 192 50q79 -1 119 -17t112 -66q10 -6 15 -10q49 -42 49 -63q0 -7 -5 -12q-60 -60 -77 -60q-7 0 -11 5q-78 98 -202 100q-58 -5 -102.5 -24t-69 -44.5
t-39.5 -58t-19.5 -59t-4.5 -53.5q-9 -97 67.5 -170.5t167.5 -70.5q36 3 67.5 13.5t49 20.5t44.5 29q3 3 12 11.5t14.5 14.5t13 11t11.5 5l10 -3l6 -4q5 -4 13 -9.5t17.5 -13t17.5 -14.5t13.5 -15t5.5 -13q0 -13 -24 -37q-114 -114 -260 -118l-7 -31q53 -2 86.5 -28.5
t33.5 -73.5v-11l-2 -10q-7 -37 -27 -55l-7 -6q-11 -10 -33 -19q-12 -4 -18 -5q-32 -7 -69 -2q-13 1 -25 6q-13 3 -28 10q-2 0 -11 5q-25 7 4 55q0 1 0.5 2t1.5 2t2 2.5t2.5 2.5t2.5 2q5 2 9 -1q32 -15 68 -16q9 0 13 1q4 0 10 2q14 6 20 18l3 8q1 3 1 9t-3 12q-17 31 -92 26
q-16 0 -17 3z" />
    <glyph glyph-name="egrave" unicode="&#xe8;" horiz-adv-x="642" 
d="M93 15q0 23 -0.5 39.5t-0.5 51.5q0 10 0.5 33t0.5 37v211q0 27 -1.5 86.5t-1 105.5t4.5 89q0 4 -0.5 10t-0.5 10q0 15 14 15q21 0 63 1t63 1q34 -3 90 -3q18 0 53 1.5t52 1.5q59 0 106 -4q3 0 9.5 0.5t9.5 0.5q17 0 17 -37q0 -7 -0.5 -19t-0.5 -19q0 -4 0.5 -12t0.5 -12
q0 -15 -15 -15q-119 0 -134 1q-26 0 -81.5 1t-86.5 1q-6 0 -19 -0.5t-19 -0.5q0 -6 0.5 -20t0.5 -20q0 -18 -0.5 -62t-0.5 -77q22 4 80.5 1.5t83.5 -0.5q4 0 15 0.5t18.5 0.5t17 -1t14.5 -4.5t6 -10.5q0 -5 -0.5 -18t-0.5 -20v-10q0 -2 0.5 -12.5t0 -16t-1.5 -13.5t-4 -11.5
t-8 -3.5q-4 0 -12 0.5t-11 0.5q-25 -2 -162 -2l-8 1h-15.5h-12.5q2 -14 0.5 -86.5t-1.5 -84.5q0 -8 12 -8q9 0 115.5 2.5t116.5 -1.5l63 1q46 -4 47 -17q0 -11 -0.5 -30.5t-0.5 -29.5q0 -4 0.5 -11.5t0.5 -11.5q0 -15 -14 -15q-5 0 -20 1t-33 1q-49 0 -73 -3q-11 2 -33 0.5
t-33 0.5h-162q-33 0 -35 -2q-2 0 -14 -0.5t-20 -0.5t-18 1.5t-15.5 5.5t-5.5 11zM368 777q-13 9 -32 22q-18 12 -55.5 38t-57.5 39q-11 9 -3 21l46 55q9 13 20 2q3 -2 7 -6l5 -4q35 -28 45 -38q11 -6 29.5 -24t26.5 -24q7 -7 15 -13l6 -5q11 -11 1 -22l-31 -38
q-10 -10 -22 -3z" />
    <glyph glyph-name="eacute" unicode="&#xe9;" horiz-adv-x="642" 
d="M93 15q0 23 -0.5 39.5t-0.5 51.5q0 10 0.5 33t0.5 37v211q0 27 -1.5 86.5t-1 105.5t4.5 89q0 4 -0.5 10t-0.5 10q0 15 14 15q21 0 63 1t63 1q34 -3 90 -3q18 0 53 1.5t52 1.5q59 0 106 -4q3 0 9.5 0.5t9.5 0.5q17 0 17 -37q0 -7 -0.5 -19t-0.5 -19q0 -4 0.5 -12t0.5 -12
q0 -15 -15 -15q-119 0 -134 1q-26 0 -81.5 1t-86.5 1q-6 0 -19 -0.5t-19 -0.5q0 -6 0.5 -20t0.5 -20q0 -18 -0.5 -62t-0.5 -77q22 4 80.5 1.5t83.5 -0.5q4 0 15 0.5t18.5 0.5t17 -1t14.5 -4.5t6 -10.5q0 -5 -0.5 -18t-0.5 -20v-10q0 -2 0.5 -12.5t0 -16t-1.5 -13.5t-4 -11.5
t-8 -3.5q-4 0 -12 0.5t-11 0.5q-25 -2 -162 -2l-8 1h-15.5h-12.5q2 -14 0.5 -86.5t-1.5 -84.5q0 -8 12 -8q9 0 115.5 2.5t116.5 -1.5l63 1q46 -4 47 -17q0 -11 -0.5 -30.5t-0.5 -29.5q0 -4 0.5 -11.5t0.5 -11.5q0 -15 -14 -15q-5 0 -20 1t-33 1q-49 0 -73 -3q-11 2 -33 0.5
t-33 0.5h-162q-33 0 -35 -2q-2 0 -14 -0.5t-20 -0.5t-18 1.5t-15.5 5.5t-5.5 11zM299 777q-12 -7 -22 3l-31 38q-10 11 1 22q3 2 6 5q8 6 15 13q8 6 26.5 24t29.5 24q10 10 45 38l5 4l7 6q11 11 20 -2l46 -55q8 -12 -3 -21q-20 -13 -57.5 -39t-55.5 -38z" />
    <glyph glyph-name="ecircumflex" unicode="&#xea;" horiz-adv-x="642" 
d="M93 15q0 23 -0.5 39.5t-0.5 51.5q0 10 0.5 33t0.5 37v211q0 27 -1.5 86.5t-1 105.5t4.5 89q0 4 -0.5 10t-0.5 10q0 15 14 15q21 0 63 1t63 1q34 -3 90 -3q18 0 53 1.5t52 1.5q59 0 106 -4q3 0 9.5 0.5t9.5 0.5q17 0 17 -37q0 -7 -0.5 -19t-0.5 -19q0 -4 0.5 -12t0.5 -12
q0 -15 -15 -15q-119 0 -134 1q-26 0 -81.5 1t-86.5 1q-6 0 -19 -0.5t-19 -0.5q0 -6 0.5 -20t0.5 -20q0 -18 -0.5 -62t-0.5 -77q22 4 80.5 1.5t83.5 -0.5q4 0 15 0.5t18.5 0.5t17 -1t14.5 -4.5t6 -10.5q0 -5 -0.5 -18t-0.5 -20v-10q0 -2 0.5 -12.5t0 -16t-1.5 -13.5t-4 -11.5
t-8 -3.5q-4 0 -12 0.5t-11 0.5q-25 -2 -162 -2l-8 1h-15.5h-12.5q2 -14 0.5 -86.5t-1.5 -84.5q0 -8 12 -8q9 0 115.5 2.5t116.5 -1.5l63 1q46 -4 47 -17q0 -11 -0.5 -30.5t-0.5 -29.5q0 -4 0.5 -11.5t0.5 -11.5q0 -15 -14 -15q-5 0 -20 1t-33 1q-49 0 -73 -3q-11 2 -33 0.5
t-33 0.5h-162q-33 0 -35 -2q-2 0 -14 -0.5t-20 -0.5t-18 1.5t-15.5 5.5t-5.5 11zM474 785h-86q-12 0 -21 12l-48 58l-48 -58q-9 -10 -15 -12q-4 -1 -41 -1q-53 0 -53 9q0 5 13 20t38 43.5t43 52.5q1 1 15.5 18.5t27.5 29.5t20 12q9 0 17.5 -6t18.5 -18.5t12 -14.5
q8 -9 27.5 -33.5t31.5 -36.5q54 -64 54 -69q0 -6 -6 -6z" />
    <glyph glyph-name="edieresis" unicode="&#xeb;" horiz-adv-x="642" 
d="M93 15q0 23 -0.5 39.5t-0.5 51.5q0 10 0.5 33t0.5 37v211q0 27 -1.5 86.5t-1 105.5t4.5 89q0 4 -0.5 10t-0.5 10q0 15 14 15q21 0 63 1t63 1q34 -3 90 -3q18 0 53 1.5t52 1.5q59 0 106 -4q3 0 9.5 0.5t9.5 0.5q17 0 17 -37q0 -7 -0.5 -19t-0.5 -19q0 -4 0.5 -12t0.5 -12
q0 -15 -15 -15q-119 0 -134 1q-26 0 -81.5 1t-86.5 1q-6 0 -19 -0.5t-19 -0.5q0 -6 0.5 -20t0.5 -20q0 -18 -0.5 -62t-0.5 -77q22 4 80.5 1.5t83.5 -0.5q4 0 15 0.5t18.5 0.5t17 -1t14.5 -4.5t6 -10.5q0 -5 -0.5 -18t-0.5 -20v-10q0 -2 0.5 -12.5t0 -16t-1.5 -13.5t-4 -11.5
t-8 -3.5q-4 0 -12 0.5t-11 0.5q-25 -2 -162 -2l-8 1h-15.5h-12.5q2 -14 0.5 -86.5t-1.5 -84.5q0 -8 12 -8q9 0 115.5 2.5t116.5 -1.5l63 1q46 -4 47 -17q0 -11 -0.5 -30.5t-0.5 -29.5q0 -4 0.5 -11.5t0.5 -11.5q0 -15 -14 -15q-5 0 -20 1t-33 1q-49 0 -73 -3q-11 2 -33 0.5
t-33 0.5h-162q-33 0 -35 -2q-2 0 -14 -0.5t-20 -0.5t-18 1.5t-15.5 5.5t-5.5 11zM285 845q0 -25 -19 -45.5t-45 -20.5q-13 0 -20 4q-18 4 -31 23t-13 39q0 25 18 44.5t46 19.5q25 0 44.5 -19.5t19.5 -44.5zM484 845q0 -25 -19 -45.5t-45 -20.5q-13 0 -20 4q-18 4 -31 23
t-13 39q0 25 18 44.5t46 19.5q25 0 44.5 -19.5t19.5 -44.5z" />
    <glyph glyph-name="igrave" unicode="&#xec;" horiz-adv-x="310" 
d="M217 257l-1 -55l2 -33q0 -93 1 -102q0 -2 0.5 -13.5t0 -18.5t-1.5 -16.5t-5 -14.5t-10 -5q-35 0 -69 3q-4 0 -12.5 -0.5t-12.5 -0.5q-5 0 -8 2.5t-5 7.5t-3.5 9.5t-1.5 12.5v13v13v11q1 12 2 35.5t2 35.5q0 28 -1.5 86.5t-1.5 88.5q0 6 0.5 17.5t0.5 17.5q0 17 -0.5 53
t-0.5 53l2 35q0 12 -0.5 35t-0.5 35q0 6 0.5 18t0.5 18l-2 35l2 35q0 4 -0.5 10t-0.5 10q0 3 1 5.5t2.5 4t3.5 2.5t5 2t5 1.5t6 0.5h6h6.5h5.5q3 0 16 0.5t22.5 0.5t20.5 -1t17.5 -5t6.5 -11q0 -9 -0.5 -27t-0.5 -27q0 -18 1 -52t1 -52q0 -12 -1 -24t-1 -24l2 -34
q-1 -5 -1 -191zM202 777q-13 9 -32 22q-18 12 -55.5 38t-57.5 39q-11 9 -3 21l46 55q9 13 20 2q3 -2 7 -6l5 -4q35 -28 45 -38q11 -6 29.5 -24t26.5 -24q7 -7 15 -13l6 -5q11 -11 1 -22l-31 -38q-10 -10 -22 -3z" />
    <glyph glyph-name="iacute" unicode="&#xed;" horiz-adv-x="310" 
d="M217 257l-1 -55l2 -33q0 -93 1 -102q0 -2 0.5 -13.5t0 -18.5t-1.5 -16.5t-5 -14.5t-10 -5q-35 0 -69 3q-4 0 -12.5 -0.5t-12.5 -0.5q-5 0 -8 2.5t-5 7.5t-3.5 9.5t-1.5 12.5v13v13v11q1 12 2 35.5t2 35.5q0 28 -1.5 86.5t-1.5 88.5q0 6 0.5 17.5t0.5 17.5q0 17 -0.5 53
t-0.5 53l2 35q0 12 -0.5 35t-0.5 35q0 6 0.5 18t0.5 18l-2 35l2 35q0 4 -0.5 10t-0.5 10q0 3 1 5.5t2.5 4t3.5 2.5t5 2t5 1.5t6 0.5h6h6.5h5.5q3 0 16 0.5t22.5 0.5t20.5 -1t17.5 -5t6.5 -11q0 -9 -0.5 -27t-0.5 -27q0 -18 1 -52t1 -52q0 -12 -1 -24t-1 -24l2 -34
q-1 -5 -1 -191zM108 777q-12 -7 -22 3l-31 38q-10 11 1 22q3 2 6 5q8 6 15 13q8 6 26.5 24t29.5 24q10 10 45 38l5 4l7 6q11 11 20 -2l46 -55q8 -12 -3 -21q-20 -13 -57.5 -39t-55.5 -38z" />
    <glyph glyph-name="icircumflex" unicode="&#xee;" horiz-adv-x="318" 
d="M221 257l-1 -55l2 -33q0 -93 1 -102q0 -2 0.5 -13.5t0 -18.5t-1.5 -16.5t-5 -14.5t-10 -5q-35 0 -69 3q-4 0 -12.5 -0.5t-12.5 -0.5q-5 0 -8 2.5t-5 7.5t-3.5 9.5t-1.5 12.5v13v13v11q1 12 2 35.5t2 35.5q0 28 -1.5 86.5t-1.5 88.5q0 6 0.5 17.5t0.5 17.5q0 17 -0.5 53
t-0.5 53l2 35q0 12 -0.5 35t-0.5 35q0 6 0.5 18t0.5 18l-2 35l2 35q0 4 -0.5 10t-0.5 10q0 3 1 5.5t2.5 4t3.5 2.5t5 2t5 1.5t6 0.5h6h6.5h5.5q3 0 16 0.5t22.5 0.5t20.5 -1t17.5 -5t6.5 -11q0 -9 -0.5 -27t-0.5 -27q0 -18 1 -52t1 -52q0 -12 -1 -24t-1 -24l2 -34
q-1 -5 -1 -191zM312 785h-86q-12 0 -21 12l-48 58l-48 -58q-9 -10 -15 -12q-4 -1 -41 -1q-53 0 -53 9q0 5 13 20t38 43.5t43 52.5q1 1 15.5 18.5t27.5 29.5t20 12q9 0 17.5 -6t18.5 -18.5t12 -14.5q8 -9 27.5 -33.5t31.5 -36.5q54 -64 54 -69q0 -6 -6 -6z" />
    <glyph glyph-name="idieresis" unicode="&#xef;" horiz-adv-x="327" 
d="M225 257l-1 -55l2 -33q0 -93 1 -102q0 -2 0.5 -13.5t0 -18.5t-1.5 -16.5t-5 -14.5t-10 -5q-35 0 -69 3q-4 0 -12.5 -0.5t-12.5 -0.5q-5 0 -8 2.5t-5 7.5t-3.5 9.5t-1.5 12.5v13v13v11q1 12 2 35.5t2 35.5q0 28 -1.5 86.5t-1.5 88.5q0 6 0.5 17.5t0.5 17.5q0 17 -0.5 53
t-0.5 53l2 35q0 12 -0.5 35t-0.5 35q0 6 0.5 18t0.5 18l-2 35l2 35q0 4 -0.5 10t-0.5 10q0 3 1 5.5t2.5 4t3.5 2.5t5 2t5 1.5t6 0.5h6h6.5h5.5q3 0 16 0.5t22.5 0.5t20.5 -1t17.5 -5t6.5 -11q0 -9 -0.5 -27t-0.5 -27q0 -18 1 -52t1 -52q0 -12 -1 -24t-1 -24l2 -34
q-1 -5 -1 -191zM128 845q0 -25 -19 -45.5t-45 -20.5q-13 0 -20 4q-18 4 -31 23t-13 39q0 25 18 44.5t46 19.5q25 0 44.5 -19.5t19.5 -44.5zM327 845q0 -25 -19 -45.5t-45 -20.5q-13 0 -20 4q-18 4 -31 23t-13 39q0 25 18 44.5t46 19.5q25 0 44.5 -19.5t19.5 -44.5z" />
    <glyph glyph-name="eth" unicode="&#xf0;" horiz-adv-x="787" 
d="M27 402l95 1q2 26 2 37q0 97 -1 156t-1 88q0 11 5 14.5t20 3.5h3q6 2 22 2q8 0 22.5 -0.5t18.5 -0.5q6 0 18.5 1t19.5 1q16 0 43.5 0.5t39.5 0.5q65 0 123 -13q91 -12 170 -83q52 -68 71 -127t19 -157q0 -102 -56.5 -189t-152.5 -115q-20 -7 -45.5 -12t-41 -6.5t-48.5 -3
t-41 -2.5q-23 0 -53.5 1t-54.5 1h-19q-5 0 -16.5 -0.5t-17.5 -0.5q-35 0 -41.5 10t-6.5 55q0 13 1 15q0 7 -0.5 21t-0.5 21q0 18 1 53.5t1 53.5q0 20 -2 60q-85 -1 -95 6q-9 6 -7 34q1 16 1 26q0 41 5 48zM248 116h6h8q8 -1 17.5 -1.5t11.5 -0.5h8q7 0 23 0.5t24 0.5
q14 0 21 -1q215 12 217 237q-7 90 -31 142q-21 30 -43 49t-48.5 28t-43.5 12t-51 6h-76q-13 0 -22 -0.5t-21 -0.5q0 -23 1 -68t1 -67q0 -8 -0.5 -24t-0.5 -24l120 2q4 0 7 -1.5t5 -5t3 -7.5t1 -9.5v-9.5v-10v-9q0 -8 -0.5 -25t-0.5 -25q0 -11 -16.5 -13.5t-67.5 -2.5h-10
h-41q0 -12 0.5 -36t0.5 -35q0 -44 -2 -65v-36z" />
    <glyph glyph-name="ntilde" unicode="&#xf1;" horiz-adv-x="781" 
d="M92 16q0 15 -1 45t-1 45q0 6 0.5 17.5t0.5 17.5t-0.5 18t-0.5 18q0 79 1 225t1 233q0 5 0.5 17t0.5 17t-0.5 13t-0.5 12q0 13 11 13q5 0 10 -3q73 -75 123 -119q113 -102 329 -316q2 14 2 21q0 26 -1.5 79t-1.5 80l2 36q0 12 -0.5 36.5t-0.5 36.5l3 36q0 6 -0.5 18
t-0.5 18t0.5 18.5t0.5 18.5l-2 22q0 6 2.5 9.5t7.5 4.5t9 1.5t12 0t10 -0.5q4 0 16.5 0.5t22.5 0.5t21 -1t17.5 -4.5t6.5 -10.5q0 -9 -0.5 -28t-0.5 -29q0 -12 0.5 -35.5t0.5 -35.5q0 -64 -0.5 -206.5t-0.5 -207.5q0 -6 -0.5 -17.5t-0.5 -17.5q0 -9 1 -27.5t1 -28.5
q0 -8 -0.5 -23t-0.5 -22v-8q0 -9 -9 -9q-10 0 -16 7q-105 105 -172 164q-46 51 -100.5 101.5t-59.5 55.5q-19 19 -58.5 56t-58.5 56l2 -35q-1 -12 -1 -145v-182q-1 -16 -1.5 -30.5t-1 -21t0 -12t-2.5 -7t-4 -2.5t-9 -1t-14 -1l-52 5q-5 0 -13 -0.5t-13 -0.5q-15 0 -15 15z
M516 902h62q5 0 9 -4t3 -9q-10 -39 -29 -64l-5 -6q-16 -18 -29 -26l-7 -4q-26 -13 -72 -13h-4q-28 2 -52 19l-6 5q-5 3 -22 14t-28 15q-1 0 -3.5 0.5t-3.5 0.5q-29 0 -40 -24q-3 -2 -4 -7q0 -1 -2 -3.5t-3 -4.5t-1 -3q-3 -7 -14 -7h-58q-3 0 -5 1q-6 4 -6.5 10.5t2.5 15.5
t3 13q2 2 2 5l2 4q21 38 28 45q1 3 6 5q12 11 32 19q1 1 2 1t1.5 0.5t1.5 0.5l25 6q3 0 5 1q3 0 7 0.5t6 0.5q4 0 7 1q32 1 70 -22l7 -4q33 -24 47 -26q37 -5 50 31q4 13 16 13z" />
    <glyph glyph-name="ograve" unicode="&#xf2;" 
d="M799 351q0 -43 -5 -74q-3 -20 -9.5 -39.5t-12 -32t-15 -32t-14.5 -30.5q-31 -44 -64.5 -73.5t-73 -45.5t-65 -22.5t-69.5 -14.5q-6 0 -18 0.5t-18 0.5q-64 -5 -141 24q-53 19 -92.5 48.5t-63.5 62t-39 73.5t-21 77t-8 79q5 279 254 349q30 8 111 15q6 0 18 -0.5t18 -0.5
q95 -3 172.5 -57.5t118 -136.5t37.5 -170zM435 108q70 0 118.5 24t71.5 63.5t32 77t9 78.5q-8 97 -42 145q-22 31 -46 51t-54.5 29t-43 11t-45.5 5q-34 -2 -63 -8.5t-48.5 -14t-36 -21t-25.5 -23t-18 -26.5t-12 -25.5t-9 -26.5t-7 -22q-30 -130 30 -216q71 -101 189 -101z
M456 777q-13 9 -32 22q-18 12 -55.5 38t-57.5 39q-11 9 -3 21l46 55q9 13 20 2q3 -2 7 -6l5 -4q35 -28 45 -38q11 -6 29.5 -24t26.5 -24q7 -7 15 -13l6 -5q11 -11 1 -22l-31 -38q-10 -10 -22 -3z" />
    <glyph glyph-name="oacute" unicode="&#xf3;" 
d="M799 351q0 -43 -5 -74q-3 -20 -9.5 -39.5t-12 -32t-15 -32t-14.5 -30.5q-31 -44 -64.5 -73.5t-73 -45.5t-65 -22.5t-69.5 -14.5q-6 0 -18 0.5t-18 0.5q-64 -5 -141 24q-53 19 -92.5 48.5t-63.5 62t-39 73.5t-21 77t-8 79q5 279 254 349q30 8 111 15q6 0 18 -0.5t18 -0.5
q95 -3 172.5 -57.5t118 -136.5t37.5 -170zM435 108q70 0 118.5 24t71.5 63.5t32 77t9 78.5q-8 97 -42 145q-22 31 -46 51t-54.5 29t-43 11t-45.5 5q-34 -2 -63 -8.5t-48.5 -14t-36 -21t-25.5 -23t-18 -26.5t-12 -25.5t-9 -26.5t-7 -22q-30 -130 30 -216q71 -101 189 -101z
M416 777q-12 -7 -22 3l-31 38q-10 11 1 22q3 2 6 5q8 6 15 13q8 6 26.5 24t29.5 24q10 10 45 38l5 4l7 6q11 11 20 -2l46 -55q8 -12 -3 -21q-20 -13 -57.5 -39t-55.5 -38z" />
    <glyph glyph-name="ocircumflex" unicode="&#xf4;" 
d="M799 351q0 -43 -5 -74q-3 -20 -9.5 -39.5t-12 -32t-15 -32t-14.5 -30.5q-31 -44 -64.5 -73.5t-73 -45.5t-65 -22.5t-69.5 -14.5q-6 0 -18 0.5t-18 0.5q-64 -5 -141 24q-53 19 -92.5 48.5t-63.5 62t-39 73.5t-21 77t-8 79q5 279 254 349q30 8 111 15q6 0 18 -0.5t18 -0.5
q95 -3 172.5 -57.5t118 -136.5t37.5 -170zM435 108q70 0 118.5 24t71.5 63.5t32 77t9 78.5q-8 97 -42 145q-22 31 -46 51t-54.5 29t-43 11t-45.5 5q-34 -2 -63 -8.5t-48.5 -14t-36 -21t-25.5 -23t-18 -26.5t-12 -25.5t-9 -26.5t-7 -22q-30 -130 30 -216q71 -101 189 -101z
M588 785h-86q-12 0 -21 12l-48 58l-48 -58q-9 -10 -15 -12q-4 -1 -41 -1q-53 0 -53 9q0 5 13 20t38 43.5t43 52.5q1 1 15.5 18.5t27.5 29.5t20 12q9 0 17.5 -6t18.5 -18.5t12 -14.5q8 -9 27.5 -33.5t31.5 -36.5q54 -64 54 -69q0 -6 -6 -6z" />
    <glyph glyph-name="otilde" unicode="&#xf5;" 
d="M799 351q0 -43 -5 -74q-3 -20 -9.5 -39.5t-12 -32t-15 -32t-14.5 -30.5q-31 -44 -64.5 -73.5t-73 -45.5t-65 -22.5t-69.5 -14.5q-6 0 -18 0.5t-18 0.5q-64 -5 -141 24q-53 19 -92.5 48.5t-63.5 62t-39 73.5t-21 77t-8 79q5 279 254 349q30 8 111 15q6 0 18 -0.5t18 -0.5
q95 -3 172.5 -57.5t118 -136.5t37.5 -170zM435 108q70 0 118.5 24t71.5 63.5t32 77t9 78.5q-8 97 -42 145q-22 31 -46 51t-54.5 29t-43 11t-45.5 5q-34 -2 -63 -8.5t-48.5 -14t-36 -21t-25.5 -23t-18 -26.5t-12 -25.5t-9 -26.5t-7 -22q-30 -130 30 -216q71 -101 189 -101z
M561 902h62q5 0 9 -4t3 -9q-10 -39 -29 -64l-5 -6q-16 -18 -29 -26l-7 -4q-26 -13 -72 -13h-4q-28 2 -52 19l-6 5q-5 3 -22 14t-28 15q-1 0 -3.5 0.5t-3.5 0.5q-30 0 -40 -24q-2 -2 -4 -7q0 -1 -2 -3.5t-3 -4.5t-1 -3q-3 -7 -14 -7h-58q-3 0 -5 1q-6 4 -6.5 10.5t2.5 15.5
t3 13q2 2 2 5l2 4q21 38 28 45q1 3 6 5q12 11 32 19q1 1 2 1t1.5 0.5t1.5 0.5l25 6q3 0 5 1q3 0 7 0.5t6 0.5q4 0 7 1q32 1 70 -22l7 -4q33 -24 47 -26q37 -5 50 31q4 13 16 13z" />
    <glyph glyph-name="odieresis" unicode="&#xf6;" 
d="M799 351q0 -43 -5 -74q-3 -20 -9.5 -39.5t-12 -32t-15 -32t-14.5 -30.5q-31 -44 -64.5 -73.5t-73 -45.5t-65 -22.5t-69.5 -14.5q-6 0 -18 0.5t-18 0.5q-64 -5 -141 24q-53 19 -92.5 48.5t-63.5 62t-39 73.5t-21 77t-8 79q5 279 254 349q30 8 111 15q6 0 18 -0.5t18 -0.5
q95 -3 172.5 -57.5t118 -136.5t37.5 -170zM435 108q70 0 118.5 24t71.5 63.5t32 77t9 78.5q-8 97 -42 145q-22 31 -46 51t-54.5 29t-43 11t-45.5 5q-34 -2 -63 -8.5t-48.5 -14t-36 -21t-25.5 -23t-18 -26.5t-12 -25.5t-9 -26.5t-7 -22q-30 -130 30 -216q71 -101 189 -101z
M399 845q0 -25 -19 -45.5t-45 -20.5q-13 0 -20 4q-18 4 -31 23t-13 39q0 25 18 44.5t46 19.5q25 0 44.5 -19.5t19.5 -44.5zM598 845q0 -25 -19 -45.5t-45 -20.5q-13 0 -20 4q-18 4 -31 23t-13 39q0 25 18 44.5t46 19.5q25 0 44.5 -19.5t19.5 -44.5z" />
    <glyph glyph-name="divide" unicode="&#xf7;" horiz-adv-x="546" 
d="M97 294l342 4q4 0 7 -1.5t5 -5t3 -7.5t1 -9.5v-9.5v-10v-9q0 -8 -0.5 -25t-0.5 -25q0 -11 -16.5 -13.5t-67.5 -2.5h-10l-133 1h-35q-84 -1 -95 6q-8 5 -6 32q1 17 1 27q0 41 5 48zM335 401q-9 -18 -15 -27.5t-20 -18.5t-33 -9q-14 0 -22 4q-19 4 -33 24.5t-14 42.5
q0 26 19.5 47.5t49.5 21.5q27 0 48 -21t21 -48q0 -10 -1 -16zM335 45q-9 -18 -15 -27.5t-20 -18.5t-33 -9q-14 0 -22 4q-19 4 -33 24.5t-14 42.5q0 26 19.5 47.5t49.5 21.5q27 0 48 -21t21 -48q0 -10 -1 -16z" />
    <glyph glyph-name="oslash" unicode="&#xf8;" 
d="M799 351q0 -43 -5 -74q-3 -20 -9.5 -39.5t-12 -32t-15 -32t-14.5 -30.5q-31 -44 -64.5 -73.5t-73 -45.5t-65 -22.5t-69.5 -14.5q-6 0 -18 0.5t-18 0.5q-64 -5 -141 24l-10 3q-15 -15 -25 -15q-44 0 -55 -1q-3 0 -14 -0.5t-18.5 -0.5t-16.5 1t-14 3.5t-5 6.5q0 14 44 68
q-102 89 -110 275q5 279 254 349q30 8 111 15q6 0 18 -0.5t18 -0.5q64 -3 118 -27q12 16 27 16q117 0 117 -9q0 -5 -12 -20q-7 -10 -19.5 -29t-15.5 -24q55 -52 85 -124.5t28 -146.5zM435 108q70 0 118.5 24t71.5 63.5t32 77t9 78.5q-8 97 -42 145l-10 13q-37 -56 -109 -158
l-74 -111q-14 -19 -27 -38.5t-27.5 -43t-23.5 -37.5q38 -13 82 -13zM364 351l75 111l80 116q-18 6 -84 14q-34 -2 -63 -8.5t-48.5 -14t-36 -21t-25.5 -23t-18 -26.5t-12 -25.5t-9 -26.5t-7 -22q-30 -130 30 -216l11 -15q79 121 107 157z" />
    <glyph glyph-name="ugrave" unicode="&#xf9;" horiz-adv-x="774" 
d="M90 291l2 37q0 12 -1 37t-1 38q0 12 2 38q0 6 -0.5 18.5t-0.5 18.5q0 15 1 47t1 48q0 3 -0.5 21.5t-0.5 34.5t0.5 34t3.5 29t8 11t14.5 -0.5t14.5 -0.5q11 0 34 1t35 1q14 0 14 -15q0 -17 -1 -49t-1 -49q0 -9 1.5 -31t1.5 -54v-65q0 -41 -1.5 -92t-1 -68t5.5 -42t18 -53
q1 -1 14 -19t25 -29.5t42 -23t69 -11.5q27 0 48 5l15 4q65 24 93 83q14 32 14 69l2 27q0 6 -0.5 18.5t-0.5 18.5t0.5 19t0.5 20q-3 36 -3 74q0 7 1 19.5t1 18.5q0 35 -1 105t-1 105q0 15 14 15q79 0 94 -2q6 0 9.5 -5t5 -14t2 -17.5t1 -20.5t0.5 -17q-3 -29 0 -75
q0 -6 -0.5 -18.5t-0.5 -18.5q0 -13 2 -75q0 -7 -1 -19.5t-1 -18.5q0 -13 0.5 -38t0.5 -37q0 -97 -10 -135q0 -3 -2 -8.5t-2 -8.5q-13 -38 -31 -67.5t-41.5 -48.5t-42 -29.5t-44.5 -22.5q-28 -16 -124 -23q-34 3 -73 9l-7 2q-7 1 -15 3t-20.5 6t-25 9t-26.5 13t-26.5 17.5
t-24.5 22.5t-21 28l-6 9q-27 36 -27 53q-16 42 -24 134zM411 777q-13 9 -32 22q-18 12 -55.5 38t-57.5 39q-11 9 -3 21l46 55q9 13 20 2q3 -2 7 -6l5 -4q35 -28 45 -38q11 -6 29.5 -24t26.5 -24q7 -7 15 -13l6 -5q11 -11 1 -22l-31 -38q-10 -10 -22 -3z" />
    <glyph glyph-name="uacute" unicode="&#xfa;" horiz-adv-x="774" 
d="M90 291l2 37q0 12 -1 37t-1 38q0 12 2 38q0 6 -0.5 18.5t-0.5 18.5q0 15 1 47t1 48q0 3 -0.5 21.5t-0.5 34.5t0.5 34t3.5 29t8 11t14.5 -0.5t14.5 -0.5q11 0 34 1t35 1q14 0 14 -15q0 -17 -1 -49t-1 -49q0 -9 1.5 -31t1.5 -54v-65q0 -41 -1.5 -92t-1 -68t5.5 -42t18 -53
q1 -1 14 -19t25 -29.5t42 -23t69 -11.5q27 0 48 5l15 4q65 24 93 83q14 32 14 69l2 27q0 6 -0.5 18.5t-0.5 18.5t0.5 19t0.5 20q-3 36 -3 74q0 7 1 19.5t1 18.5q0 35 -1 105t-1 105q0 15 14 15q79 0 94 -2q6 0 9.5 -5t5 -14t2 -17.5t1 -20.5t0.5 -17q-3 -29 0 -75
q0 -6 -0.5 -18.5t-0.5 -18.5q0 -13 2 -75q0 -7 -1 -19.5t-1 -18.5q0 -13 0.5 -38t0.5 -37q0 -97 -10 -135q0 -3 -2 -8.5t-2 -8.5q-13 -38 -31 -67.5t-41.5 -48.5t-42 -29.5t-44.5 -22.5q-28 -16 -124 -23q-34 3 -73 9l-7 2q-7 1 -15 3t-20.5 6t-25 9t-26.5 13t-26.5 17.5
t-24.5 22.5t-21 28l-6 9q-27 36 -27 53q-16 42 -24 134zM369 777q-12 -7 -22 3l-31 38q-10 11 1 22q3 2 6 5q8 6 15 13q8 6 26.5 24t29.5 24q10 10 45 38l5 4l7 6q11 11 20 -2l46 -55q8 -12 -3 -21q-20 -13 -57.5 -39t-55.5 -38z" />
    <glyph glyph-name="ucircumflex" unicode="&#xfb;" horiz-adv-x="774" 
d="M90 291l2 37q0 12 -1 37t-1 38q0 12 2 38q0 6 -0.5 18.5t-0.5 18.5q0 15 1 47t1 48q0 3 -0.5 21.5t-0.5 34.5t0.5 34t3.5 29t8 11t14.5 -0.5t14.5 -0.5q11 0 34 1t35 1q14 0 14 -15q0 -17 -1 -49t-1 -49q0 -9 1.5 -31t1.5 -54v-65q0 -41 -1.5 -92t-1 -68t5.5 -42t18 -53
q1 -1 14 -19t25 -29.5t42 -23t69 -11.5q27 0 48 5l15 4q65 24 93 83q14 32 14 69l2 27q0 6 -0.5 18.5t-0.5 18.5t0.5 19t0.5 20q-3 36 -3 74q0 7 1 19.5t1 18.5q0 35 -1 105t-1 105q0 15 14 15q79 0 94 -2q6 0 9.5 -5t5 -14t2 -17.5t1 -20.5t0.5 -17q-3 -29 0 -75
q0 -6 -0.5 -18.5t-0.5 -18.5q0 -13 2 -75q0 -7 -1 -19.5t-1 -18.5q0 -13 0.5 -38t0.5 -37q0 -97 -10 -135q0 -3 -2 -8.5t-2 -8.5q-13 -38 -31 -67.5t-41.5 -48.5t-42 -29.5t-44.5 -22.5q-28 -16 -124 -23q-34 3 -73 9l-7 2q-7 1 -15 3t-20.5 6t-25 9t-26.5 13t-26.5 17.5
t-24.5 22.5t-21 28l-6 9q-27 36 -27 53q-16 42 -24 134zM540 785h-86q-12 0 -21 12l-48 58l-48 -58q-9 -10 -15 -12q-4 -1 -41 -1q-53 0 -53 9q0 5 13 20t38 43.5t43 52.5q1 1 15.5 18.5t27.5 29.5t20 12q9 0 17.5 -6t18.5 -18.5t12 -14.5q8 -9 27.5 -33.5t31.5 -36.5
q54 -64 54 -69q0 -6 -6 -6z" />
    <glyph glyph-name="udieresis" unicode="&#xfc;" horiz-adv-x="774" 
d="M90 291l2 37q0 12 -1 37t-1 38q0 12 2 38q0 6 -0.5 18.5t-0.5 18.5q0 15 1 47t1 48q0 3 -0.5 21.5t-0.5 34.5t0.5 34t3.5 29t8 11t14.5 -0.5t14.5 -0.5q11 0 34 1t35 1q14 0 14 -15q0 -17 -1 -49t-1 -49q0 -9 1.5 -31t1.5 -54v-65q0 -41 -1.5 -92t-1 -68t5.5 -42t18 -53
q1 -1 14 -19t25 -29.5t42 -23t69 -11.5q27 0 48 5l15 4q65 24 93 83q14 32 14 69l2 27q0 6 -0.5 18.5t-0.5 18.5t0.5 19t0.5 20q-3 36 -3 74q0 7 1 19.5t1 18.5q0 35 -1 105t-1 105q0 15 14 15q79 0 94 -2q6 0 9.5 -5t5 -14t2 -17.5t1 -20.5t0.5 -17q-3 -29 0 -75
q0 -6 -0.5 -18.5t-0.5 -18.5q0 -13 2 -75q0 -7 -1 -19.5t-1 -18.5q0 -13 0.5 -38t0.5 -37q0 -97 -10 -135q0 -3 -2 -8.5t-2 -8.5q-13 -38 -31 -67.5t-41.5 -48.5t-42 -29.5t-44.5 -22.5q-28 -16 -124 -23q-34 3 -73 9l-7 2q-7 1 -15 3t-20.5 6t-25 9t-26.5 13t-26.5 17.5
t-24.5 22.5t-21 28l-6 9q-27 36 -27 53q-16 42 -24 134zM351 845q0 -25 -19 -45.5t-45 -20.5q-13 0 -20 4q-18 4 -31 23t-13 39q0 25 18 44.5t46 19.5q25 0 44.5 -19.5t19.5 -44.5zM550 845q0 -25 -19 -45.5t-45 -20.5q-13 0 -20 4q-18 4 -31 23t-13 39q0 25 18 44.5
t46 19.5q25 0 44.5 -19.5t19.5 -44.5z" />
    <glyph glyph-name="yacute" unicode="&#xfd;" horiz-adv-x="712" 
d="M427 528q46 79 104 164q8 12 17 12h23q60 0 71 -1q30 2 30 -6q0 -14 -49 -83q-36 -53 -75.5 -118t-82.5 -140t-44 -77q-2 -30 -2.5 -63.5t0.5 -78t1 -67.5q0 -3 0.5 -15t0 -19t-1.5 -16t-5 -14t-10 -6q-32 0 -48 -1q-16 1 -53 1q-11 3 -11 70q0 190 -1 209q-1 2 -44 77
t-82.5 140t-75.5 118q-49 74 -49 83q0 8 30 6q11 1 94 1q9 0 23 -19q5 -7 26 -40.5t43 -66.5q16 -24 33 -52t36.5 -62t30.5 -53q4 7 30.5 50.5t40.5 66.5zM332 777q-12 -7 -22 3l-31 38q-10 11 1 22q3 2 6 5q8 6 15 13q8 6 26.5 24t29.5 24q10 10 45 38l5 4l7 6q11 11 20 -2
l46 -55q8 -12 -3 -21q-20 -13 -57.5 -39t-55.5 -38z" />
    <glyph glyph-name="thorn" unicode="&#xfe;" horiz-adv-x="641" 
d="M282 107h-67v-95q0 -10 -9.5 -12t-48.5 -2h-11h-13h-12t-11.5 1t-9 2.5t-7 4t-2.5 5.5v9v26.5t0.5 34.5t0.5 38.5v34.5q0 18 -2 56q0 2 0.5 5.5t0.5 5.5q0 56 -1 59q2 38 2 57q0 24 -1 36q0 37 0.5 100.5t0.5 90.5l-1 124q0 10 10 11.5t71 1.5h7h8h8t8 -1t6 -2.5t4.5 -4
t1.5 -5.5v-82q44 2 67 2q12 0 34.5 -2t33.5 -2q88 -17 114 -34q107 -61 107 -226q0 -40 -10 -70q-40 -88 -101.5 -127.5t-177.5 -39.5zM297 486h-82q-1 0 -1 -6.5t0.5 -18t1 -24t1 -27.5t0.5 -26q0 -4 -1 -14t-1 -14q0 -5 0.5 -15t0.5 -15v-23.5v-21.5v-19t-0.5 -16
t-0.5 -12v-8v-3h82q72 0 106 38t34 95q0 130 -140 130z" />
    <glyph glyph-name="ydieresis" unicode="&#xff;" horiz-adv-x="712" 
d="M427 528q46 79 104 164q8 12 17 12h23q60 0 71 -1q30 2 30 -6q0 -14 -49 -83q-36 -53 -75.5 -118t-82.5 -140t-44 -77q-2 -30 -2.5 -63.5t0.5 -78t1 -67.5q0 -3 0.5 -15t0 -19t-1.5 -16t-5 -14t-10 -6q-32 0 -48 -1q-16 1 -53 1q-11 3 -11 70q0 190 -1 209q-1 2 -44 77
t-82.5 140t-75.5 118q-49 74 -49 83q0 8 30 6q11 1 94 1q9 0 23 -19q5 -7 26 -40.5t43 -66.5q16 -24 33 -52t36.5 -62t30.5 -53q4 7 30.5 50.5t40.5 66.5zM320 813q0 -25 -19 -45.5t-45 -20.5q-13 0 -20 4q-18 4 -31 23t-13 39q0 25 18 44.5t46 19.5q25 0 44.5 -19.5
t19.5 -44.5zM519 813q0 -25 -19 -45.5t-45 -20.5q-13 0 -20 4q-18 4 -31 23t-13 39q0 25 18 44.5t46 19.5q25 0 44.5 -19.5t19.5 -44.5z" />
    <glyph glyph-name="Amacron" unicode="&#x100;" horiz-adv-x="777" 
d="M594 9q0 8 -7 23.5t-13 27.5l-6 11l-29 60h-303l-28 -61q-4 -5 -11.5 -25t-17 -33t-24.5 -13q-3 0 -15 1h-12l-36 -1l-4 -1h-10.5h-12.5q-15 0 -15 11q0 7 10 24.5t25.5 47.5t25.5 61l32 66l32 65l30 70l32 68l31 66l17 32l14 34l17 33l11 26l27 58q25 52 35 52
q6 0 14 -9.5t16 -25.5t14.5 -30.5t13.5 -31.5t10 -23q54 -114 51 -116l32 -66l32 -68l14 -36q8 -16 21.5 -45.5t19.5 -40.5q1 -3 6.5 -14t10.5 -22l5 -10l34 -65l30 -67q-2 1 0 -2q14 -23 14 -30q0 -4 -4 -6.5t-13 -3.5t-16 -1t-19.5 0.5t-17.5 0.5h-15q-4 0 -12 -1t-12 -1
q-17 0 -24 11zM387 470l-15 -33l-15 -32l-29 -66l-30 -67l-13 -32h206l-16 32l-28 67l-30 66zM502 782h-48q-14 -1 -41 -1t-40 1h-99q-12 0 -12 17v52q0 10 3.5 13.5t13.5 3.5h6q19 1 58 1h9q13 -1 37 -1q26 0 29 1h31q3 0 8.5 -0.5t8.5 -0.5h10q34 0 37 -4q1 -3 1 -8v-62
q0 -12 -12 -12z" />
    <glyph glyph-name="amacron" unicode="&#x101;" horiz-adv-x="777" 
d="M594 9q0 8 -7 23.5t-13 27.5l-6 11l-29 60h-303l-28 -61q-4 -5 -11.5 -25t-17 -33t-24.5 -13q-3 0 -15 1h-12l-36 -1l-4 -1h-10.5h-12.5q-15 0 -15 11q0 7 10 24.5t25.5 47.5t25.5 61l32 66l32 65l30 70l32 68l31 66l17 32l14 34l17 33l11 26l27 58q25 52 35 52
q6 0 14 -9.5t16 -25.5t14.5 -30.5t13.5 -31.5t10 -23q54 -114 51 -116l32 -66l32 -68l14 -36q8 -16 21.5 -45.5t19.5 -40.5q1 -3 6.5 -14t10.5 -22l5 -10l34 -65l30 -67q-2 1 0 -2q14 -23 14 -30q0 -4 -4 -6.5t-13 -3.5t-16 -1t-19.5 0.5t-17.5 0.5h-15q-4 0 -12 -1t-12 -1
q-17 0 -24 11zM387 470l-15 -33l-15 -32l-29 -66l-30 -67l-13 -32h206l-16 32l-28 67l-30 66zM502 782h-48q-14 -1 -41 -1t-40 1h-99q-12 0 -12 17v52q0 10 3.5 13.5t13.5 3.5h6q19 1 58 1h9q13 -1 37 -1q26 0 29 1h31q3 0 8.5 -0.5t8.5 -0.5h10q34 0 37 -4q1 -3 1 -8v-62
q0 -12 -12 -12z" />
    <glyph glyph-name="Abreve" unicode="&#x102;" horiz-adv-x="777" 
d="M594 9q0 8 -7 23.5t-13 27.5l-6 11l-29 60h-303l-28 -61q-4 -5 -11.5 -25t-17 -33t-24.5 -13q-3 0 -15 1h-12l-36 -1l-4 -1h-10.5h-12.5q-15 0 -15 11q0 7 10 24.5t25.5 47.5t25.5 61l32 66l32 65l30 70l32 68l31 66l17 32l14 34l17 33l11 26l27 58q25 52 35 52
q6 0 14 -9.5t16 -25.5t14.5 -30.5t13.5 -31.5t10 -23q54 -114 51 -116l32 -66l32 -68l14 -36q8 -16 21.5 -45.5t19.5 -40.5q1 -3 6.5 -14t10.5 -22l5 -10l34 -65l30 -67q-2 1 0 -2q14 -23 14 -30q0 -4 -4 -6.5t-13 -3.5t-16 -1t-19.5 0.5t-17.5 0.5h-15q-4 0 -12 -1t-12 -1
q-17 0 -24 11zM387 470l-15 -33l-15 -32l-29 -66l-30 -67l-13 -32h206l-16 32l-28 67l-30 66zM538 905q0 -11 -6 -31l-3 -10q-14 -31 -48 -60q-7 -5 -8 -5q-16 -10 -25 -13l-9 -3l-8 -3q-2 0 -4.5 -0.5t-3.5 -0.5q-39 -7 -80 2l-9 3q-14 5 -18 7l-9 5q-40 24 -56 57l-3 8
q-8 18 -11 44q0 12 12 12h64q5 0 9 -4q4 -3 5 -8q6 -27 32 -42q1 0 4 -1.5t4 -1.5q6 -2 9 -2q26 -6 49.5 11.5t28.5 43.5q4 4 9 4h64q13 0 11 -12z" />
    <glyph glyph-name="abreve" unicode="&#x103;" horiz-adv-x="777" 
d="M594 9q0 8 -7 23.5t-13 27.5l-6 11l-29 60h-303l-28 -61q-4 -5 -11.5 -25t-17 -33t-24.5 -13q-3 0 -15 1h-12l-36 -1l-4 -1h-10.5h-12.5q-15 0 -15 11q0 7 10 24.5t25.5 47.5t25.5 61l32 66l32 65l30 70l32 68l31 66l17 32l14 34l17 33l11 26l27 58q25 52 35 52
q6 0 14 -9.5t16 -25.5t14.5 -30.5t13.5 -31.5t10 -23q54 -114 51 -116l32 -66l32 -68l14 -36q8 -16 21.5 -45.5t19.5 -40.5q1 -3 6.5 -14t10.5 -22l5 -10l34 -65l30 -67q-2 1 0 -2q14 -23 14 -30q0 -4 -4 -6.5t-13 -3.5t-16 -1t-19.5 0.5t-17.5 0.5h-15q-4 0 -12 -1t-12 -1
q-17 0 -24 11zM387 470l-15 -33l-15 -32l-29 -66l-30 -67l-13 -32h206l-16 32l-28 67l-30 66zM538 905q0 -11 -6 -31l-3 -10q-14 -31 -48 -60q-7 -5 -8 -5q-16 -10 -25 -13l-9 -3l-8 -3q-2 0 -4.5 -0.5t-3.5 -0.5q-39 -7 -80 2l-9 3q-14 5 -18 7l-9 5q-40 24 -56 57l-3 8
q-8 18 -11 44q0 12 12 12h64q5 0 9 -4q4 -3 5 -8q6 -27 32 -42q1 0 4 -1.5t4 -1.5q6 -2 9 -2q26 -6 49.5 11.5t28.5 43.5q4 4 9 4h64q13 0 11 -12z" />
    <glyph glyph-name="Aogonek" unicode="&#x104;" horiz-adv-x="780" 
d="M740 -151l9 -45q2 -12 -9 -17l-7 -2l-7 -3q-38 -12 -67 -11h-11q-36 3 -58 24q-5 3 -8 8q-8 8 -15 22l-3 8q-5 14 -6 27v9q0 1 -0.5 5t-0.5 6q0 29 18 65q4 9 9 16l7 8l3 6l6 7q6 9 13 16q-14 2 -19 11q0 8 -7 23.5t-13 27.5l-6 11l-29 60h-303l-28 -61q-4 -5 -11.5 -25
t-17 -33t-24.5 -13q-3 0 -15 1h-12l-36 -1l-4 -1h-10.5h-12.5q-15 0 -15 11q0 7 10 24.5t25.5 47.5t25.5 61l32 66l32 65l30 70l32 68l31 66l17 32l14 34l17 33l11 26l27 58q25 52 35 52q6 0 14 -9.5t16 -25.5t14.5 -30.5t13.5 -31.5t10 -23q54 -114 51 -116l32 -66l32 -68
l14 -36q8 -16 21.5 -45.5t19.5 -40.5q1 -3 6.5 -14t10.5 -22l5 -10l34 -65l24 -54q1 -3 7 -13t9.5 -18t3.5 -14q0 -11 -31 -11q-2 -2 -12.5 -14.5t-14 -17t-11.5 -16t-11 -18.5t-6.5 -18t-4.5 -21q-1 -6 0 -11q0 -1 2 -7l3 -6q19 -32 75 -15q8 2 10 2q12 3 14 -8zM387 470
l-15 -33l-15 -32l-29 -66l-30 -67l-13 -32h206l-16 32l-28 67l-30 66z" />
    <glyph glyph-name="aogonek" unicode="&#x105;" horiz-adv-x="780" 
d="M740 -151l9 -45q2 -12 -9 -17l-7 -2l-7 -3q-38 -12 -67 -11h-11q-36 3 -58 24q-5 3 -8 8q-8 8 -15 22l-3 8q-5 14 -6 27v9q0 1 -0.5 5t-0.5 6q0 29 18 65q4 9 9 16l7 8l3 6l6 7q6 9 13 16q-14 2 -19 11q0 8 -7 23.5t-13 27.5l-6 11l-29 60h-303l-28 -61q-4 -5 -11.5 -25
t-17 -33t-24.5 -13q-3 0 -15 1h-12l-36 -1l-4 -1h-10.5h-12.5q-15 0 -15 11q0 7 10 24.5t25.5 47.5t25.5 61l32 66l32 65l30 70l32 68l31 66l17 32l14 34l17 33l11 26l27 58q25 52 35 52q6 0 14 -9.5t16 -25.5t14.5 -30.5t13.5 -31.5t10 -23q54 -114 51 -116l32 -66l32 -68
l14 -36q8 -16 21.5 -45.5t19.5 -40.5q1 -3 6.5 -14t10.5 -22l5 -10l34 -65l24 -54q1 -3 7 -13t9.5 -18t3.5 -14q0 -11 -31 -11q-2 -2 -12.5 -14.5t-14 -17t-11.5 -16t-11 -18.5t-6.5 -18t-4.5 -21q-1 -6 0 -11q0 -1 2 -7l3 -6q19 -32 75 -15q8 2 10 2q12 3 14 -8zM387 470
l-15 -33l-15 -32l-29 -66l-30 -67l-13 -32h206l-16 32l-28 67l-30 66z" />
    <glyph glyph-name="Cacute" unicode="&#x106;" horiz-adv-x="805" 
d="M440 111q36 3 67.5 13.5t49 20.5t44.5 29q3 3 12 11.5t14.5 14.5t13 11t11.5 5l10 -3l6 -4q5 -4 13 -9.5t17.5 -13t17.5 -14.5t13.5 -15t5.5 -13q0 -13 -24 -37q-118 -118 -271 -118q-21 1 -31.5 2t-56 11t-79.5 25.5t-77 50t-72 81.5q-30 58 -39.5 96t-14.5 95
q0 47 16 109q53 144 162 205q90 45 192 50q79 -1 119 -17t112 -66q10 -6 15 -10q49 -42 49 -63q0 -7 -5 -12q-60 -60 -77 -60q-7 0 -11 5q-78 98 -202 100q-58 -5 -102.5 -24t-69 -44.5t-39.5 -58t-19.5 -59t-4.5 -53.5q-9 -97 67.5 -170.5t167.5 -70.5zM405 777
q-12 -7 -22 3l-31 38q-10 11 1 22q3 2 6 5q8 6 15 13q8 6 26.5 24t29.5 24q10 10 45 38l5 4l7 6q11 11 20 -2l46 -55q8 -12 -3 -21q-20 -13 -57.5 -39t-55.5 -38z" />
    <glyph glyph-name="cacute" unicode="&#x107;" horiz-adv-x="805" 
d="M440 111q36 3 67.5 13.5t49 20.5t44.5 29q3 3 12 11.5t14.5 14.5t13 11t11.5 5l10 -3l6 -4q5 -4 13 -9.5t17.5 -13t17.5 -14.5t13.5 -15t5.5 -13q0 -13 -24 -37q-118 -118 -271 -118q-21 1 -31.5 2t-56 11t-79.5 25.5t-77 50t-72 81.5q-30 58 -39.5 96t-14.5 95
q0 47 16 109q53 144 162 205q90 45 192 50q79 -1 119 -17t112 -66q10 -6 15 -10q49 -42 49 -63q0 -7 -5 -12q-60 -60 -77 -60q-7 0 -11 5q-78 98 -202 100q-58 -5 -102.5 -24t-69 -44.5t-39.5 -58t-19.5 -59t-4.5 -53.5q-9 -97 67.5 -170.5t167.5 -70.5zM405 777
q-12 -7 -22 3l-31 38q-10 11 1 22q3 2 6 5q8 6 15 13q8 6 26.5 24t29.5 24q10 10 45 38l5 4l7 6q11 11 20 -2l46 -55q8 -12 -3 -21q-20 -13 -57.5 -39t-55.5 -38z" />
    <glyph glyph-name="Ccaron" unicode="&#x10c;" horiz-adv-x="805" 
d="M440 111q36 3 67.5 13.5t49 20.5t44.5 29q3 3 12 11.5t14.5 14.5t13 11t11.5 5l10 -3l6 -4q5 -4 13 -9.5t17.5 -13t17.5 -14.5t13.5 -15t5.5 -13q0 -13 -24 -37q-118 -118 -271 -118q-21 1 -31.5 2t-56 11t-79.5 25.5t-77 50t-72 81.5q-30 58 -39.5 96t-14.5 95
q0 47 16 109q53 144 162 205q90 45 192 50q79 -1 119 -17t112 -66q10 -6 15 -10q49 -42 49 -63q0 -7 -5 -12q-60 -60 -77 -60q-7 0 -11 5q-78 98 -202 100q-58 -5 -102.5 -24t-69 -44.5t-39.5 -58t-19.5 -59t-4.5 -53.5q-9 -97 67.5 -170.5t167.5 -70.5zM492 962h86
q6 0 6 -6q0 -5 -54 -69q-12 -12 -31.5 -36.5t-27.5 -33.5q-2 -2 -12 -14.5t-18.5 -18.5t-17.5 -6q-7 0 -20 12t-27.5 29.5t-15.5 18.5q-18 24 -43 52.5t-38 43.5t-13 20q0 9 53 9q37 0 41 -1q6 -2 15 -12l48 -58l48 58q9 12 21 12z" />
    <glyph glyph-name="ccaron" unicode="&#x10d;" horiz-adv-x="805" 
d="M440 111q36 3 67.5 13.5t49 20.5t44.5 29q3 3 12 11.5t14.5 14.5t13 11t11.5 5l10 -3l6 -4q5 -4 13 -9.5t17.5 -13t17.5 -14.5t13.5 -15t5.5 -13q0 -13 -24 -37q-118 -118 -271 -118q-21 1 -31.5 2t-56 11t-79.5 25.5t-77 50t-72 81.5q-30 58 -39.5 96t-14.5 95
q0 47 16 109q53 144 162 205q90 45 192 50q79 -1 119 -17t112 -66q10 -6 15 -10q49 -42 49 -63q0 -7 -5 -12q-60 -60 -77 -60q-7 0 -11 5q-78 98 -202 100q-58 -5 -102.5 -24t-69 -44.5t-39.5 -58t-19.5 -59t-4.5 -53.5q-9 -97 67.5 -170.5t167.5 -70.5zM492 962h86
q6 0 6 -6q0 -5 -54 -69q-12 -12 -31.5 -36.5t-27.5 -33.5q-2 -2 -12 -14.5t-18.5 -18.5t-17.5 -6q-7 0 -20 12t-27.5 29.5t-15.5 18.5q-18 24 -43 52.5t-38 43.5t-13 20q0 9 53 9q37 0 41 -1q6 -2 15 -12l48 -58l48 58q9 12 21 12z" />
    <glyph glyph-name="Dcaron" unicode="&#x10e;" horiz-adv-x="755" 
d="M219 705q16 0 43.5 0.5t39.5 0.5q65 0 123 -13q91 -12 170 -83q52 -68 71 -127t19 -157q0 -102 -56.5 -189t-152.5 -115q-20 -7 -45.5 -12t-41 -6.5t-48.5 -3t-41 -2.5q-23 0 -53.5 1t-54.5 1h-19q-5 0 -16.5 -0.5t-17.5 -0.5q-35 0 -41.5 10t-6.5 55q0 13 1 15
q0 7 -0.5 21t-0.5 21q0 18 1 53.5t1 53.5q0 36 -3 70v77q0 17 1 36.5t1 28.5q0 97 -1 156t-1 88q0 11 5 14.5t20 3.5h3q6 2 22 2q8 0 22.5 -0.5t18.5 -0.5q7 0 19 1t19 1zM216 116h6h8q8 -1 17.5 -1.5t11.5 -0.5h8q7 0 23 0.5t24 0.5q14 0 21 -1q215 12 217 237
q-7 90 -31 142q-21 30 -43 49t-48.5 28t-43.5 12t-51 6h-76q-13 0 -22 -0.5t-21 -0.5q0 -23 1 -68t1 -67q0 -42 -3 -82q2 -30 2 -44v-29q0 -14 0.5 -40.5t0.5 -39.5q0 -44 -2 -65v-36zM396 953h86q6 0 6 -6q0 -5 -54 -69q-12 -12 -31.5 -36.5t-27.5 -33.5q-2 -2 -12 -14.5
t-18.5 -18.5t-17.5 -6q-7 0 -20 12t-27.5 29.5t-15.5 18.5q-18 24 -43 52.5t-38 43.5t-13 20q0 9 53 9q37 0 41 -1q6 -1 15 -12l48 -58l48 58q9 12 21 12z" />
    <glyph glyph-name="dcaron" unicode="&#x10f;" horiz-adv-x="755" 
d="M219 705q16 0 43.5 0.5t39.5 0.5q65 0 123 -13q91 -12 170 -83q52 -68 71 -127t19 -157q0 -102 -56.5 -189t-152.5 -115q-20 -7 -45.5 -12t-41 -6.5t-48.5 -3t-41 -2.5q-23 0 -53.5 1t-54.5 1h-19q-5 0 -16.5 -0.5t-17.5 -0.5q-35 0 -41.5 10t-6.5 55q0 13 1 15
q0 7 -0.5 21t-0.5 21q0 18 1 53.5t1 53.5q0 36 -3 70v77q0 17 1 36.5t1 28.5q0 97 -1 156t-1 88q0 11 5 14.5t20 3.5h3q6 2 22 2q8 0 22.5 -0.5t18.5 -0.5q7 0 19 1t19 1zM216 116h6h8q8 -1 17.5 -1.5t11.5 -0.5h8q7 0 23 0.5t24 0.5q14 0 21 -1q215 12 217 237
q-7 90 -31 142q-21 30 -43 49t-48.5 28t-43.5 12t-51 6h-76q-13 0 -22 -0.5t-21 -0.5q0 -23 1 -68t1 -67q0 -42 -3 -82q2 -30 2 -44v-29q0 -14 0.5 -40.5t0.5 -39.5q0 -44 -2 -65v-36zM396 953h86q6 0 6 -6q0 -5 -54 -69q-12 -12 -31.5 -36.5t-27.5 -33.5q-2 -2 -12 -14.5
t-18.5 -18.5t-17.5 -6q-7 0 -20 12t-27.5 29.5t-15.5 18.5q-18 24 -43 52.5t-38 43.5t-13 20q0 9 53 9q37 0 41 -1q6 -1 15 -12l48 -58l48 58q9 12 21 12z" />
    <glyph glyph-name="Dcroat" unicode="&#x110;" horiz-adv-x="787" 
d="M27 402l95 1q2 26 2 37q0 97 -1 156t-1 88q0 11 5 14.5t20 3.5h3q6 2 22 2q8 0 22.5 -0.5t18.5 -0.5q6 0 18.5 1t19.5 1q16 0 43.5 0.5t39.5 0.5q65 0 123 -13q91 -12 170 -83q52 -68 71 -127t19 -157q0 -102 -56.5 -189t-152.5 -115q-20 -7 -45.5 -12t-41 -6.5t-48.5 -3
t-41 -2.5q-23 0 -53.5 1t-54.5 1h-19q-5 0 -16.5 -0.5t-17.5 -0.5q-35 0 -41.5 10t-6.5 55q0 13 1 15q0 7 -0.5 21t-0.5 21q0 18 1 53.5t1 53.5q0 20 -2 60q-85 -1 -95 6q-9 6 -7 34q1 16 1 26q0 41 5 48zM248 116h6h8q8 -1 17.5 -1.5t11.5 -0.5h8q7 0 23 0.5t24 0.5
q14 0 21 -1q215 12 217 237q-7 90 -31 142q-21 30 -43 49t-48.5 28t-43.5 12t-51 6h-76q-13 0 -22 -0.5t-21 -0.5q0 -23 1 -68t1 -67q0 -8 -0.5 -24t-0.5 -24l120 2q4 0 7 -1.5t5 -5t3 -7.5t1 -9.5v-9.5v-10v-9q0 -8 -0.5 -25t-0.5 -25q0 -11 -16.5 -13.5t-67.5 -2.5h-10
h-41q0 -12 0.5 -36t0.5 -35q0 -44 -2 -65v-36z" />
    <glyph glyph-name="dcroat" unicode="&#x111;" horiz-adv-x="787" 
d="M27 402l95 1q2 26 2 37q0 97 -1 156t-1 88q0 11 5 14.5t20 3.5h3q6 2 22 2q8 0 22.5 -0.5t18.5 -0.5q6 0 18.5 1t19.5 1q16 0 43.5 0.5t39.5 0.5q65 0 123 -13q91 -12 170 -83q52 -68 71 -127t19 -157q0 -102 -56.5 -189t-152.5 -115q-20 -7 -45.5 -12t-41 -6.5t-48.5 -3
t-41 -2.5q-23 0 -53.5 1t-54.5 1h-19q-5 0 -16.5 -0.5t-17.5 -0.5q-35 0 -41.5 10t-6.5 55q0 13 1 15q0 7 -0.5 21t-0.5 21q0 18 1 53.5t1 53.5q0 20 -2 60q-85 -1 -95 6q-9 6 -7 34q1 16 1 26q0 41 5 48zM248 116h6h8q8 -1 17.5 -1.5t11.5 -0.5h8q7 0 23 0.5t24 0.5
q14 0 21 -1q215 12 217 237q-7 90 -31 142q-21 30 -43 49t-48.5 28t-43.5 12t-51 6h-76q-13 0 -22 -0.5t-21 -0.5q0 -23 1 -68t1 -67q0 -8 -0.5 -24t-0.5 -24l120 2q4 0 7 -1.5t5 -5t3 -7.5t1 -9.5v-9.5v-10v-9q0 -8 -0.5 -25t-0.5 -25q0 -11 -16.5 -13.5t-67.5 -2.5h-10
h-41q0 -12 0.5 -36t0.5 -35q0 -44 -2 -65v-36z" />
    <glyph glyph-name="Emacron" unicode="&#x112;" horiz-adv-x="642" 
d="M93 15q0 23 -0.5 39.5t-0.5 51.5q0 10 0.5 33t0.5 37v211q0 27 -1.5 86.5t-1 105.5t4.5 89q0 4 -0.5 10t-0.5 10q0 15 14 15q21 0 63 1t63 1q34 -3 90 -3q18 0 53 1.5t52 1.5q59 0 106 -4q3 0 9.5 0.5t9.5 0.5q17 0 17 -37q0 -7 -0.5 -19t-0.5 -19q0 -4 0.5 -12t0.5 -12
q0 -15 -15 -15q-119 0 -134 1q-26 0 -81.5 1t-86.5 1q-6 0 -19 -0.5t-19 -0.5q0 -6 0.5 -20t0.5 -20q0 -18 -0.5 -62t-0.5 -77q22 4 80.5 1.5t83.5 -0.5q4 0 15 0.5t18.5 0.5t17 -1t14.5 -4.5t6 -10.5q0 -5 -0.5 -18t-0.5 -20v-10q0 -2 0.5 -12.5t0 -16t-1.5 -13.5t-4 -11.5
t-8 -3.5q-4 0 -12 0.5t-11 0.5q-25 -2 -162 -2l-8 1h-15.5h-12.5q2 -14 0.5 -86.5t-1.5 -84.5q0 -8 12 -8q9 0 115.5 2.5t116.5 -1.5l63 1q46 -4 47 -17q0 -11 -0.5 -30.5t-0.5 -29.5q0 -4 0.5 -11.5t0.5 -11.5q0 -15 -14 -15q-5 0 -20 1t-33 1q-49 0 -73 -3q-11 2 -33 0.5
t-33 0.5h-162q-33 0 -35 -2q-2 0 -14 -0.5t-20 -0.5t-18 1.5t-15.5 5.5t-5.5 11zM435 782h-48q-14 -1 -41 -1t-40 1h-99q-12 0 -12 17v52q0 10 3.5 13.5t13.5 3.5h6q19 1 58 1h9q13 -1 37 -1q26 0 29 1h31q3 0 8.5 -0.5t8.5 -0.5h10q34 0 37 -4q1 -3 1 -8v-62q0 -12 -12 -12
z" />
    <glyph glyph-name="emacron" unicode="&#x113;" horiz-adv-x="642" 
d="M93 15q0 23 -0.5 39.5t-0.5 51.5q0 10 0.5 33t0.5 37v211q0 27 -1.5 86.5t-1 105.5t4.5 89q0 4 -0.5 10t-0.5 10q0 15 14 15q21 0 63 1t63 1q34 -3 90 -3q18 0 53 1.5t52 1.5q59 0 106 -4q3 0 9.5 0.5t9.5 0.5q17 0 17 -37q0 -7 -0.5 -19t-0.5 -19q0 -4 0.5 -12t0.5 -12
q0 -15 -15 -15q-119 0 -134 1q-26 0 -81.5 1t-86.5 1q-6 0 -19 -0.5t-19 -0.5q0 -6 0.5 -20t0.5 -20q0 -18 -0.5 -62t-0.5 -77q22 4 80.5 1.5t83.5 -0.5q4 0 15 0.5t18.5 0.5t17 -1t14.5 -4.5t6 -10.5q0 -5 -0.5 -18t-0.5 -20v-10q0 -2 0.5 -12.5t0 -16t-1.5 -13.5t-4 -11.5
t-8 -3.5q-4 0 -12 0.5t-11 0.5q-25 -2 -162 -2l-8 1h-15.5h-12.5q2 -14 0.5 -86.5t-1.5 -84.5q0 -8 12 -8q9 0 115.5 2.5t116.5 -1.5l63 1q46 -4 47 -17q0 -11 -0.5 -30.5t-0.5 -29.5q0 -4 0.5 -11.5t0.5 -11.5q0 -15 -14 -15q-5 0 -20 1t-33 1q-49 0 -73 -3q-11 2 -33 0.5
t-33 0.5h-162q-33 0 -35 -2q-2 0 -14 -0.5t-20 -0.5t-18 1.5t-15.5 5.5t-5.5 11zM435 782h-48q-14 -1 -41 -1t-40 1h-99q-12 0 -12 17v52q0 10 3.5 13.5t13.5 3.5h6q19 1 58 1h9q13 -1 37 -1q26 0 29 1h31q3 0 8.5 -0.5t8.5 -0.5h10q34 0 37 -4q1 -3 1 -8v-62q0 -12 -12 -12
z" />
    <glyph glyph-name="Edotaccent" unicode="&#x116;" horiz-adv-x="642" 
d="M93 15q0 23 -0.5 39.5t-0.5 51.5q0 10 0.5 33t0.5 37v211q0 27 -1.5 86.5t-1 105.5t4.5 89q0 4 -0.5 10t-0.5 10q0 15 14 15q21 0 63 1t63 1q34 -3 90 -3q18 0 53 1.5t52 1.5q59 0 106 -4q3 0 9.5 0.5t9.5 0.5q17 0 17 -37q0 -7 -0.5 -19t-0.5 -19q0 -4 0.5 -12t0.5 -12
q0 -15 -15 -15q-119 0 -134 1q-26 0 -81.5 1t-86.5 1q-6 0 -19 -0.5t-19 -0.5q0 -6 0.5 -20t0.5 -20q0 -18 -0.5 -62t-0.5 -77q22 4 80.5 1.5t83.5 -0.5q4 0 15 0.5t18.5 0.5t17 -1t14.5 -4.5t6 -10.5q0 -5 -0.5 -18t-0.5 -20v-10q0 -2 0.5 -12.5t0 -16t-1.5 -13.5t-4 -11.5
t-8 -3.5q-4 0 -12 0.5t-11 0.5q-25 -2 -162 -2l-8 1h-15.5h-12.5q2 -14 0.5 -86.5t-1.5 -84.5q0 -8 12 -8q9 0 115.5 2.5t116.5 -1.5l63 1q46 -4 47 -17q0 -11 -0.5 -30.5t-0.5 -29.5q0 -4 0.5 -11.5t0.5 -11.5q0 -15 -14 -15q-5 0 -20 1t-33 1q-49 0 -73 -3q-11 2 -33 0.5
t-33 0.5h-162q-33 0 -35 -2q-2 0 -14 -0.5t-20 -0.5t-18 1.5t-15.5 5.5t-5.5 11zM385 845q0 -25 -19 -45.5t-45 -20.5q-13 0 -20 4q-18 4 -31 23t-13 39q0 25 18 44.5t46 19.5q25 0 44.5 -19.5t19.5 -44.5z" />
    <glyph glyph-name="edotaccent" unicode="&#x117;" horiz-adv-x="642" 
d="M93 15q0 23 -0.5 39.5t-0.5 51.5q0 10 0.5 33t0.5 37v211q0 27 -1.5 86.5t-1 105.5t4.5 89q0 4 -0.5 10t-0.5 10q0 15 14 15q21 0 63 1t63 1q34 -3 90 -3q18 0 53 1.5t52 1.5q59 0 106 -4q3 0 9.5 0.5t9.5 0.5q17 0 17 -37q0 -7 -0.5 -19t-0.5 -19q0 -4 0.5 -12t0.5 -12
q0 -15 -15 -15q-119 0 -134 1q-26 0 -81.5 1t-86.5 1q-6 0 -19 -0.5t-19 -0.5q0 -6 0.5 -20t0.5 -20q0 -18 -0.5 -62t-0.5 -77q22 4 80.5 1.5t83.5 -0.5q4 0 15 0.5t18.5 0.5t17 -1t14.5 -4.5t6 -10.5q0 -5 -0.5 -18t-0.5 -20v-10q0 -2 0.5 -12.5t0 -16t-1.5 -13.5t-4 -11.5
t-8 -3.5q-4 0 -12 0.5t-11 0.5q-25 -2 -162 -2l-8 1h-15.5h-12.5q2 -14 0.5 -86.5t-1.5 -84.5q0 -8 12 -8q9 0 115.5 2.5t116.5 -1.5l63 1q46 -4 47 -17q0 -11 -0.5 -30.5t-0.5 -29.5q0 -4 0.5 -11.5t0.5 -11.5q0 -15 -14 -15q-5 0 -20 1t-33 1q-49 0 -73 -3q-11 2 -33 0.5
t-33 0.5h-162q-33 0 -35 -2q-2 0 -14 -0.5t-20 -0.5t-18 1.5t-15.5 5.5t-5.5 11zM385 845q0 -25 -19 -45.5t-45 -20.5q-13 0 -20 4q-18 4 -31 23t-13 39q0 25 18 44.5t46 19.5q25 0 44.5 -19.5t19.5 -44.5z" />
    <glyph glyph-name="Eogonek" unicode="&#x118;" horiz-adv-x="642" 
d="M541 -151l9 -45q2 -12 -9 -17l-7 -2l-7 -3q-38 -12 -67 -11h-11q-36 3 -58 24q-5 3 -8 8q-8 8 -15 22l-3 8q-5 14 -6 27v9q0 1 -0.5 5t-0.5 6q0 29 18 65q4 9 9 16l7 8l3 6l6 7q3 5 16 18q-7 0 -27 -1t-27 1h-162q-33 0 -35 -2q-2 0 -14 -0.5t-20 -0.5t-18 1.5t-15.5 5.5
t-5.5 11q0 23 -0.5 39.5t-0.5 51.5q0 10 0.5 33t0.5 37v211q0 27 -1.5 86.5t-1 105.5t4.5 89q0 4 -0.5 10t-0.5 10q0 15 14 15q21 0 63 1t63 1q34 -3 90 -3q18 0 53 1.5t52 1.5q59 0 106 -4q3 0 9.5 0.5t9.5 0.5q17 0 17 -37q0 -7 -0.5 -19t-0.5 -19q0 -4 0.5 -12t0.5 -12
q0 -15 -15 -15q-119 0 -134 1q-26 0 -81.5 1t-86.5 1q-6 0 -19 -0.5t-19 -0.5q0 -6 0.5 -20t0.5 -20q0 -18 -0.5 -62t-0.5 -77q22 4 80.5 1.5t83.5 -0.5q4 0 15 0.5t18.5 0.5t17 -1t14.5 -4.5t6 -10.5q0 -5 -0.5 -18t-0.5 -20v-10q0 -2 0.5 -12.5t0 -16t-1.5 -13.5t-4 -11.5
t-8 -3.5q-4 0 -12 0.5t-11 0.5q-25 -2 -162 -2l-8 1h-15.5h-12.5q2 -14 0.5 -86.5t-1.5 -84.5q0 -8 12 -8q9 0 115.5 2.5t116.5 -1.5l63 1q46 -4 47 -17q0 -11 -0.5 -30.5t-0.5 -29.5q0 -4 0.5 -11.5t0.5 -11.5q0 -15 -14 -15q-5 0 -20 1t-33 1h-5q0 -7 -4 -11l-5 -4l-5 -5
q-42 -44 -46 -88q-1 -6 0 -11q0 -1 2 -7l3 -6q19 -32 75 -15q8 2 10 2q12 3 14 -8z" />
    <glyph glyph-name="eogonek" unicode="&#x119;" horiz-adv-x="642" 
d="M541 -151l9 -45q2 -12 -9 -17l-7 -2l-7 -3q-38 -12 -67 -11h-11q-36 3 -58 24q-5 3 -8 8q-8 8 -15 22l-3 8q-5 14 -6 27v9q0 1 -0.5 5t-0.5 6q0 29 18 65q4 9 9 16l7 8l3 6l6 7q3 5 16 18q-7 0 -27 -1t-27 1h-162q-33 0 -35 -2q-2 0 -14 -0.5t-20 -0.5t-18 1.5t-15.5 5.5
t-5.5 11q0 23 -0.5 39.5t-0.5 51.5q0 10 0.5 33t0.5 37v211q0 27 -1.5 86.5t-1 105.5t4.5 89q0 4 -0.5 10t-0.5 10q0 15 14 15q21 0 63 1t63 1q34 -3 90 -3q18 0 53 1.5t52 1.5q59 0 106 -4q3 0 9.5 0.5t9.5 0.5q17 0 17 -37q0 -7 -0.5 -19t-0.5 -19q0 -4 0.5 -12t0.5 -12
q0 -15 -15 -15q-119 0 -134 1q-26 0 -81.5 1t-86.5 1q-6 0 -19 -0.5t-19 -0.5q0 -6 0.5 -20t0.5 -20q0 -18 -0.5 -62t-0.5 -77q22 4 80.5 1.5t83.5 -0.5q4 0 15 0.5t18.5 0.5t17 -1t14.5 -4.5t6 -10.5q0 -5 -0.5 -18t-0.5 -20v-10q0 -2 0.5 -12.5t0 -16t-1.5 -13.5t-4 -11.5
t-8 -3.5q-4 0 -12 0.5t-11 0.5q-25 -2 -162 -2l-8 1h-15.5h-12.5q2 -14 0.5 -86.5t-1.5 -84.5q0 -8 12 -8q9 0 115.5 2.5t116.5 -1.5l63 1q46 -4 47 -17q0 -11 -0.5 -30.5t-0.5 -29.5q0 -4 0.5 -11.5t0.5 -11.5q0 -15 -14 -15q-5 0 -20 1t-33 1h-5q0 -7 -4 -11l-5 -4l-5 -5
q-42 -44 -46 -88q-1 -6 0 -11q0 -1 2 -7l3 -6q19 -32 75 -15q8 2 10 2q12 3 14 -8z" />
    <glyph glyph-name="Ecaron" unicode="&#x11a;" horiz-adv-x="642" 
d="M93 15q0 23 -0.5 39.5t-0.5 51.5q0 10 0.5 33t0.5 37v211q0 27 -1.5 86.5t-1 105.5t4.5 89q0 4 -0.5 10t-0.5 10q0 15 14 15q21 0 63 1t63 1q34 -3 90 -3q18 0 53 1.5t52 1.5q59 0 106 -4q3 0 9.5 0.5t9.5 0.5q17 0 17 -37q0 -7 -0.5 -19t-0.5 -19q0 -4 0.5 -12t0.5 -12
q0 -15 -15 -15q-119 0 -134 1q-26 0 -81.5 1t-86.5 1q-6 0 -19 -0.5t-19 -0.5q0 -6 0.5 -20t0.5 -20q0 -18 -0.5 -62t-0.5 -77q22 4 80.5 1.5t83.5 -0.5q4 0 15 0.5t18.5 0.5t17 -1t14.5 -4.5t6 -10.5q0 -5 -0.5 -18t-0.5 -20v-10q0 -2 0.5 -12.5t0 -16t-1.5 -13.5t-4 -11.5
t-8 -3.5q-4 0 -12 0.5t-11 0.5q-25 -2 -162 -2l-8 1h-15.5h-12.5q2 -14 0.5 -86.5t-1.5 -84.5q0 -8 12 -8q9 0 115.5 2.5t116.5 -1.5l63 1q46 -4 47 -17q0 -11 -0.5 -30.5t-0.5 -29.5q0 -4 0.5 -11.5t0.5 -11.5q0 -15 -14 -15q-5 0 -20 1t-33 1q-49 0 -73 -3q-11 2 -33 0.5
t-33 0.5h-162q-33 0 -35 -2q-2 0 -14 -0.5t-20 -0.5t-18 1.5t-15.5 5.5t-5.5 11zM388 953h86q6 0 6 -6q0 -5 -54 -69q-12 -12 -31.5 -36.5t-27.5 -33.5q-2 -2 -12 -14.5t-18.5 -18.5t-17.5 -6q-7 0 -20 12t-27.5 29.5t-15.5 18.5q-18 24 -43 52.5t-38 43.5t-13 20q0 9 53 9
q37 0 41 -1q6 -1 15 -12l48 -58l48 58q9 12 21 12z" />
    <glyph glyph-name="ecaron" unicode="&#x11b;" horiz-adv-x="642" 
d="M93 15q0 23 -0.5 39.5t-0.5 51.5q0 10 0.5 33t0.5 37v211q0 27 -1.5 86.5t-1 105.5t4.5 89q0 4 -0.5 10t-0.5 10q0 15 14 15q21 0 63 1t63 1q34 -3 90 -3q18 0 53 1.5t52 1.5q59 0 106 -4q3 0 9.5 0.5t9.5 0.5q17 0 17 -37q0 -7 -0.5 -19t-0.5 -19q0 -4 0.5 -12t0.5 -12
q0 -15 -15 -15q-119 0 -134 1q-26 0 -81.5 1t-86.5 1q-6 0 -19 -0.5t-19 -0.5q0 -6 0.5 -20t0.5 -20q0 -18 -0.5 -62t-0.5 -77q22 4 80.5 1.5t83.5 -0.5q4 0 15 0.5t18.5 0.5t17 -1t14.5 -4.5t6 -10.5q0 -5 -0.5 -18t-0.5 -20v-10q0 -2 0.5 -12.5t0 -16t-1.5 -13.5t-4 -11.5
t-8 -3.5q-4 0 -12 0.5t-11 0.5q-25 -2 -162 -2l-8 1h-15.5h-12.5q2 -14 0.5 -86.5t-1.5 -84.5q0 -8 12 -8q9 0 115.5 2.5t116.5 -1.5l63 1q46 -4 47 -17q0 -11 -0.5 -30.5t-0.5 -29.5q0 -4 0.5 -11.5t0.5 -11.5q0 -15 -14 -15q-5 0 -20 1t-33 1q-49 0 -73 -3q-11 2 -33 0.5
t-33 0.5h-162q-33 0 -35 -2q-2 0 -14 -0.5t-20 -0.5t-18 1.5t-15.5 5.5t-5.5 11zM393 953h86q6 0 6 -6q0 -5 -54 -69q-12 -12 -31.5 -36.5t-27.5 -33.5q-2 -2 -12 -14.5t-18.5 -18.5t-17.5 -6q-7 0 -20 12t-27.5 29.5t-15.5 18.5q-18 24 -43 52.5t-38 43.5t-13 20q0 9 53 9
q37 0 41 -1q6 -1 15 -12l48 -58l48 58q9 12 21 12z" />
    <glyph glyph-name="Gbreve" unicode="&#x11e;" horiz-adv-x="806" 
d="M579 692q34 -13 88 -54t54 -69q0 -7 -5 -12l-3 -3q-3 -3 -7 -7.5t-10 -10.5l-11.5 -11.5t-12 -11t-12.5 -10t-11 -7t-8 -2.5q-7 0 -11 5q-34 41 -87 66.5t-108 26.5q-58 -5 -102 -24.5t-67.5 -44.5t-38 -58.5t-18.5 -59.5t-4 -53q4 -56 22 -110q48 -75 95.5 -99
t117.5 -29q82 6 160 60l14 14v68q0 3 -0.5 11t-0.5 15q-7 0 -19 -0.5t-19 -0.5q-20 0 -62.5 -0.5t-62.5 -0.5q-30 0 -38 7t-8 30q0 85 18 85q9 0 17 1t17 1q80 0 103 -2l35 1q82 0 105 -2q3 0 10 0.5t10 0.5q13 0 13 -14v-28l3 -37v-95v-12q0 -4 -0.5 -26.5t-0.5 -26.5
q6 -27 -23 -56q-118 -118 -271 -118q-79 2 -127 18q-118 39 -189 152q-30 58 -39.5 96t-14.5 95q0 48 16 110q53 144 162 205q79 40 192 50q95 -8 139 -23zM576 905q0 -11 -6 -31l-3 -10q-14 -31 -48 -60q-7 -5 -8 -5q-16 -10 -25 -13l-9 -3l-8 -3q-2 0 -4.5 -0.5t-3.5 -0.5
q-39 -7 -80 2l-9 3q-14 5 -18 7l-9 5q-40 24 -56 57l-3 8q-8 18 -11 44q0 12 12 12h64q5 0 9 -4q4 -3 5 -8q6 -27 32 -42q1 0 4 -1.5t4 -1.5q6 -2 9 -2q26 -6 49.5 11.5t28.5 43.5q4 4 9 4h64q13 0 11 -12z" />
    <glyph glyph-name="gbreve" unicode="&#x11f;" horiz-adv-x="806" 
d="M579 692q34 -13 88 -54t54 -69q0 -7 -5 -12l-3 -3q-3 -3 -7 -7.5t-10 -10.5l-11.5 -11.5t-12 -11t-12.5 -10t-11 -7t-8 -2.5q-7 0 -11 5q-34 41 -87 66.5t-108 26.5q-58 -5 -102 -24.5t-67.5 -44.5t-38 -58.5t-18.5 -59.5t-4 -53q4 -56 22 -110q48 -75 95.5 -99
t117.5 -29q82 6 160 60l14 14v68q0 3 -0.5 11t-0.5 15q-7 0 -19 -0.5t-19 -0.5q-20 0 -62.5 -0.5t-62.5 -0.5q-30 0 -38 7t-8 30q0 85 18 85q9 0 17 1t17 1q80 0 103 -2l35 1q82 0 105 -2q3 0 10 0.5t10 0.5q13 0 13 -14v-28l3 -37v-95v-12q0 -4 -0.5 -26.5t-0.5 -26.5
q6 -27 -23 -56q-118 -118 -271 -118q-79 2 -127 18q-118 39 -189 152q-30 58 -39.5 96t-14.5 95q0 48 16 110q53 144 162 205q79 40 192 50q95 -8 139 -23zM576 905q0 -11 -6 -31l-3 -10q-14 -31 -48 -60q-7 -5 -8 -5q-16 -10 -25 -13l-9 -3l-8 -3q-2 0 -4.5 -0.5t-3.5 -0.5
q-39 -7 -80 2l-9 3q-14 5 -18 7l-9 5q-40 24 -56 57l-3 8q-8 18 -11 44q0 12 12 12h64q5 0 9 -4q4 -3 5 -8q6 -27 32 -42q1 0 4 -1.5t4 -1.5q6 -2 9 -2q26 -6 49.5 11.5t28.5 43.5q4 4 9 4h64q13 0 11 -12z" />
    <glyph glyph-name="uni0122" unicode="&#x122;" horiz-adv-x="806" 
d="M579 692q34 -13 88 -54t54 -69q0 -7 -5 -12l-3 -3q-3 -3 -7 -7.5t-10 -10.5l-11.5 -11.5t-12 -11t-12.5 -10t-11 -7t-8 -2.5q-7 0 -11 5q-34 41 -87 66.5t-108 26.5q-58 -5 -102 -24.5t-67.5 -44.5t-38 -58.5t-18.5 -59.5t-4 -53q4 -56 22 -110q48 -75 95.5 -99
t117.5 -29q82 6 160 60l14 14v68q0 3 -0.5 11t-0.5 15q-7 0 -19 -0.5t-19 -0.5q-20 0 -62.5 -0.5t-62.5 -0.5q-30 0 -38 7t-8 30q0 85 18 85q9 0 17 1t17 1q80 0 103 -2l35 1q82 0 105 -2q3 0 10 0.5t10 0.5q13 0 13 -14v-28l3 -37v-95v-12q0 -4 -0.5 -26.5t-0.5 -26.5
q6 -27 -23 -56q-118 -118 -271 -118q-79 2 -127 18q-118 39 -189 152q-30 58 -39.5 96t-14.5 95q0 48 16 110q53 144 162 205q79 40 192 50q95 -8 139 -23zM508 -132q0 -117 -97 -197l-33 30q22 17 35 46.5t14 49.5l-10 4q-19 4 -33 24.5t-14 42.5q0 26 19.5 47.5t49.5 21.5
q28 0 48.5 -19.5t20.5 -49.5z" />
    <glyph glyph-name="uni0123" unicode="&#x123;" horiz-adv-x="806" 
d="M579 692q34 -13 88 -54t54 -69q0 -7 -5 -12l-3 -3q-3 -3 -7 -7.5t-10 -10.5l-11.5 -11.5t-12 -11t-12.5 -10t-11 -7t-8 -2.5q-7 0 -11 5q-34 41 -87 66.5t-108 26.5q-58 -5 -102 -24.5t-67.5 -44.5t-38 -58.5t-18.5 -59.5t-4 -53q4 -56 22 -110q48 -75 95.5 -99
t117.5 -29q82 6 160 60l14 14v68q0 3 -0.5 11t-0.5 15q-7 0 -19 -0.5t-19 -0.5q-20 0 -62.5 -0.5t-62.5 -0.5q-30 0 -38 7t-8 30q0 85 18 85q9 0 17 1t17 1q80 0 103 -2l35 1q82 0 105 -2q3 0 10 0.5t10 0.5q13 0 13 -14v-28l3 -37v-95v-12q0 -4 -0.5 -26.5t-0.5 -26.5
q6 -27 -23 -56q-118 -118 -271 -118q-79 2 -127 18q-118 39 -189 152q-30 58 -39.5 96t-14.5 95q0 48 16 110q53 144 162 205q79 40 192 50q95 -8 139 -23zM508 -132q0 -117 -97 -197l-33 30q22 17 35 46.5t14 49.5l-10 4q-19 4 -33 24.5t-14 42.5q0 26 19.5 47.5t49.5 21.5
q28 0 48.5 -19.5t20.5 -49.5z" />
    <glyph glyph-name="Imacron" unicode="&#x12a;" horiz-adv-x="310" 
d="M217 257l-1 -55l2 -33q0 -93 1 -102q0 -2 0.5 -13.5t0 -18.5t-1.5 -16.5t-5 -14.5t-10 -5q-35 0 -69 3q-4 0 -12.5 -0.5t-12.5 -0.5q-5 0 -8 2.5t-5 7.5t-3.5 9.5t-1.5 12.5v13v13v11q1 12 2 35.5t2 35.5q0 28 -1.5 86.5t-1.5 88.5q0 6 0.5 17.5t0.5 17.5q0 17 -0.5 53
t-0.5 53l2 35q0 12 -0.5 35t-0.5 35q0 6 0.5 18t0.5 18l-2 35l2 35q0 4 -0.5 10t-0.5 10q0 3 1 5.5t2.5 4t3.5 2.5t5 2t5 1.5t6 0.5h6h6.5h5.5q3 0 16 0.5t22.5 0.5t20.5 -1t17.5 -5t6.5 -11q0 -9 -0.5 -27t-0.5 -27q0 -18 1 -52t1 -52q0 -12 -1 -24t-1 -24l2 -34
q-1 -5 -1 -191zM269 782h-48q-14 -1 -41 -1t-40 1h-99q-12 0 -12 17v52q0 10 3.5 13.5t13.5 3.5h6q19 1 58 1h9q13 -1 37 -1q26 0 29 1h31q3 0 8.5 -0.5t8.5 -0.5h10q34 0 37 -4q1 -3 1 -8v-62q0 -12 -12 -12z" />
    <glyph glyph-name="imacron" unicode="&#x12b;" horiz-adv-x="310" 
d="M217 257l-1 -55l2 -33q0 -93 1 -102q0 -2 0.5 -13.5t0 -18.5t-1.5 -16.5t-5 -14.5t-10 -5q-35 0 -69 3q-4 0 -12.5 -0.5t-12.5 -0.5q-5 0 -8 2.5t-5 7.5t-3.5 9.5t-1.5 12.5v13v13v11q1 12 2 35.5t2 35.5q0 28 -1.5 86.5t-1.5 88.5q0 6 0.5 17.5t0.5 17.5q0 17 -0.5 53
t-0.5 53l2 35q0 12 -0.5 35t-0.5 35q0 6 0.5 18t0.5 18l-2 35l2 35q0 4 -0.5 10t-0.5 10q0 3 1 5.5t2.5 4t3.5 2.5t5 2t5 1.5t6 0.5h6h6.5h5.5q3 0 16 0.5t22.5 0.5t20.5 -1t17.5 -5t6.5 -11q0 -9 -0.5 -27t-0.5 -27q0 -18 1 -52t1 -52q0 -12 -1 -24t-1 -24l2 -34
q-1 -5 -1 -191zM269 782h-48q-14 -1 -41 -1t-40 1h-99q-12 0 -12 17v52q0 10 3.5 13.5t13.5 3.5h6q19 1 58 1h9q13 -1 37 -1q26 0 29 1h31q3 0 8.5 -0.5t8.5 -0.5h10q34 0 37 -4q1 -3 1 -8v-62q0 -12 -12 -12z" />
    <glyph glyph-name="Iogonek" unicode="&#x12e;" horiz-adv-x="310" 
d="M244 -151l9 -45q2 -12 -9 -17l-7 -2l-7 -3q-38 -12 -67 -11h-11q-36 3 -58 24q-5 3 -8 8q-8 8 -15 22l-3 8q-5 14 -6 27v9q0 1 -0.5 5t-0.5 6q0 29 18 65q4 9 9 16l7 8l3 6l6 7q8 11 16 19h-11q-5 0 -8 2.5t-5 7.5t-3.5 9.5t-1.5 12.5v13v13v11q1 12 2 35.5t2 35.5
q0 28 -1.5 86.5t-1.5 88.5q0 6 0.5 17.5t0.5 17.5q0 17 -0.5 53t-0.5 53l2 35q0 12 -0.5 35t-0.5 35q0 6 0.5 18t0.5 18l-2 35l2 35q0 4 -0.5 10t-0.5 10q0 3 1 5.5t2.5 4t3.5 2.5t5 2t5 1.5t6 0.5h6h6.5h5.5q3 0 16 0.5t22.5 0.5t20.5 -1t17.5 -5t6.5 -11q0 -9 -0.5 -27
t-0.5 -27q0 -18 1 -52t1 -52q0 -12 -1 -24t-1 -24l2 -34q-1 -5 -1 -191l-1 -55l2 -33q0 -93 1 -102q0 -2 0.5 -13.5t0 -18.5t-1.5 -16.5t-5 -14.5t-10 -5h-3q0 -2 -4 -8l-5 -4l-5 -5q-42 -44 -46 -88q-1 -6 0 -11q0 -1 2 -7l3 -6q19 -32 75 -15q8 2 10 2q12 3 14 -8z" />
    <glyph glyph-name="iogonek" unicode="&#x12f;" horiz-adv-x="310" 
d="M244 -151l9 -45q2 -12 -9 -17l-7 -2l-7 -3q-38 -12 -67 -11h-11q-36 3 -58 24q-5 3 -8 8q-8 8 -15 22l-3 8q-5 14 -6 27v9q0 1 -0.5 5t-0.5 6q0 29 18 65q4 9 9 16l7 8l3 6l6 7q8 11 16 19h-11q-5 0 -8 2.5t-5 7.5t-3.5 9.5t-1.5 12.5v13v13v11q1 12 2 35.5t2 35.5
q0 28 -1.5 86.5t-1.5 88.5q0 6 0.5 17.5t0.5 17.5q0 17 -0.5 53t-0.5 53l2 35q0 12 -0.5 35t-0.5 35q0 6 0.5 18t0.5 18l-2 35l2 35q0 4 -0.5 10t-0.5 10q0 3 1 5.5t2.5 4t3.5 2.5t5 2t5 1.5t6 0.5h6h6.5h5.5q3 0 16 0.5t22.5 0.5t20.5 -1t17.5 -5t6.5 -11q0 -9 -0.5 -27
t-0.5 -27q0 -18 1 -52t1 -52q0 -12 -1 -24t-1 -24l2 -34q-1 -5 -1 -191l-1 -55l2 -33q0 -93 1 -102q0 -2 0.5 -13.5t0 -18.5t-1.5 -16.5t-5 -14.5t-10 -5h-3q0 -2 -4 -8l-5 -4l-5 -5q-42 -44 -46 -88q-1 -6 0 -11q0 -1 2 -7l3 -6q19 -32 75 -15q8 2 10 2q12 3 14 -8z" />
    <glyph glyph-name="Idotaccent" unicode="&#x130;" horiz-adv-x="310" 
d="M217 257l-1 -55l2 -33q0 -93 1 -102q0 -2 0.5 -13.5t0 -18.5t-1.5 -16.5t-5 -14.5t-10 -5q-35 0 -69 3q-4 0 -12.5 -0.5t-12.5 -0.5q-5 0 -8 2.5t-5 7.5t-3.5 9.5t-1.5 12.5v13v13v11q1 12 2 35.5t2 35.5q0 28 -1.5 86.5t-1.5 88.5q0 6 0.5 17.5t0.5 17.5q0 17 -0.5 53
t-0.5 53l2 35q0 12 -0.5 35t-0.5 35q0 6 0.5 18t0.5 18l-2 35l2 35q0 4 -0.5 10t-0.5 10q0 3 1 5.5t2.5 4t3.5 2.5t5 2t5 1.5t6 0.5h6h6.5h5.5q3 0 16 0.5t22.5 0.5t20.5 -1t17.5 -5t6.5 -11q0 -9 -0.5 -27t-0.5 -27q0 -18 1 -52t1 -52q0 -12 -1 -24t-1 -24l2 -34
q-1 -5 -1 -191zM219 845q0 -25 -19 -45.5t-45 -20.5q-13 0 -20 4q-18 4 -31 23t-13 39q0 25 18 44.5t46 19.5q25 0 44.5 -19.5t19.5 -44.5z" />
    <glyph glyph-name="dotlessi" unicode="&#x131;" horiz-adv-x="310" 
d="M217 257l-1 -55l2 -33q0 -93 1 -102q0 -2 0.5 -13.5t0 -18.5t-1.5 -16.5t-5 -14.5t-10 -5q-35 0 -69 3q-4 0 -12.5 -0.5t-12.5 -0.5q-5 0 -8 2.5t-5 7.5t-3.5 9.5t-1.5 12.5v13v13v11q1 12 2 35.5t2 35.5q0 28 -1.5 86.5t-1.5 88.5q0 6 0.5 17.5t0.5 17.5q0 17 -0.5 53
t-0.5 53l2 35q0 12 -0.5 35t-0.5 35q0 6 0.5 18t0.5 18l-2 35l2 35q0 4 -0.5 10t-0.5 10q0 3 1 5.5t2.5 4t3.5 2.5t5 2t5 1.5t6 0.5h6h6.5h5.5q3 0 16 0.5t22.5 0.5t20.5 -1t17.5 -5t6.5 -11q0 -9 -0.5 -27t-0.5 -27q0 -18 1 -52t1 -52q0 -12 -1 -24t-1 -24l2 -34
q-1 -5 -1 -191z" />
    <glyph glyph-name="uni0136" unicode="&#x136;" horiz-adv-x="718" 
d="M91 17q0 3 -0.5 9.5t-0.5 9.5q3 34 3 70v528q0 9 -1 27.5t-1 28.5q0 14 14 14q11 0 34 -1t35 -1q4 0 12.5 0.5t12.5 0.5q7 0 10.5 -4t4.5 -7.5t2 -12t1 -10.5l-3 -35q0 -32 -0.5 -100t-0.5 -107v-16l54 1l65 85q21 24 61 73t64 77q1 1 7.5 11.5t10.5 16t11 13t13.5 11.5
t13.5 4q12 0 32.5 0.5t30.5 0.5q67 0 67 -8q0 -2 -2 -4q-5 -6 -43 -56t-59 -74q-19 -27 -77 -93t-89 -112l28 -28q87 -110 131 -163q48 -58 75 -88q0 -1 18 -18.5t30.5 -32.5t12.5 -20q0 -4 -4.5 -5.5t-14.5 -1.5l-10 -1q-7 0 -20 0.5t-19 0.5h-65q-9 0 -20 10.5t-23.5 27
t-19.5 22.5l-200 232q-2 0 -18 -0.5t-39 -0.5v-54q1 -45 1 -92.5v-76.5v-27.5t-2 -18.5t-2.5 -12t-6 -6t-6.5 -2h-11.5h-13.5q-4 0 -16.5 -1t-22 -1t-20 1t-17 5t-7.5 11zM401 -132q0 -117 -97 -197l-33 30q22 17 35 46.5t14 49.5l-10 4q-19 4 -33 24.5t-14 42.5
q0 26 19.5 47.5t49.5 21.5q28 0 48.5 -19.5t20.5 -49.5z" />
    <glyph glyph-name="uni0137" unicode="&#x137;" horiz-adv-x="718" 
d="M91 17q0 3 -0.5 9.5t-0.5 9.5q3 34 3 70v528q0 9 -1 27.5t-1 28.5q0 14 14 14q11 0 34 -1t35 -1q4 0 12.5 0.5t12.5 0.5q7 0 10.5 -4t4.5 -7.5t2 -12t1 -10.5l-3 -35q0 -32 -0.5 -100t-0.5 -107v-16l54 1l65 85q21 24 61 73t64 77q1 1 7.5 11.5t10.5 16t11 13t13.5 11.5
t13.5 4q12 0 32.5 0.5t30.5 0.5q67 0 67 -8q0 -2 -2 -4q-5 -6 -43 -56t-59 -74q-19 -27 -77 -93t-89 -112l28 -28q87 -110 131 -163q48 -58 75 -88q0 -1 18 -18.5t30.5 -32.5t12.5 -20q0 -4 -4.5 -5.5t-14.5 -1.5l-10 -1q-7 0 -20 0.5t-19 0.5h-65q-9 0 -20 10.5t-23.5 27
t-19.5 22.5l-200 232q-2 0 -18 -0.5t-39 -0.5v-54q1 -45 1 -92.5v-76.5v-27.5t-2 -18.5t-2.5 -12t-6 -6t-6.5 -2h-11.5h-13.5q-4 0 -16.5 -1t-22 -1t-20 1t-17 5t-7.5 11zM401 -132q0 -117 -97 -197l-33 30q22 17 35 46.5t14 49.5l-10 4q-19 4 -33 24.5t-14 42.5
q0 26 19.5 47.5t49.5 21.5q28 0 48.5 -19.5t20.5 -49.5z" />
    <glyph glyph-name="Lacute" unicode="&#x139;" horiz-adv-x="586" 
d="M214 270q0 -8 0.5 -24.5t0.5 -25.5q0 -6 -0.5 -17.5t-0.5 -17.5q0 -11 1 -33.5t1 -33.5q30 -3 160 -3q26 0 73 -0.5t67 -0.5q26 0 18 -77l-1 -10v-11q0 -5 -7.5 -10t-12.5 -5h-31l-35 -3q-36 3 -107 3q-12 -5 -104.5 -2t-102.5 3q-2 1 -8 1h-6q-10 0 -18.5 6.5t-8.5 15.5
q0 25 1 40t1 24q0 13 -1.5 48.5t-0.5 57.5l-2 36q0 35 3 70q-1 36 0 70.5t1 36.5q0 30 -1 129.5t0 151.5v3q10 15 23 15q4 0 12 -0.5t10 -0.5h4q4 0 12 -0.5t12 -0.5q2 0 8 0.5t8 0.5q12 0 19 -3t10 -10.5t3.5 -11.5t0 -14.5t-0.5 -12.5q0 -49 2 -74q0 -5 -0.5 -27.5
t-1 -94.5t-0.5 -188zM173 777q-12 -7 -22 3l-31 38q-10 11 1 22q3 2 6 5q8 6 15 13q8 6 26.5 24t29.5 24q10 10 45 38l5 4l7 6q11 11 20 -2l46 -55q8 -12 -3 -21q-20 -13 -57.5 -39t-55.5 -38z" />
    <glyph glyph-name="lacute" unicode="&#x13a;" horiz-adv-x="586" 
d="M214 270q0 -8 0.5 -24.5t0.5 -25.5q0 -6 -0.5 -17.5t-0.5 -17.5q0 -11 1 -33.5t1 -33.5q30 -3 160 -3q26 0 73 -0.5t67 -0.5q26 0 18 -77l-1 -10v-11q0 -5 -7.5 -10t-12.5 -5h-31l-35 -3q-36 3 -107 3q-12 -5 -104.5 -2t-102.5 3q-2 1 -8 1h-6q-10 0 -18.5 6.5t-8.5 15.5
q0 25 1 40t1 24q0 13 -1.5 48.5t-0.5 57.5l-2 36q0 35 3 70q-1 36 0 70.5t1 36.5q0 30 -1 129.5t0 151.5v3q10 15 23 15q4 0 12 -0.5t10 -0.5h4q4 0 12 -0.5t12 -0.5q2 0 8 0.5t8 0.5q12 0 19 -3t10 -10.5t3.5 -11.5t0 -14.5t-0.5 -12.5q0 -49 2 -74q0 -5 -0.5 -27.5
t-1 -94.5t-0.5 -188zM173 777q-12 -7 -22 3l-31 38q-10 11 1 22q3 2 6 5q8 6 15 13q8 6 26.5 24t29.5 24q10 10 45 38l5 4l7 6q11 11 20 -2l46 -55q8 -12 -3 -21q-20 -13 -57.5 -39t-55.5 -38z" />
    <glyph glyph-name="uni013B" unicode="&#x13b;" horiz-adv-x="586" 
d="M214 270q0 -8 0.5 -24.5t0.5 -25.5q0 -6 -0.5 -17.5t-0.5 -17.5q0 -11 1 -33.5t1 -33.5q30 -3 160 -3q26 0 73 -0.5t67 -0.5q26 0 18 -77l-1 -10v-11q0 -5 -7.5 -10t-12.5 -5h-31l-35 -3q-36 3 -107 3q-12 -5 -104.5 -2t-102.5 3q-2 1 -8 1h-6q-10 0 -18.5 6.5t-8.5 15.5
q0 25 1 40t1 24q0 13 -1.5 48.5t-0.5 57.5l-2 36q0 35 3 70q-1 36 0 70.5t1 36.5q0 30 -1 129.5t0 151.5v3q10 15 23 15q4 0 12 -0.5t10 -0.5h4q4 0 12 -0.5t12 -0.5q2 0 8 0.5t8 0.5q12 0 19 -3t10 -10.5t3.5 -11.5t0 -14.5t-0.5 -12.5q0 -49 2 -74q0 -5 -0.5 -27.5
t-1 -94.5t-0.5 -188zM381 -132q0 -117 -97 -197l-33 30q22 17 35 46.5t14 49.5l-10 4q-19 4 -33 24.5t-14 42.5q0 26 19.5 47.5t49.5 21.5q28 0 48.5 -19.5t20.5 -49.5z" />
    <glyph glyph-name="uni013C" unicode="&#x13c;" horiz-adv-x="586" 
d="M214 270q0 -8 0.5 -24.5t0.5 -25.5q0 -6 -0.5 -17.5t-0.5 -17.5q0 -11 1 -33.5t1 -33.5q30 -3 160 -3q26 0 73 -0.5t67 -0.5q26 0 18 -77l-1 -10v-11q0 -5 -7.5 -10t-12.5 -5h-31l-35 -3q-36 3 -107 3q-12 -5 -104.5 -2t-102.5 3q-2 1 -8 1h-6q-10 0 -18.5 6.5t-8.5 15.5
q0 25 1 40t1 24q0 13 -1.5 48.5t-0.5 57.5l-2 36q0 35 3 70q-1 36 0 70.5t1 36.5q0 30 -1 129.5t0 151.5v3q10 15 23 15q4 0 12 -0.5t10 -0.5h4q4 0 12 -0.5t12 -0.5q2 0 8 0.5t8 0.5q12 0 19 -3t10 -10.5t3.5 -11.5t0 -14.5t-0.5 -12.5q0 -49 2 -74q0 -5 -0.5 -27.5
t-1 -94.5t-0.5 -188zM381 -132q0 -117 -97 -197l-33 30q22 17 35 46.5t14 49.5l-10 4q-19 4 -33 24.5t-14 42.5q0 26 19.5 47.5t49.5 21.5q28 0 48.5 -19.5t20.5 -49.5z" />
    <glyph glyph-name="Lcaron" unicode="&#x13d;" horiz-adv-x="741" 
d="M721 642q0 -117 -97 -197l-33 30q22 17 35 46.5t14 49.5l-10 4q-19 4 -33 24.5t-14 42.5q0 26 19.5 47.5t49.5 21.5q28 0 48.5 -19.5t20.5 -49.5zM214 270q0 -8 0.5 -24.5t0.5 -25.5q0 -6 -0.5 -17.5t-0.5 -17.5q0 -11 1 -33.5t1 -33.5q30 -3 160 -3q26 0 73 -0.5
t67 -0.5q26 0 18 -77l-1 -10v-11q0 -5 -7.5 -10t-12.5 -5h-31l-35 -3q-36 3 -107 3q-12 -5 -104.5 -2t-102.5 3q-2 1 -8 1h-6q-10 0 -18.5 6.5t-8.5 15.5q0 25 1 40t1 24q0 13 -1.5 48.5t-0.5 57.5l-2 36q0 35 3 70q-1 36 0 70.5t1 36.5q0 30 -1 129.5t0 151.5v3
q10 15 23 15q4 0 12 -0.5t10 -0.5h4q4 0 12 -0.5t12 -0.5q2 0 8 0.5t8 0.5q12 0 19 -3t10 -10.5t3.5 -11.5t0 -14.5t-0.5 -12.5q0 -49 2 -74q0 -5 -0.5 -27.5t-1 -94.5t-0.5 -188z" />
    <glyph glyph-name="lcaron" unicode="&#x13e;" horiz-adv-x="741" 
d="M721 642q0 -117 -97 -197l-33 30q22 17 35 46.5t14 49.5l-10 4q-19 4 -33 24.5t-14 42.5q0 26 19.5 47.5t49.5 21.5q28 0 48.5 -19.5t20.5 -49.5zM214 270q0 -8 0.5 -24.5t0.5 -25.5q0 -6 -0.5 -17.5t-0.5 -17.5q0 -11 1 -33.5t1 -33.5q30 -3 160 -3q26 0 73 -0.5
t67 -0.5q26 0 18 -77l-1 -10v-11q0 -5 -7.5 -10t-12.5 -5h-31l-35 -3q-36 3 -107 3q-12 -5 -104.5 -2t-102.5 3q-2 1 -8 1h-6q-10 0 -18.5 6.5t-8.5 15.5q0 25 1 40t1 24q0 13 -1.5 48.5t-0.5 57.5l-2 36q0 35 3 70q-1 36 0 70.5t1 36.5q0 30 -1 129.5t0 151.5v3
q10 15 23 15q4 0 12 -0.5t10 -0.5h4q4 0 12 -0.5t12 -0.5q2 0 8 0.5t8 0.5q12 0 19 -3t10 -10.5t3.5 -11.5t0 -14.5t-0.5 -12.5q0 -49 2 -74q0 -5 -0.5 -27.5t-1 -94.5t-0.5 -188z" />
    <glyph glyph-name="Lslash" unicode="&#x141;" horiz-adv-x="599" 
d="M23 220q0 1 -1 3q-2 7 -2 20v57q0 12 11 17q22 10 54 25l20 8q2 50 2 58q0 30 -1 129.5t0 151.5v3q10 15 23 15q4 0 12 -0.5t10 -0.5h4q4 0 12 -0.5t12 -0.5q3 0 8 0.5t8 0.5q12 0 19 -3t10 -10.5t3.5 -11.5t0 -14.5t-0.5 -12.5q0 -49 2 -74q0 -6 -0.5 -20.5t-1 -54.5
t-0.5 -99q6 2 17.5 8t14.5 7l7 3l57 26q11 4 11 -7v-83q0 -12 -11 -17q-27 -12 -64 -29l-7 -3l-25 -13v-28q0 -8 0.5 -24.5t0.5 -25.5q0 -6 -0.5 -17.5t-0.5 -17.5q0 -11 1 -33.5t1 -33.5q30 -3 160 -3q26 0 72.5 -0.5t67.5 -0.5q26 0 18 -77l-1 -10v-11q0 -5 -7.5 -10
t-12.5 -5h-31l-35 -3q-36 3 -107 3q-12 -5 -104.5 -2t-102.5 3q-2 1 -8 1h-6q-27 0 -27 13q0 25 1 44.5t1 28.5q0 13 -1.5 48.5t-0.5 57.5l-2 36v11h-1l-2 -1l-34 -15l-6 -3q-3 -1 -9.5 -4t-11 -4.5t-9.5 -0.5t-7 6z" />
    <glyph glyph-name="lslash" unicode="&#x142;" horiz-adv-x="599" 
d="M23 220q0 1 -1 3q-2 7 -2 20v57q0 12 11 17q22 10 54 25l20 8q2 50 2 58q0 30 -1 129.5t0 151.5v3q10 15 23 15q4 0 12 -0.5t10 -0.5h4q4 0 12 -0.5t12 -0.5q3 0 8 0.5t8 0.5q12 0 19 -3t10 -10.5t3.5 -11.5t0 -14.5t-0.5 -12.5q0 -49 2 -74q0 -6 -0.5 -20.5t-1 -54.5
t-0.5 -99q6 2 17.5 8t14.5 7l7 3l57 26q11 4 11 -7v-83q0 -12 -11 -17q-27 -12 -64 -29l-7 -3l-25 -13v-28q0 -8 0.5 -24.5t0.5 -25.5q0 -6 -0.5 -17.5t-0.5 -17.5q0 -11 1 -33.5t1 -33.5q30 -3 160 -3q26 0 72.5 -0.5t67.5 -0.5q26 0 18 -77l-1 -10v-11q0 -5 -7.5 -10
t-12.5 -5h-31l-35 -3q-36 3 -107 3q-12 -5 -104.5 -2t-102.5 3q-2 1 -8 1h-6q-27 0 -27 13q0 25 1 44.5t1 28.5q0 13 -1.5 48.5t-0.5 57.5l-2 36v11h-1l-2 -1l-34 -15l-6 -3q-3 -1 -9.5 -4t-11 -4.5t-9.5 -0.5t-7 6z" />
    <glyph glyph-name="Nacute" unicode="&#x143;" horiz-adv-x="781" 
d="M92 16q0 15 -1 45t-1 45q0 6 0.5 17.5t0.5 17.5t-0.5 18t-0.5 18q0 79 1 225t1 233q0 5 0.5 17t0.5 17t-0.5 13t-0.5 12q0 13 11 13q5 0 10 -3q73 -75 123 -119q113 -102 329 -316q2 14 2 21q0 26 -1.5 79t-1.5 80l2 36q0 12 -0.5 36.5t-0.5 36.5l3 36q0 6 -0.5 18
t-0.5 18t0.5 18.5t0.5 18.5l-2 22q0 6 2.5 9.5t7.5 4.5t9 1.5t12 0t10 -0.5q4 0 16.5 0.5t22.5 0.5t21 -1t17.5 -4.5t6.5 -10.5q0 -9 -0.5 -28t-0.5 -29q0 -12 0.5 -35.5t0.5 -35.5q0 -64 -0.5 -206.5t-0.5 -207.5q0 -6 -0.5 -17.5t-0.5 -17.5q0 -9 1 -27.5t1 -28.5
q0 -8 -0.5 -23t-0.5 -22v-8q0 -9 -9 -9q-10 0 -16 7q-105 105 -172 164q-46 51 -100.5 101.5t-59.5 55.5q-19 19 -58.5 56t-58.5 56l2 -35q-1 -12 -1 -145v-182q-1 -16 -1.5 -30.5t-1 -21t0 -12t-2.5 -7t-4 -2.5t-9 -1t-14 -1l-52 5q-5 0 -13 -0.5t-13 -0.5q-15 0 -15 15z
M376 777q-12 -7 -22 3l-31 38q-10 11 1 22q3 2 6 5q8 6 15 13q8 6 26.5 24t29.5 24q10 10 45 38l5 4l7 6q11 11 20 -2l46 -55q8 -12 -3 -21q-20 -13 -57.5 -39t-55.5 -38z" />
    <glyph glyph-name="nacute" unicode="&#x144;" horiz-adv-x="781" 
d="M92 16q0 15 -1 45t-1 45q0 6 0.5 17.5t0.5 17.5t-0.5 18t-0.5 18q0 79 1 225t1 233q0 5 0.5 17t0.5 17t-0.5 13t-0.5 12q0 13 11 13q5 0 10 -3q73 -75 123 -119q113 -102 329 -316q2 14 2 21q0 26 -1.5 79t-1.5 80l2 36q0 12 -0.5 36.5t-0.5 36.5l3 36q0 6 -0.5 18
t-0.5 18t0.5 18.5t0.5 18.5l-2 22q0 6 2.5 9.5t7.5 4.5t9 1.5t12 0t10 -0.5q4 0 16.5 0.5t22.5 0.5t21 -1t17.5 -4.5t6.5 -10.5q0 -9 -0.5 -28t-0.5 -29q0 -12 0.5 -35.5t0.5 -35.5q0 -64 -0.5 -206.5t-0.5 -207.5q0 -6 -0.5 -17.5t-0.5 -17.5q0 -9 1 -27.5t1 -28.5
q0 -8 -0.5 -23t-0.5 -22v-8q0 -9 -9 -9q-10 0 -16 7q-105 105 -172 164q-46 51 -100.5 101.5t-59.5 55.5q-19 19 -58.5 56t-58.5 56l2 -35q-1 -12 -1 -145v-182q-1 -16 -1.5 -30.5t-1 -21t0 -12t-2.5 -7t-4 -2.5t-9 -1t-14 -1l-52 5q-5 0 -13 -0.5t-13 -0.5q-15 0 -15 15z
M343 777q-12 -7 -22 3l-31 38q-10 11 1 22q3 2 6 5q8 6 15 13q8 6 26.5 24t29.5 24q10 10 45 38l5 4l7 6q11 11 20 -2l46 -55q8 -12 -3 -21q-20 -13 -57.5 -39t-55.5 -38z" />
    <glyph glyph-name="uni0145" unicode="&#x145;" horiz-adv-x="781" 
d="M92 16q0 15 -1 45t-1 45q0 6 0.5 17.5t0.5 17.5t-0.5 18t-0.5 18q0 79 1 225t1 233q0 5 0.5 17t0.5 17t-0.5 13t-0.5 12q0 13 11 13q5 0 10 -3q73 -75 123 -119q113 -102 329 -316q2 14 2 21q0 26 -1.5 79t-1.5 80l2 36q0 12 -0.5 36.5t-0.5 36.5l3 36q0 6 -0.5 18
t-0.5 18t0.5 18.5t0.5 18.5l-2 22q0 6 2.5 9.5t7.5 4.5t9 1.5t12 0t10 -0.5q4 0 16.5 0.5t22.5 0.5t21 -1t17.5 -4.5t6.5 -10.5q0 -9 -0.5 -28t-0.5 -29q0 -12 0.5 -35.5t0.5 -35.5q0 -64 -0.5 -206.5t-0.5 -207.5q0 -6 -0.5 -17.5t-0.5 -17.5q0 -9 1 -27.5t1 -28.5
q0 -8 -0.5 -23t-0.5 -22v-8q0 -9 -9 -9q-10 0 -16 7q-105 105 -172 164q-46 51 -100.5 101.5t-59.5 55.5q-19 19 -58.5 56t-58.5 56l2 -35q-1 -12 -1 -145v-182q-1 -16 -1.5 -30.5t-1 -21t0 -12t-2.5 -7t-4 -2.5t-9 -1t-14 -1l-52 5q-5 0 -13 -0.5t-13 -0.5q-15 0 -15 15z
M470 -132q0 -117 -97 -197l-33 30q22 17 35 46.5t14 49.5l-10 4q-19 4 -33 24.5t-14 42.5q0 26 19.5 47.5t49.5 21.5q28 0 48.5 -19.5t20.5 -49.5z" />
    <glyph glyph-name="uni0146" unicode="&#x146;" horiz-adv-x="781" 
d="M92 16q0 15 -1 45t-1 45q0 6 0.5 17.5t0.5 17.5t-0.5 18t-0.5 18q0 79 1 225t1 233q0 5 0.5 17t0.5 17t-0.5 13t-0.5 12q0 13 11 13q5 0 10 -3q73 -75 123 -119q113 -102 329 -316q2 14 2 21q0 26 -1.5 79t-1.5 80l2 36q0 12 -0.5 36.5t-0.5 36.5l3 36q0 6 -0.5 18
t-0.5 18t0.5 18.5t0.5 18.5l-2 22q0 6 2.5 9.5t7.5 4.5t9 1.5t12 0t10 -0.5q4 0 16.5 0.5t22.5 0.5t21 -1t17.5 -4.5t6.5 -10.5q0 -9 -0.5 -28t-0.5 -29q0 -12 0.5 -35.5t0.5 -35.5q0 -64 -0.5 -206.5t-0.5 -207.5q0 -6 -0.5 -17.5t-0.5 -17.5q0 -9 1 -27.5t1 -28.5
q0 -8 -0.5 -23t-0.5 -22v-8q0 -9 -9 -9q-10 0 -16 7q-105 105 -172 164q-46 51 -100.5 101.5t-59.5 55.5q-19 19 -58.5 56t-58.5 56l2 -35q-1 -12 -1 -145v-182q-1 -16 -1.5 -30.5t-1 -21t0 -12t-2.5 -7t-4 -2.5t-9 -1t-14 -1l-52 5q-5 0 -13 -0.5t-13 -0.5q-15 0 -15 15z
M470 -132q0 -117 -97 -197l-33 30q22 17 35 46.5t14 49.5l-10 4q-19 4 -33 24.5t-14 42.5q0 26 19.5 47.5t49.5 21.5q28 0 48.5 -19.5t20.5 -49.5z" />
    <glyph glyph-name="Ncaron" unicode="&#x147;" horiz-adv-x="781" 
d="M92 16q0 15 -1 45t-1 45q0 6 0.5 17.5t0.5 17.5t-0.5 18t-0.5 18q0 79 1 225t1 233q0 5 0.5 17t0.5 17t-0.5 13t-0.5 12q0 13 11 13q5 0 10 -3q73 -75 123 -119q113 -102 329 -316q2 14 2 21q0 26 -1.5 79t-1.5 80l2 36q0 12 -0.5 36.5t-0.5 36.5l3 36q0 6 -0.5 18
t-0.5 18t0.5 18.5t0.5 18.5l-2 22q0 6 2.5 9.5t7.5 4.5t9 1.5t12 0t10 -0.5q4 0 16.5 0.5t22.5 0.5t21 -1t17.5 -4.5t6.5 -10.5q0 -9 -0.5 -28t-0.5 -29q0 -12 0.5 -35.5t0.5 -35.5q0 -64 -0.5 -206.5t-0.5 -207.5q0 -6 -0.5 -17.5t-0.5 -17.5q0 -9 1 -27.5t1 -28.5
q0 -8 -0.5 -23t-0.5 -22v-8q0 -9 -9 -9q-10 0 -16 7q-105 105 -172 164q-46 51 -100.5 101.5t-59.5 55.5q-19 19 -58.5 56t-58.5 56l2 -35q-1 -12 -1 -145v-182q-1 -16 -1.5 -30.5t-1 -21t0 -12t-2.5 -7t-4 -2.5t-9 -1t-14 -1l-52 5q-5 0 -13 -0.5t-13 -0.5q-15 0 -15 15z
M457 967h86q6 0 6 -6q0 -5 -54 -69q-12 -12 -31.5 -36.5t-27.5 -33.5q-2 -2 -12 -14.5t-18.5 -18.5t-17.5 -6q-7 0 -20 12t-27.5 29.5t-15.5 18.5q-18 24 -43 52.5t-38 43.5t-13 20q0 9 53 9q37 0 41 -1q6 -1 15 -12l48 -58l48 58q9 12 21 12z" />
    <glyph glyph-name="ncaron" unicode="&#x148;" horiz-adv-x="781" 
d="M92 16q0 15 -1 45t-1 45q0 6 0.5 17.5t0.5 17.5t-0.5 18t-0.5 18q0 79 1 225t1 233q0 5 0.5 17t0.5 17t-0.5 13t-0.5 12q0 13 11 13q5 0 10 -3q73 -75 123 -119q113 -102 329 -316q2 14 2 21q0 26 -1.5 79t-1.5 80l2 36q0 12 -0.5 36.5t-0.5 36.5l3 36q0 6 -0.5 18
t-0.5 18t0.5 18.5t0.5 18.5l-2 22q0 6 2.5 9.5t7.5 4.5t9 1.5t12 0t10 -0.5q4 0 16.5 0.5t22.5 0.5t21 -1t17.5 -4.5t6.5 -10.5q0 -9 -0.5 -28t-0.5 -29q0 -12 0.5 -35.5t0.5 -35.5q0 -64 -0.5 -206.5t-0.5 -207.5q0 -6 -0.5 -17.5t-0.5 -17.5q0 -9 1 -27.5t1 -28.5
q0 -8 -0.5 -23t-0.5 -22v-8q0 -9 -9 -9q-10 0 -16 7q-105 105 -172 164q-46 51 -100.5 101.5t-59.5 55.5q-19 19 -58.5 56t-58.5 56l2 -35q-1 -12 -1 -145v-182q-1 -16 -1.5 -30.5t-1 -21t0 -12t-2.5 -7t-4 -2.5t-9 -1t-14 -1l-52 5q-5 0 -13 -0.5t-13 -0.5q-15 0 -15 15z
M448 953h86q6 0 6 -6q0 -5 -54 -69q-12 -12 -31.5 -36.5t-27.5 -33.5q-2 -2 -12 -14.5t-18.5 -18.5t-17.5 -6q-7 0 -20 12t-27.5 29.5t-15.5 18.5q-18 24 -43 52.5t-38 43.5t-13 20q0 9 53 9q37 0 41 -1q6 -1 15 -12l48 -58l48 58q9 12 21 12z" />
    <glyph glyph-name="Omacron" unicode="&#x14c;" 
d="M799 351q0 -43 -5 -74q-3 -20 -9.5 -39.5t-12 -32t-15 -32t-14.5 -30.5q-31 -44 -64.5 -73.5t-73 -45.5t-65 -22.5t-69.5 -14.5q-6 0 -18 0.5t-18 0.5q-64 -5 -141 24q-53 19 -92.5 48.5t-63.5 62t-39 73.5t-21 77t-8 79q5 279 254 349q30 8 111 15q6 0 18 -0.5t18 -0.5
q95 -3 172.5 -57.5t118 -136.5t37.5 -170zM435 108q70 0 118.5 24t71.5 63.5t32 77t9 78.5q-8 97 -42 145q-22 31 -46 51t-54.5 29t-43 11t-45.5 5q-34 -2 -63 -8.5t-48.5 -14t-36 -21t-25.5 -23t-18 -26.5t-12 -25.5t-9 -26.5t-7 -22q-30 -130 30 -216q71 -101 189 -101z
M549 782h-48q-14 -1 -41 -1t-40 1h-99q-12 0 -12 17v52q0 10 3.5 13.5t13.5 3.5h6q19 1 58 1h9q13 -1 37 -1q26 0 29 1h31q3 0 8.5 -0.5t8.5 -0.5h10q34 0 37 -4q1 -3 1 -8v-62q0 -12 -12 -12z" />
    <glyph glyph-name="omacron" unicode="&#x14d;" 
d="M799 351q0 -43 -5 -74q-3 -20 -9.5 -39.5t-12 -32t-15 -32t-14.5 -30.5q-31 -44 -64.5 -73.5t-73 -45.5t-65 -22.5t-69.5 -14.5q-6 0 -18 0.5t-18 0.5q-64 -5 -141 24q-53 19 -92.5 48.5t-63.5 62t-39 73.5t-21 77t-8 79q5 279 254 349q30 8 111 15q6 0 18 -0.5t18 -0.5
q95 -3 172.5 -57.5t118 -136.5t37.5 -170zM435 108q70 0 118.5 24t71.5 63.5t32 77t9 78.5q-8 97 -42 145q-22 31 -46 51t-54.5 29t-43 11t-45.5 5q-34 -2 -63 -8.5t-48.5 -14t-36 -21t-25.5 -23t-18 -26.5t-12 -25.5t-9 -26.5t-7 -22q-30 -130 30 -216q71 -101 189 -101z
M549 782h-48q-14 -1 -41 -1t-40 1h-99q-12 0 -12 17v52q0 10 3.5 13.5t13.5 3.5h6q19 1 58 1h9q13 -1 37 -1q26 0 29 1h31q3 0 8.5 -0.5t8.5 -0.5h10q34 0 37 -4q1 -3 1 -8v-62q0 -12 -12 -12z" />
    <glyph glyph-name="Ohungarumlaut" unicode="&#x150;" 
d="M799 351q0 -43 -5 -74q-3 -20 -9.5 -39.5t-12 -32t-15 -32t-14.5 -30.5q-31 -44 -64.5 -73.5t-73 -45.5t-65 -22.5t-69.5 -14.5q-6 0 -18 0.5t-18 0.5q-64 -5 -141 24q-53 19 -92.5 48.5t-63.5 62t-39 73.5t-21 77t-8 79q5 279 254 349q30 8 111 15q6 0 18 -0.5t18 -0.5
q95 -3 172.5 -57.5t118 -136.5t37.5 -170zM435 108q70 0 118.5 24t71.5 63.5t32 77t9 78.5q-8 97 -42 145q-22 31 -46 51t-54.5 29t-43 11t-45.5 5q-34 -2 -63 -8.5t-48.5 -14t-36 -21t-25.5 -23t-18 -26.5t-12 -25.5t-9 -26.5t-7 -22q-30 -130 30 -216q71 -101 189 -101z
M304 777q-12 -7 -22 3l-31 38q-10 11 1 22q3 2 6 5q8 6 15 13q8 6 26.5 24t29.5 24q10 10 45 38l5 4l7 6q11 11 20 -2l46 -55q8 -12 -3 -21q-20 -13 -57.5 -39t-55.5 -38zM513 777q-12 -7 -22 3l-31 38q-10 11 1 22q3 2 6 5q8 6 15 13q8 6 26.5 24t29.5 24q10 10 45 38l5 4
l7 6q11 11 20 -2l46 -55q8 -12 -3 -21q-20 -13 -57.5 -39t-55.5 -38z" />
    <glyph glyph-name="ohungarumlaut" unicode="&#x151;" 
d="M799 351q0 -43 -5 -74q-3 -20 -9.5 -39.5t-12 -32t-15 -32t-14.5 -30.5q-31 -44 -64.5 -73.5t-73 -45.5t-65 -22.5t-69.5 -14.5q-6 0 -18 0.5t-18 0.5q-64 -5 -141 24q-53 19 -92.5 48.5t-63.5 62t-39 73.5t-21 77t-8 79q5 279 254 349q30 8 111 15q6 0 18 -0.5t18 -0.5
q95 -3 172.5 -57.5t118 -136.5t37.5 -170zM435 108q70 0 118.5 24t71.5 63.5t32 77t9 78.5q-8 97 -42 145q-22 31 -46 51t-54.5 29t-43 11t-45.5 5q-34 -2 -63 -8.5t-48.5 -14t-36 -21t-25.5 -23t-18 -26.5t-12 -25.5t-9 -26.5t-7 -22q-30 -130 30 -216q71 -101 189 -101z
M308 777q-12 -7 -22 3l-31 38q-10 11 1 22q3 2 6 5q8 6 15 13q8 6 26.5 24t29.5 24q10 10 45 38l5 4l7 6q11 11 20 -2l46 -55q8 -12 -3 -21q-20 -13 -57.5 -39t-55.5 -38zM517 777q-12 -7 -22 3l-31 38q-10 11 1 22q3 2 6 5q8 6 15 13q8 6 26.5 24t29.5 24q10 10 45 38l5 4
l7 6q11 11 20 -2l46 -55q8 -12 -3 -21q-20 -13 -57.5 -39t-55.5 -38z" />
    <glyph glyph-name="OE" unicode="&#x152;" horiz-adv-x="991" 
d="M477 703q21 0 63 1t63 1q34 -3 90 -3q17 0 52.5 1.5t52.5 1.5q59 0 106 -4q3 0 9.5 0.5t9.5 0.5q17 0 17 -37q0 -7 -0.5 -19t-0.5 -19q0 -4 0.5 -12t0.5 -12q0 -15 -15 -15q-119 0 -134 1q-26 0 -81.5 1t-86.5 1q-7 0 -19 -0.5t-19 -0.5q0 -6 0.5 -20t0.5 -20
q0 -18 -0.5 -62t-0.5 -77q22 4 80.5 1.5t83.5 -0.5q4 0 15 0.5t18.5 0.5t17 -1t14.5 -4.5t6 -10.5q0 -5 -0.5 -18t-0.5 -20v-10q0 -2 0.5 -12.5t0 -16t-1.5 -13.5t-4 -11.5t-8 -3.5q-4 0 -12 0.5t-11 0.5q-25 -2 -162 -2l-7 1h-16.5h-12.5q1 -14 0 -86.5t-1 -84.5
q0 -8 12 -8q9 0 115.5 2.5t116.5 -1.5l63 1q46 -4 47 -17q0 -11 -0.5 -30.5t-0.5 -29.5q0 -4 0.5 -11.5t0.5 -11.5q0 -15 -14 -15q-5 0 -20 1t-33 1q-49 0 -73 -3q-11 2 -33 0.5t-33 0.5h-162q-1 0 -95 -1.5t-94 1.5q-99 7 -165 50q-79 51 -110.5 128t-35.5 174
q4 270 250 338q14 4 33 6t45.5 3t36.5 2q28 0 42 2zM435 108h26q0 10 0.5 32.5t0.5 35.5v211q0 25 -1.5 88t-0.5 98q-85 -3 -138 -22q-15 -6 -27.5 -13.5t-21 -14.5t-17 -17t-13 -17t-10 -18.5t-7 -16t-5.5 -16t-5 -13.5q-30 -130 30 -216q71 -101 189 -101z" />
    <glyph glyph-name="oe" unicode="&#x153;" horiz-adv-x="991" 
d="M477 703q21 0 63 1t63 1q34 -3 90 -3q17 0 52.5 1.5t52.5 1.5q59 0 106 -4q3 0 9.5 0.5t9.5 0.5q17 0 17 -37q0 -7 -0.5 -19t-0.5 -19q0 -4 0.5 -12t0.5 -12q0 -15 -15 -15q-119 0 -134 1q-26 0 -81.5 1t-86.5 1q-7 0 -19 -0.5t-19 -0.5q0 -6 0.5 -20t0.5 -20
q0 -18 -0.5 -62t-0.5 -77q22 4 80.5 1.5t83.5 -0.5q4 0 15 0.5t18.5 0.5t17 -1t14.5 -4.5t6 -10.5q0 -5 -0.5 -18t-0.5 -20v-10q0 -2 0.5 -12.5t0 -16t-1.5 -13.5t-4 -11.5t-8 -3.5q-4 0 -12 0.5t-11 0.5q-25 -2 -162 -2l-7 1h-16.5h-12.5q1 -14 0 -86.5t-1 -84.5
q0 -8 12 -8q9 0 115.5 2.5t116.5 -1.5l63 1q46 -4 47 -17q0 -11 -0.5 -30.5t-0.5 -29.5q0 -4 0.5 -11.5t0.5 -11.5q0 -15 -14 -15q-5 0 -20 1t-33 1q-49 0 -73 -3q-11 2 -33 0.5t-33 0.5h-162q-1 0 -95 -1.5t-94 1.5q-99 7 -165 50q-79 51 -110.5 128t-35.5 174
q4 270 250 338q14 4 33 6t45.5 3t36.5 2q28 0 42 2zM435 108h26q0 10 0.5 32.5t0.5 35.5v211q0 25 -1.5 88t-0.5 98q-85 -3 -138 -22q-15 -6 -27.5 -13.5t-21 -14.5t-17 -17t-13 -17t-10 -18.5t-7 -16t-5.5 -16t-5 -13.5q-30 -130 30 -216q71 -101 189 -101z" />
    <glyph glyph-name="Racute" unicode="&#x154;" horiz-adv-x="685" 
d="M439 53q-4 4 -62.5 68.5t-88.5 97.5h-9q-22 2 -65 2l-2 -37l3 -37q0 -13 -1 -37t-1 -36q0 -10 1 -30t1 -30q0 -4 -1.5 -7t-4.5 -4.5t-5.5 -2.5t-7.5 -1.5t-8 -0.5h-8.5h-6.5q-12 1 -25 2t-19.5 0.5t-14 1t-10.5 1t-6.5 2.5t-4 3.5t-1.5 6.5t-1 8.5v11.5l2 35
q0 6 -0.5 17.5t-0.5 17.5l2 36q0 24 -4 70q3 34 3 105q0 24 -1.5 71t-1.5 70l3 35l-2 20q0 24 3 50q0 18 -1 53t-1 53q0 34 16 34q3 0 9.5 -0.5t9.5 -0.5q41 0 60 2q7 0 21 -0.5t22 -0.5q36 0 36 3q5 1 37 -1t45 -2h9q39 0 64 -10q42 -12 73 -33.5t47.5 -42t27 -52.5
t13 -50.5t5.5 -50.5q0 -46 -8 -69l-1 -6q-2 -6 -3.5 -12t-4.5 -15t-7 -18.5t-9.5 -18.5t-13 -18t-16.5 -16q-49 -38 -95 -52q23 -26 74 -80t75 -81q1 -1 8.5 -9.5t15 -16.5t15.5 -17.5t13 -17t5 -10.5q0 -4 -4.5 -5.5t-14.5 -2.5h-10q-6 0 -19 0.5t-20 0.5h-65q-9 0 -19.5 9
t-24 24.5t-19.5 20.5zM328 590q-13 -2 -42 -2l-34 2l-38 -2q0 -6 0.5 -18t0.5 -18l-3 -36q-1 -14 1 -38.5t2 -33.5q0 -12 -1 -36t-1 -36q0 -6 0.5 -18t0.5 -18q12 0 37 -1t38 -1q92 0 134 33q13 16 20.5 34t9.5 27t6 35q-5 25 -11.5 44.5t-16.5 32.5t-17 21t-22 13.5
t-20.5 7.5t-23 4.5t-20.5 3.5zM279 777q-12 -7 -22 3l-31 38q-10 11 1 22q3 2 6 5q8 6 15 13q8 6 26.5 24t29.5 24q10 10 45 38l5 4l7 6q11 11 20 -2l46 -55q8 -12 -3 -21q-20 -13 -57.5 -39t-55.5 -38z" />
    <glyph glyph-name="racute" unicode="&#x155;" horiz-adv-x="685" 
d="M439 53q-4 4 -62.5 68.5t-88.5 97.5h-9q-22 2 -65 2l-2 -37l3 -37q0 -13 -1 -37t-1 -36q0 -10 1 -30t1 -30q0 -4 -1.5 -7t-4.5 -4.5t-5.5 -2.5t-7.5 -1.5t-8 -0.5h-8.5h-6.5q-12 1 -25 2t-19.5 0.5t-14 1t-10.5 1t-6.5 2.5t-4 3.5t-1.5 6.5t-1 8.5v11.5l2 35
q0 6 -0.5 17.5t-0.5 17.5l2 36q0 24 -4 70q3 34 3 105q0 24 -1.5 71t-1.5 70l3 35l-2 20q0 24 3 50q0 18 -1 53t-1 53q0 34 16 34q3 0 9.5 -0.5t9.5 -0.5q41 0 60 2q7 0 21 -0.5t22 -0.5q36 0 36 3q5 1 37 -1t45 -2h9q39 0 64 -10q42 -12 73 -33.5t47.5 -42t27 -52.5
t13 -50.5t5.5 -50.5q0 -46 -8 -69l-1 -6q-2 -6 -3.5 -12t-4.5 -15t-7 -18.5t-9.5 -18.5t-13 -18t-16.5 -16q-49 -38 -95 -52q23 -26 74 -80t75 -81q1 -1 8.5 -9.5t15 -16.5t15.5 -17.5t13 -17t5 -10.5q0 -4 -4.5 -5.5t-14.5 -2.5h-10q-6 0 -19 0.5t-20 0.5h-65q-9 0 -19.5 9
t-24 24.5t-19.5 20.5zM328 590q-13 -2 -42 -2l-34 2l-38 -2q0 -6 0.5 -18t0.5 -18l-3 -36q-1 -14 1 -38.5t2 -33.5q0 -12 -1 -36t-1 -36q0 -6 0.5 -18t0.5 -18q12 0 37 -1t38 -1q92 0 134 33q13 16 20.5 34t9.5 27t6 35q-5 25 -11.5 44.5t-16.5 32.5t-17 21t-22 13.5
t-20.5 7.5t-23 4.5t-20.5 3.5zM268 777q-12 -7 -22 3l-31 38q-10 11 1 22q3 2 6 5q8 6 15 13q8 6 26.5 24t29.5 24q10 10 45 38l5 4l7 6q11 11 20 -2l46 -55q8 -12 -3 -21q-20 -13 -57.5 -39t-55.5 -38z" />
    <glyph glyph-name="uni0156" unicode="&#x156;" horiz-adv-x="685" 
d="M439 53q-4 4 -62.5 68.5t-88.5 97.5h-9q-22 2 -65 2l-2 -37l3 -37q0 -13 -1 -37t-1 -36q0 -10 1 -30t1 -30q0 -4 -1.5 -7t-4.5 -4.5t-5.5 -2.5t-7.5 -1.5t-8 -0.5h-8.5h-6.5q-12 1 -25 2t-19.5 0.5t-14 1t-10.5 1t-6.5 2.5t-4 3.5t-1.5 6.5t-1 8.5v11.5l2 35
q0 6 -0.5 17.5t-0.5 17.5l2 36q0 24 -4 70q3 34 3 105q0 24 -1.5 71t-1.5 70l3 35l-2 20q0 24 3 50q0 18 -1 53t-1 53q0 34 16 34q3 0 9.5 -0.5t9.5 -0.5q41 0 60 2q7 0 21 -0.5t22 -0.5q36 0 36 3q5 1 37 -1t45 -2h9q39 0 64 -10q42 -12 73 -33.5t47.5 -42t27 -52.5
t13 -50.5t5.5 -50.5q0 -46 -8 -69l-1 -6q-2 -6 -3.5 -12t-4.5 -15t-7 -18.5t-9.5 -18.5t-13 -18t-16.5 -16q-49 -38 -95 -52q23 -26 74 -80t75 -81q1 -1 8.5 -9.5t15 -16.5t15.5 -17.5t13 -17t5 -10.5q0 -4 -4.5 -5.5t-14.5 -2.5h-10q-6 0 -19 0.5t-20 0.5h-65q-9 0 -19.5 9
t-24 24.5t-19.5 20.5zM328 590q-13 -2 -42 -2l-34 2l-38 -2q0 -6 0.5 -18t0.5 -18l-3 -36q-1 -14 1 -38.5t2 -33.5q0 -12 -1 -36t-1 -36q0 -6 0.5 -18t0.5 -18q12 0 37 -1t38 -1q92 0 134 33q13 16 20.5 34t9.5 27t6 35q-5 25 -11.5 44.5t-16.5 32.5t-17 21t-22 13.5
t-20.5 7.5t-23 4.5t-20.5 3.5zM401 -132q0 -117 -97 -197l-33 30q22 17 35 46.5t14 49.5l-10 4q-19 4 -33 24.5t-14 42.5q0 26 19.5 47.5t49.5 21.5q28 0 48.5 -19.5t20.5 -49.5z" />
    <glyph glyph-name="uni0157" unicode="&#x157;" horiz-adv-x="685" 
d="M439 53q-4 4 -62.5 68.5t-88.5 97.5h-9q-22 2 -65 2l-2 -37l3 -37q0 -13 -1 -37t-1 -36q0 -10 1 -30t1 -30q0 -4 -1.5 -7t-4.5 -4.5t-5.5 -2.5t-7.5 -1.5t-8 -0.5h-8.5h-6.5q-12 1 -25 2t-19.5 0.5t-14 1t-10.5 1t-6.5 2.5t-4 3.5t-1.5 6.5t-1 8.5v11.5l2 35
q0 6 -0.5 17.5t-0.5 17.5l2 36q0 24 -4 70q3 34 3 105q0 24 -1.5 71t-1.5 70l3 35l-2 20q0 24 3 50q0 18 -1 53t-1 53q0 34 16 34q3 0 9.5 -0.5t9.5 -0.5q41 0 60 2q7 0 21 -0.5t22 -0.5q36 0 36 3q5 1 37 -1t45 -2h9q39 0 64 -10q42 -12 73 -33.5t47.5 -42t27 -52.5
t13 -50.5t5.5 -50.5q0 -46 -8 -69l-1 -6q-2 -6 -3.5 -12t-4.5 -15t-7 -18.5t-9.5 -18.5t-13 -18t-16.5 -16q-49 -38 -95 -52q23 -26 74 -80t75 -81q1 -1 8.5 -9.5t15 -16.5t15.5 -17.5t13 -17t5 -10.5q0 -4 -4.5 -5.5t-14.5 -2.5h-10q-6 0 -19 0.5t-20 0.5h-65q-9 0 -19.5 9
t-24 24.5t-19.5 20.5zM328 590q-13 -2 -42 -2l-34 2l-38 -2q0 -6 0.5 -18t0.5 -18l-3 -36q-1 -14 1 -38.5t2 -33.5q0 -12 -1 -36t-1 -36q0 -6 0.5 -18t0.5 -18q12 0 37 -1t38 -1q92 0 134 33q13 16 20.5 34t9.5 27t6 35q-5 25 -11.5 44.5t-16.5 32.5t-17 21t-22 13.5
t-20.5 7.5t-23 4.5t-20.5 3.5zM401 -132q0 -117 -97 -197l-33 30q22 17 35 46.5t14 49.5l-10 4q-19 4 -33 24.5t-14 42.5q0 26 19.5 47.5t49.5 21.5q28 0 48.5 -19.5t20.5 -49.5z" />
    <glyph glyph-name="Rcaron" unicode="&#x158;" horiz-adv-x="685" 
d="M439 53q-4 4 -62.5 68.5t-88.5 97.5h-9q-22 2 -65 2l-2 -37l3 -37q0 -13 -1 -37t-1 -36q0 -10 1 -30t1 -30q0 -4 -1.5 -7t-4.5 -4.5t-5.5 -2.5t-7.5 -1.5t-8 -0.5h-8.5h-6.5q-12 1 -25 2t-19.5 0.5t-14 1t-10.5 1t-6.5 2.5t-4 3.5t-1.5 6.5t-1 8.5v11.5l2 35
q0 6 -0.5 17.5t-0.5 17.5l2 36q0 24 -4 70q3 34 3 105q0 24 -1.5 71t-1.5 70l3 35l-2 20q0 24 3 50q0 18 -1 53t-1 53q0 34 16 34q3 0 9.5 -0.5t9.5 -0.5q41 0 60 2q7 0 21 -0.5t22 -0.5q36 0 36 3q5 1 37 -1t45 -2h9q39 0 64 -10q42 -12 73 -33.5t47.5 -42t27 -52.5
t13 -50.5t5.5 -50.5q0 -46 -8 -69l-1 -6q-2 -6 -3.5 -12t-4.5 -15t-7 -18.5t-9.5 -18.5t-13 -18t-16.5 -16q-49 -38 -95 -52q23 -26 74 -80t75 -81q1 -1 8.5 -9.5t15 -16.5t15.5 -17.5t13 -17t5 -10.5q0 -4 -4.5 -5.5t-14.5 -2.5h-10q-6 0 -19 0.5t-20 0.5h-65q-9 0 -19.5 9
t-24 24.5t-19.5 20.5zM328 590q-13 -2 -42 -2l-34 2l-38 -2q0 -6 0.5 -18t0.5 -18l-3 -36q-1 -14 1 -38.5t2 -33.5q0 -12 -1 -36t-1 -36q0 -6 0.5 -18t0.5 -18q12 0 37 -1t38 -1q92 0 134 33q13 16 20.5 34t9.5 27t6 35q-5 25 -11.5 44.5t-16.5 32.5t-17 21t-22 13.5
t-20.5 7.5t-23 4.5t-20.5 3.5zM376 960h86q6 0 6 -6q0 -5 -54 -69q-12 -12 -31.5 -36.5t-27.5 -33.5q-2 -2 -12 -14.5t-18.5 -18.5t-17.5 -6q-7 0 -20 12t-27.5 29.5t-15.5 18.5q-18 24 -43 52.5t-38 43.5t-13 20q0 9 53 9q37 0 41 -1q6 -1 15 -12l48 -58l48 58q9 12 21 12z
" />
    <glyph glyph-name="rcaron" unicode="&#x159;" horiz-adv-x="685" 
d="M439 53q-4 4 -62.5 68.5t-88.5 97.5h-9q-22 2 -65 2l-2 -37l3 -37q0 -13 -1 -37t-1 -36q0 -10 1 -30t1 -30q0 -4 -1.5 -7t-4.5 -4.5t-5.5 -2.5t-7.5 -1.5t-8 -0.5h-8.5h-6.5q-12 1 -25 2t-19.5 0.5t-14 1t-10.5 1t-6.5 2.5t-4 3.5t-1.5 6.5t-1 8.5v11.5l2 35
q0 6 -0.5 17.5t-0.5 17.5l2 36q0 24 -4 70q3 34 3 105q0 24 -1.5 71t-1.5 70l3 35l-2 20q0 24 3 50q0 18 -1 53t-1 53q0 34 16 34q3 0 9.5 -0.5t9.5 -0.5q41 0 60 2q7 0 21 -0.5t22 -0.5q36 0 36 3q5 1 37 -1t45 -2h9q39 0 64 -10q42 -12 73 -33.5t47.5 -42t27 -52.5
t13 -50.5t5.5 -50.5q0 -46 -8 -69l-1 -6q-2 -6 -3.5 -12t-4.5 -15t-7 -18.5t-9.5 -18.5t-13 -18t-16.5 -16q-49 -38 -95 -52q23 -26 74 -80t75 -81q1 -1 8.5 -9.5t15 -16.5t15.5 -17.5t13 -17t5 -10.5q0 -4 -4.5 -5.5t-14.5 -2.5h-10q-6 0 -19 0.5t-20 0.5h-65q-9 0 -19.5 9
t-24 24.5t-19.5 20.5zM328 590q-13 -2 -42 -2l-34 2l-38 -2q0 -6 0.5 -18t0.5 -18l-3 -36q-1 -14 1 -38.5t2 -33.5q0 -12 -1 -36t-1 -36q0 -6 0.5 -18t0.5 -18q12 0 37 -1t38 -1q92 0 134 33q13 16 20.5 34t9.5 27t6 35q-5 25 -11.5 44.5t-16.5 32.5t-17 21t-22 13.5
t-20.5 7.5t-23 4.5t-20.5 3.5zM365 953h86q6 0 6 -6q0 -5 -54 -69q-12 -12 -31.5 -36.5t-27.5 -33.5q-2 -2 -12 -14.5t-18.5 -18.5t-17.5 -6q-7 0 -20 12t-27.5 29.5t-15.5 18.5q-18 24 -43 52.5t-38 43.5t-13 20q0 9 53 9q37 0 41 -1q6 -1 15 -12l48 -58l48 58q9 12 21 12z
" />
    <glyph glyph-name="Sacute" unicode="&#x15a;" horiz-adv-x="639" 
d="M568 175q-1 -6 -2.5 -17.5t-2.5 -19t-4 -17t-7 -16.5q-16 -36 -48 -60.5t-65.5 -35.5t-83.5 -20q-75 0 -123.5 10.5t-97.5 35.5q1 2 -13 6.5t-30.5 13.5t-20.5 22q0 1 1 3.5t1 3.5q4 7 12 19.5t13.5 22t12 19.5t11.5 15t8 5q6 0 17 -7.5t17 -8.5l4 -2q89 -39 144 -39
q131 0 131 86q0 13 -3.5 24.5t-13 21.5t-16 16t-22.5 14.5t-22 11t-25.5 10.5t-22.5 9q-9 0 -57 23t-68 34q-1 1 -10 8.5t-12 10.5t-12 11.5t-13 14.5t-11.5 16t-11.5 20t-8 22t-6 26.5t-2 29.5q0 21 6 44l3 11q3 11 6 19.5t8.5 20.5t13.5 22.5t18 18.5q49 39 90 50t92 11
q45 -3 114 -19q1 0 13.5 -4t26 -8.5t28 -10.5t24 -14t9.5 -15q0 -2 -2 -6l-19 -48q-16 -35 -29 -35q-7 0 -23 8.5t-24 8.5q-214 56 -228 -43q0 -32 7.5 -49.5t29 -29t47 -20t72 -30t93.5 -50.5l4 -2q3 -2 10.5 -8t15.5 -12.5t16.5 -16.5t13.5 -20q19 -37 27 -85
q0 -20 -1 -30zM303 777q-12 -7 -22 3l-31 38q-10 11 1 22q3 2 6 5q8 6 15 13q8 6 26.5 24t29.5 24q10 10 45 38l5 4l7 6q11 11 20 -2l46 -55q8 -12 -3 -21q-20 -13 -57.5 -39t-55.5 -38z" />
    <glyph glyph-name="sacute" unicode="&#x15b;" horiz-adv-x="639" 
d="M568 175q-1 -6 -2.5 -17.5t-2.5 -19t-4 -17t-7 -16.5q-16 -36 -48 -60.5t-65.5 -35.5t-83.5 -20q-75 0 -123.5 10.5t-97.5 35.5q1 2 -13 6.5t-30.5 13.5t-20.5 22q0 1 1 3.5t1 3.5q4 7 12 19.5t13.5 22t12 19.5t11.5 15t8 5q6 0 17 -7.5t17 -8.5l4 -2q89 -39 144 -39
q131 0 131 86q0 13 -3.5 24.5t-13 21.5t-16 16t-22.5 14.5t-22 11t-25.5 10.5t-22.5 9q-9 0 -57 23t-68 34q-1 1 -10 8.5t-12 10.5t-12 11.5t-13 14.5t-11.5 16t-11.5 20t-8 22t-6 26.5t-2 29.5q0 21 6 44l3 11q3 11 6 19.5t8.5 20.5t13.5 22.5t18 18.5q49 39 90 50t92 11
q45 -3 114 -19q1 0 13.5 -4t26 -8.5t28 -10.5t24 -14t9.5 -15q0 -2 -2 -6l-19 -48q-16 -35 -29 -35q-7 0 -23 8.5t-24 8.5q-214 56 -228 -43q0 -32 7.5 -49.5t29 -29t47 -20t72 -30t93.5 -50.5l4 -2q3 -2 10.5 -8t15.5 -12.5t16.5 -16.5t13.5 -20q19 -37 27 -85
q0 -20 -1 -30zM303 777q-12 -7 -22 3l-31 38q-10 11 1 22q3 2 6 5q8 6 15 13q8 6 26.5 24t29.5 24q10 10 45 38l5 4l7 6q11 11 20 -2l46 -55q8 -12 -3 -21q-20 -13 -57.5 -39t-55.5 -38z" />
    <glyph glyph-name="Scedilla" unicode="&#x15e;" horiz-adv-x="639" 
d="M259 -103q-2 1 -0.5 9t1.5 9l19 78q-78 8 -145 42q1 2 -13 6.5t-30.5 13.5t-20.5 22q0 1 1 3.5t1 3.5q4 7 12 19.5t13.5 22t12 19.5t11.5 15t8 5q6 0 17 -7.5t17 -8.5l4 -2q89 -39 144 -39q131 0 131 86q0 13 -3.5 24.5t-13 21.5t-16 16t-22.5 14.5t-22 11t-25.5 10.5
t-22.5 9q-9 0 -57 23t-68 34q-1 1 -10 8.5t-12 10.5t-12 11.5t-13 14.5t-11.5 16t-11.5 20t-8 22t-6 26.5t-2 29.5q0 21 6 44l3 11q3 11 6 19.5t8.5 20.5t13.5 22.5t18 18.5q49 39 90 50t92 11q45 -3 114 -19q1 0 13.5 -4t26 -8.5t28 -10.5t24 -14t9.5 -15q0 -2 -2 -6
l-19 -48q-16 -35 -29 -35q-7 0 -23 8.5t-24 8.5q-214 56 -228 -43q0 -32 7.5 -49.5t29 -29t47 -20t72 -30t93.5 -50.5l4 -2q3 -2 10.5 -8t15.5 -12.5t16.5 -16.5t13.5 -20q19 -37 27 -85q0 -20 -1 -30q-1 -6 -2.5 -17.5t-2.5 -19t-4 -17t-7 -16.5q-16 -36 -48 -60.5
t-65.5 -35.5t-83.5 -20h-14l-7 -31q53 -2 86.5 -28.5t33.5 -73.5v-11l-2 -10q-7 -37 -27 -55l-7 -6q-11 -10 -33 -19q-12 -4 -18 -5q-32 -7 -69 -2q-13 1 -25 6q-13 3 -28 10q-2 0 -11 5q-25 7 4 55q1 3 2 4t2 2.5t2.5 2.5t2.5 2q5 2 9 -1q32 -15 68 -16q9 0 13 1q4 0 10 2
q14 6 20 18l3 8q1 3 1 9t-3 12q-17 31 -92 26q-16 0 -17 3z" />
    <glyph glyph-name="scedilla" unicode="&#x15f;" horiz-adv-x="639" 
d="M259 -103q-2 1 -0.5 9t1.5 9l19 78q-78 8 -145 42q1 2 -13 6.5t-30.5 13.5t-20.5 22q0 1 1 3.5t1 3.5q4 7 12 19.5t13.5 22t12 19.5t11.5 15t8 5q6 0 17 -7.5t17 -8.5l4 -2q89 -39 144 -39q131 0 131 86q0 13 -3.5 24.5t-13 21.5t-16 16t-22.5 14.5t-22 11t-25.5 10.5
t-22.5 9q-9 0 -57 23t-68 34q-1 1 -10 8.5t-12 10.5t-12 11.5t-13 14.5t-11.5 16t-11.5 20t-8 22t-6 26.5t-2 29.5q0 21 6 44l3 11q3 11 6 19.5t8.5 20.5t13.5 22.5t18 18.5q49 39 90 50t92 11q45 -3 114 -19q1 0 13.5 -4t26 -8.5t28 -10.5t24 -14t9.5 -15q0 -2 -2 -6
l-19 -48q-16 -35 -29 -35q-7 0 -23 8.5t-24 8.5q-214 56 -228 -43q0 -32 7.5 -49.5t29 -29t47 -20t72 -30t93.5 -50.5l4 -2q3 -2 10.5 -8t15.5 -12.5t16.5 -16.5t13.5 -20q19 -37 27 -85q0 -20 -1 -30q-1 -6 -2.5 -17.5t-2.5 -19t-4 -17t-7 -16.5q-16 -36 -48 -60.5
t-65.5 -35.5t-83.5 -20h-14l-7 -31q53 -2 86.5 -28.5t33.5 -73.5v-11l-2 -10q-7 -37 -27 -55l-7 -6q-11 -10 -33 -19q-12 -4 -18 -5q-32 -7 -69 -2q-13 1 -25 6q-13 3 -28 10q-2 0 -11 5q-25 7 4 55q1 3 2 4t2 2.5t2.5 2.5t2.5 2q5 2 9 -1q32 -15 68 -16q9 0 13 1q4 0 10 2
q14 6 20 18l3 8q1 3 1 9t-3 12q-17 31 -92 26q-16 0 -17 3z" />
    <glyph glyph-name="Scaron" unicode="&#x160;" horiz-adv-x="639" 
d="M568 175q-1 -6 -2.5 -17.5t-2.5 -19t-4 -17t-7 -16.5q-16 -36 -48 -60.5t-65.5 -35.5t-83.5 -20q-75 0 -123.5 10.5t-97.5 35.5q1 2 -13 6.5t-30.5 13.5t-20.5 22q0 1 1 3.5t1 3.5q4 7 12 19.5t13.5 22t12 19.5t11.5 15t8 5q6 0 17 -7.5t17 -8.5l4 -2q89 -39 144 -39
q131 0 131 86q0 13 -3.5 24.5t-13 21.5t-16 16t-22.5 14.5t-22 11t-25.5 10.5t-22.5 9q-9 0 -57 23t-68 34q-1 1 -10 8.5t-12 10.5t-12 11.5t-13 14.5t-11.5 16t-11.5 20t-8 22t-6 26.5t-2 29.5q0 21 6 44l3 11q3 11 6 19.5t8.5 20.5t13.5 22.5t18 18.5q49 39 90 50t92 11
q45 -3 114 -19q1 0 13.5 -4t26 -8.5t28 -10.5t24 -14t9.5 -15q0 -2 -2 -6l-19 -48q-16 -35 -29 -35q-7 0 -23 8.5t-24 8.5q-214 56 -228 -43q0 -32 7.5 -49.5t29 -29t47 -20t72 -30t93.5 -50.5l4 -2q3 -2 10.5 -8t15.5 -12.5t16.5 -16.5t13.5 -20q19 -37 27 -85
q0 -20 -1 -30zM403 939h86q6 0 6 -6q0 -5 -54 -69q-12 -12 -31.5 -36.5t-27.5 -33.5q-2 -2 -12 -14.5t-18.5 -18.5t-17.5 -6q-7 0 -20 12t-27.5 29.5t-15.5 18.5q-18 24 -43 52.5t-38 43.5t-13 20q0 9 53 9q37 0 41 -1q6 -1 15 -12l48 -58l48 58q9 12 21 12z" />
    <glyph glyph-name="scaron" unicode="&#x161;" horiz-adv-x="639" 
d="M568 175q-1 -6 -2.5 -17.5t-2.5 -19t-4 -17t-7 -16.5q-16 -36 -48 -60.5t-65.5 -35.5t-83.5 -20q-75 0 -123.5 10.5t-97.5 35.5q1 2 -13 6.5t-30.5 13.5t-20.5 22q0 1 1 3.5t1 3.5q4 7 12 19.5t13.5 22t12 19.5t11.5 15t8 5q6 0 17 -7.5t17 -8.5l4 -2q89 -39 144 -39
q131 0 131 86q0 13 -3.5 24.5t-13 21.5t-16 16t-22.5 14.5t-22 11t-25.5 10.5t-22.5 9q-9 0 -57 23t-68 34q-1 1 -10 8.5t-12 10.5t-12 11.5t-13 14.5t-11.5 16t-11.5 20t-8 22t-6 26.5t-2 29.5q0 21 6 44l3 11q3 11 6 19.5t8.5 20.5t13.5 22.5t18 18.5q49 39 90 50t92 11
q45 -3 114 -19q1 0 13.5 -4t26 -8.5t28 -10.5t24 -14t9.5 -15q0 -2 -2 -6l-19 -48q-16 -35 -29 -35q-7 0 -23 8.5t-24 8.5q-214 56 -228 -43q0 -32 7.5 -49.5t29 -29t47 -20t72 -30t93.5 -50.5l4 -2q3 -2 10.5 -8t15.5 -12.5t16.5 -16.5t13.5 -20q19 -37 27 -85
q0 -20 -1 -30zM403 939h86q6 0 6 -6q0 -5 -54 -69q-12 -12 -31.5 -36.5t-27.5 -33.5q-2 -2 -12 -14.5t-18.5 -18.5t-17.5 -6q-7 0 -20 12t-27.5 29.5t-15.5 18.5q-18 24 -43 52.5t-38 43.5t-13 20q0 9 53 9q37 0 41 -1q6 -1 15 -12l48 -58l48 58q9 12 21 12z" />
    <glyph glyph-name="uni0162" unicode="&#x162;" horiz-adv-x="676" 
d="M61 603q0 4 -0.5 12t-0.5 12q5 67 9 72q3 3 24 5q3 0 6 1q32 -4 66 -4.5t84.5 0.5t69.5 1q13 0 37 0.5t37 0.5q22 0 72 0.5t80 0.5q8 0 26 -0.5t28 -0.5q15 0 15 -14q0 -4 -0.5 -12t-0.5 -12q0 -7 1 -19t1 -19q0 -38 -17 -38q-167 0 -197 1l-1 -75q0 -6 0.5 -18.5
t0.5 -18.5t-0.5 -18t-0.5 -18l2 -37q0 -25 -0.5 -74t-0.5 -73q0 -38 1 -118.5t1 -125.5q0 -6 -8 -10t-22.5 -5t-26.5 -1t-30 0.5t-24 0.5q-7 1 -10.5 9t-5 22.5t-1.5 26t0.5 29.5t0.5 24l2 37q1 57 -0.5 158.5t-1.5 136.5q0 7 2 72t-1 75q-18 0 -54 -0.5t-54 -0.5
q-15 0 -45.5 0.5t-47.5 0.5q-15 0 -15 14zM403 -128q0 -117 -97 -197l-33 30q22 17 35 46.5t14 49.5l-10 4q-19 4 -33 24.5t-14 42.5q0 26 19.5 47.5t49.5 21.5q28 0 48.5 -19.5t20.5 -49.5z" />
    <glyph glyph-name="uni0163" unicode="&#x163;" horiz-adv-x="676" 
d="M61 603q0 4 -0.5 12t-0.5 12q5 67 9 72q3 3 24 5q3 0 6 1q32 -4 66 -4.5t84.5 0.5t69.5 1q13 0 37 0.5t37 0.5q22 0 72 0.5t80 0.5q8 0 26 -0.5t28 -0.5q15 0 15 -14q0 -4 -0.5 -12t-0.5 -12q0 -7 1 -19t1 -19q0 -38 -17 -38q-167 0 -197 1l-1 -75q0 -6 0.5 -18.5
t0.5 -18.5t-0.5 -18t-0.5 -18l2 -37q0 -25 -0.5 -74t-0.5 -73q0 -38 1 -118.5t1 -125.5q0 -6 -8 -10t-22.5 -5t-26.5 -1t-30 0.5t-24 0.5q-7 1 -10.5 9t-5 22.5t-1.5 26t0.5 29.5t0.5 24l2 37q1 57 -0.5 158.5t-1.5 136.5q0 7 2 72t-1 75q-18 0 -54 -0.5t-54 -0.5
q-15 0 -45.5 0.5t-47.5 0.5q-15 0 -15 14zM403 -128q0 -117 -97 -197l-33 30q22 17 35 46.5t14 49.5l-10 4q-19 4 -33 24.5t-14 42.5q0 26 19.5 47.5t49.5 21.5q28 0 48.5 -19.5t20.5 -49.5z" />
    <glyph glyph-name="Tcaron" unicode="&#x164;" horiz-adv-x="676" 
d="M61 603q0 4 -0.5 12t-0.5 12q5 67 9 72q3 3 24 5q3 0 6 1q32 -4 66 -4.5t84.5 0.5t69.5 1q13 0 37 0.5t37 0.5q22 0 72 0.5t80 0.5q8 0 26 -0.5t28 -0.5q15 0 15 -14q0 -4 -0.5 -12t-0.5 -12q0 -7 1 -19t1 -19q0 -38 -17 -38q-167 0 -197 1l-1 -75q0 -6 0.5 -18.5
t0.5 -18.5t-0.5 -18t-0.5 -18l2 -37q0 -25 -0.5 -74t-0.5 -73q0 -38 1 -118.5t1 -125.5q0 -6 -8 -10t-22.5 -5t-26.5 -1t-30 0.5t-24 0.5q-7 1 -10.5 9t-5 22.5t-1.5 26t0.5 29.5t0.5 24l2 37q1 57 -0.5 158.5t-1.5 136.5q0 7 2 72t-1 75q-18 0 -54 -0.5t-54 -0.5
q-15 0 -45.5 0.5t-47.5 0.5q-15 0 -15 14zM405 967h86q6 0 6 -6q0 -5 -54 -69q-12 -12 -31.5 -36.5t-27.5 -33.5q-2 -2 -12 -14.5t-18.5 -18.5t-17.5 -6q-7 0 -20 12t-27.5 29.5t-15.5 18.5q-18 24 -43 52.5t-38 43.5t-13 20q0 9 53 9q37 0 41 -1q6 -1 15 -12l48 -58l48 58
q9 12 21 12z" />
    <glyph glyph-name="tcaron" unicode="&#x165;" horiz-adv-x="656" 
d="M51 603q0 4 -0.5 12t-0.5 12q5 67 9 72q3 3 24 5q3 0 6 1q32 -4 66 -4.5t84.5 0.5t69.5 1q13 0 37 0.5t37 0.5q22 0 72 0.5t80 0.5q8 0 26 -0.5t28 -0.5q15 0 15 -14q0 -4 -0.5 -12t-0.5 -12q0 -7 1 -19t1 -19q0 -38 -17 -38q-167 0 -197 1l-1 -75q0 -6 0.5 -18.5
t0.5 -18.5t-0.5 -18t-0.5 -18l2 -37q0 -25 -0.5 -74t-0.5 -73q0 -38 1 -118.5t1 -125.5q0 -6 -8 -10t-22.5 -5t-26.5 -1t-30 0.5t-24 0.5q-7 1 -10.5 9t-5 22.5t-1.5 26t0.5 29.5t0.5 24l2 37q1 57 -0.5 158.5t-1.5 136.5q0 7 2 72t-1 75q-18 0 -54 -0.5t-54 -0.5
q-15 0 -45.5 0.5t-47.5 0.5q-15 0 -15 14zM395 967h86q6 0 6 -6q0 -5 -54 -69q-12 -12 -31.5 -36.5t-27.5 -33.5q-2 -2 -12 -14.5t-18.5 -18.5t-17.5 -6q-7 0 -20 12t-27.5 29.5t-15.5 18.5q-18 24 -43 52.5t-38 43.5t-13 20q0 9 53 9q37 0 41 -1q6 -1 15 -12l48 -58l48 58
q9 12 21 12z" />
    <glyph glyph-name="Umacron" unicode="&#x16a;" horiz-adv-x="774" 
d="M90 291l2 37q0 12 -1 37t-1 38q0 12 2 38q0 6 -0.5 18.5t-0.5 18.5q0 15 1 47t1 48q0 3 -0.5 21.5t-0.5 34.5t0.5 34t3.5 29t8 11t14.5 -0.5t14.5 -0.5q11 0 34 1t35 1q14 0 14 -15q0 -17 -1 -49t-1 -49q0 -9 1.5 -31t1.5 -54v-65q0 -41 -1.5 -92t-1 -68t5.5 -42t18 -53
q1 -1 14 -19t25 -29.5t42 -23t69 -11.5q27 0 48 5l15 4q65 24 93 83q14 32 14 69l2 27q0 6 -0.5 18.5t-0.5 18.5t0.5 19t0.5 20q-3 36 -3 74q0 7 1 19.5t1 18.5q0 35 -1 105t-1 105q0 15 14 15q79 0 94 -2q6 0 9.5 -5t5 -14t2 -17.5t1 -20.5t0.5 -17q-3 -29 0 -75
q0 -6 -0.5 -18.5t-0.5 -18.5q0 -13 2 -75q0 -7 -1 -19.5t-1 -18.5q0 -13 0.5 -38t0.5 -37q0 -97 -10 -135q0 -3 -2 -8.5t-2 -8.5q-13 -38 -31 -67.5t-41.5 -48.5t-42 -29.5t-44.5 -22.5q-28 -16 -124 -23q-34 3 -73 9l-7 2q-7 1 -15 3t-20.5 6t-25 9t-26.5 13t-26.5 17.5
t-24.5 22.5t-21 28l-6 9q-27 36 -27 53q-16 42 -24 134zM501 782h-48q-14 -1 -41 -1t-40 1h-99q-12 0 -12 17v52q0 10 3.5 13.5t13.5 3.5h6q19 1 58 1h9q13 -1 37 -1q26 0 29 1h31q3 0 8.5 -0.5t8.5 -0.5h10q34 0 37 -4q1 -3 1 -8v-62q0 -12 -12 -12z" />
    </font>
</defs>
</svg>
